<svg width="12" height="12" viewBox="0 0 12 12" fill="none" xmlns="http://www.w3.org/2000/svg">
<g clip-path="url(#clip0_353_469)">
<path d="M11.7397 5.46176C11.9759 5.23156 12.0593 4.89372 11.9574 4.57966C11.8553 4.2656 11.5893 4.04141 11.2625 3.99384L8.35694 3.57165C8.23319 3.55363 8.12626 3.47602 8.071 3.3638L6.772 0.731202C6.62614 0.435407 6.33011 0.251587 6.00019 0.251587C5.67051 0.251587 5.37448 0.435407 5.22862 0.731202L3.92939 3.36404C3.87412 3.47626 3.76695 3.55387 3.6432 3.57189L0.737635 3.99408C0.411084 4.04141 0.144844 4.26584 0.0427215 4.5799C-0.0591608 4.89396 0.0242193 5.2318 0.260423 5.462L2.36271 7.51118C2.45233 7.59864 2.49342 7.72455 2.47228 7.84758L1.97632 10.7411C1.93235 10.9958 1.99915 11.2436 2.16399 11.4389C2.42013 11.7434 2.86731 11.8361 3.22486 11.6482L5.82334 10.2819C5.93195 10.225 6.06867 10.2255 6.17704 10.2819L8.77576 11.6482C8.90215 11.7148 9.03695 11.7484 9.17608 11.7484C9.43007 11.7484 9.67084 11.6355 9.83639 11.4389C10.0015 11.2436 10.068 10.9954 10.0241 10.7411L9.52786 7.84758C9.50672 7.72431 9.54781 7.59864 9.63743 7.51118L11.7397 5.46176Z" fill="#F2C71C"/>
</g>
<defs>
<clipPath id="clip0_353_469">
<rect width="12" height="12" fill="white"/>
</clipPath>
</defs>
</svg>
