<svg width="23" height="23" viewBox="0 0 23 23" fill="none" xmlns="http://www.w3.org/2000/svg">
<path fill-rule="evenodd" clip-rule="evenodd" d="M11.7669 1.59926C11.5956 1.53072 11.4044 1.53072 11.2331 1.59926L2.65404 5.03087L11.5 8.56925L20.346 5.03087L11.7669 1.59926ZM21.5625 6.09248L12.2188 9.82998V21.2192L21.5625 17.4817V6.09248ZM10.7812 21.2192V9.82998L1.4375 6.09248V17.4817L10.7812 21.2192ZM10.6992 0.264574C11.2133 0.0589442 11.7867 0.0589442 12.3008 0.264574L22.5482 4.36352C22.8211 4.47268 23 4.73697 23 5.03087V17.4817C23 18.0695 22.6421 18.5981 22.0964 18.8164L11.7669 22.9482C11.5956 23.0168 11.4044 23.0168 11.2331 22.9482L0.903626 18.8164C0.357867 18.5981 0 18.0695 0 17.4817V5.03087C0 4.73697 0.178933 4.47268 0.451813 4.36352L10.6992 0.264574Z" fill="#939393"/>
</svg>
