<svg width="40" height="40" viewBox="0 0 40 40" fill="none" xmlns="http://www.w3.org/2000/svg">
<g id="Frame">
<path id="Vector" d="M30.6364 23.1094L30.6474 11.7782C30.648 11.277 30.4478 10.8045 30.0843 10.4478C29.7208 10.0915 29.2392 9.89526 28.7283 9.89526H25.5052V9.24347C25.5052 8.55791 24.9363 8 24.2374 8H24.0625C23.3636 8 22.7948 8.55791 22.7948 9.24347V9.89526H20.6789V9.34007C20.6789 8.65451 20.1101 8.0966 19.4111 8.0966H19.2367C18.5377 8.0966 17.9689 8.65451 17.9689 9.34007V9.89526H15.8531V9.24347C15.8531 8.55791 15.2842 8 14.5853 8H14.4108C13.7119 8 13.1431 8.55791 13.1431 9.24347V9.89526H9.91911C8.86081 9.89526 8 10.7396 8 11.7778V27.858C8 28.896 8.86081 29.7403 9.91911 29.7403H22.0183C22.0405 29.7403 22.062 29.7374 22.0831 29.7338C23.0733 31.1033 24.701 32 26.5391 32C29.5502 32 32 29.5972 32 26.6439C32.0004 25.2903 31.4845 24.053 30.6369 23.109L30.6364 23.1094ZM23.5842 9.24347C23.5842 8.98469 23.7991 8.774 24.0629 8.774H24.2377C24.5016 8.774 24.7164 8.98469 24.7164 9.24347V11.1277C24.7164 11.3865 24.5018 11.5972 24.2377 11.5972H24.0633C23.7995 11.5972 23.5846 11.3865 23.5846 11.1277V10.2822L23.5844 9.24342L23.5842 9.24347ZM18.7578 9.34022C18.7578 9.08144 18.9726 8.87075 19.2364 8.87075H19.4109C19.6747 8.87075 19.8895 9.08144 19.8895 9.34022V11.2248C19.8895 11.4836 19.6747 11.6943 19.4109 11.6943H19.2364C18.9726 11.6943 18.7578 11.4836 18.7578 11.2248V9.34022ZM13.9313 9.24347C13.9313 8.98469 14.1461 8.774 14.41 8.774H14.5844C14.8483 8.774 15.0631 8.98469 15.0631 9.24347V11.1277C15.0631 11.154 15.0593 11.1791 15.0554 11.2042C15.0546 11.2102 15.0548 11.2163 15.0536 11.2223C15.0089 11.4361 14.8158 11.5972 14.5846 11.5972H14.4102C14.1463 11.5972 13.9315 11.3865 13.9315 11.1277V9.24347L13.9313 9.24347ZM9.91921 10.6693H13.142V11.1277C13.142 11.8133 13.7108 12.3712 14.4098 12.3712H14.5842C15.2832 12.3712 15.852 11.8133 15.852 11.1277V10.6693H17.9678V11.2245C17.9678 11.91 18.5367 12.4679 19.2356 12.4679H19.4101C20.109 12.4679 20.6778 11.91 20.6778 11.2245V10.6693H22.7937V11.1277C22.7937 11.8133 23.3625 12.3712 24.0615 12.3712H24.2363C24.9353 12.3712 25.5041 11.8133 25.5041 11.1277V10.6693H28.7269C29.0273 10.6693 29.3105 10.7851 29.5251 10.9952C29.7393 11.2054 29.8572 11.4831 29.8569 11.7772L29.8537 14.8999L8.78954 14.9001V11.7779C8.78954 11.1665 9.29636 10.6692 9.91931 10.6692L9.91921 10.6693ZM9.91921 28.9668C9.29625 28.9668 8.78923 28.4695 8.78923 27.8585L8.78943 15.6745H29.8546L29.8479 22.3877C28.929 21.699 27.7825 21.2887 26.5393 21.2887C25.1807 21.2887 23.9373 21.7792 22.9806 22.5874V21.4081C22.9806 20.9344 22.5878 20.5487 22.1044 20.5487H20.6311C20.1481 20.5487 19.7549 20.934 19.7549 21.4081V22.8531C19.7549 23.3269 20.1477 23.7125 20.6311 23.7125H21.9727C21.4078 24.5555 21.078 25.5632 21.078 26.6452C21.078 27.4765 21.2722 28.2645 21.6183 28.9675L9.91886 28.9673L9.91921 28.9668ZM22.1046 22.9378H20.6312C20.5844 22.9378 20.5446 22.8988 20.5446 22.8529V21.4078C20.5446 21.3618 20.5844 21.3228 20.6312 21.3228H22.1046C22.1514 21.3228 22.1912 21.3618 22.1912 21.4078V22.8529C22.1912 22.8988 22.1516 22.9378 22.1046 22.9378ZM26.5394 31.2266C23.9636 31.2266 21.8679 29.1711 21.8679 26.6447C21.8679 24.1183 23.9636 22.0628 26.5394 22.0628C29.1152 22.0628 31.2109 24.1183 31.2109 26.6447C31.2109 29.1711 29.1152 31.2266 26.5394 31.2266ZM28.3105 25.2674C28.4646 25.4186 28.4646 25.6636 28.3105 25.8148L26.3153 27.7717C26.2387 27.8468 26.1375 27.8851 26.0361 27.8851C25.9469 27.8851 25.857 27.8553 25.7835 27.7953L24.6685 26.8834C24.5012 26.7465 24.4785 26.5023 24.6181 26.3382C24.7581 26.1741 25.0066 26.1521 25.1739 26.2888L26.0117 26.9741L27.752 25.2672C27.9062 25.1162 28.1563 25.1158 28.3105 25.2674ZM17.735 16.7457H16.2617C15.7787 16.7457 15.3857 17.131 15.3857 17.6049V19.05C15.3857 19.5237 15.7785 19.9093 16.2617 19.9093H17.735C18.218 19.9093 18.6112 19.5241 18.6112 19.05V17.6049C18.611 17.131 18.218 16.7457 17.735 16.7457ZM17.8217 19.0498C17.8217 19.0957 17.7819 19.1347 17.735 19.1347H16.2617C16.2148 19.1347 16.1751 19.0957 16.1751 19.0498V17.6047C16.1751 17.5587 16.2148 17.5199 16.2617 17.5199H17.735C17.7819 17.5199 17.8217 17.5589 17.8217 17.6047V19.0498ZM20.6317 19.9088H22.1051C22.588 19.9088 22.9812 19.5235 22.9812 19.0494V17.6043C22.9812 17.1306 22.5884 16.7451 22.1051 16.7451H20.6317C20.1487 16.7451 19.7555 17.1304 19.7555 17.6043V19.0494C19.7555 19.5235 20.1483 19.9088 20.6317 19.9088ZM20.5451 17.6047C20.5451 17.5587 20.5849 17.5199 20.6317 17.5199H22.1051C22.1519 17.5199 22.1917 17.5589 22.1917 17.6047V19.0498C22.1917 19.0957 22.1519 19.1347 22.1051 19.1347H20.6317C20.5849 19.1347 20.5451 19.0957 20.5451 19.0498V17.6047ZM25.0014 19.9088H26.4747C26.9577 19.9088 27.3509 19.5235 27.3509 19.0494V17.6043C27.3509 17.1306 26.9581 16.7451 26.4747 16.7451H25.0014C24.5184 16.7451 24.1252 17.1304 24.1252 17.6043V19.0494C24.1252 19.5235 24.5184 19.9088 25.0014 19.9088ZM24.9147 17.6047C24.9147 17.5587 24.9545 17.5199 25.0014 17.5199H26.4747C26.5216 17.5199 26.5613 17.5589 26.5613 17.6047V19.0498C26.5613 19.0957 26.5216 19.1347 26.4747 19.1347H25.0014C24.9545 19.1347 24.9147 19.0957 24.9147 19.0498V17.6047ZM13.3655 20.5484H11.8923C11.4093 20.5484 11.0163 20.9337 11.0163 21.4078V22.8528C11.0163 23.3266 11.4091 23.7122 11.8923 23.7122H13.3656C13.8486 23.7122 14.2418 23.327 14.2418 22.8528V21.4078C14.2414 20.9339 13.8484 20.5484 13.3654 20.5484H13.3655ZM13.4521 22.8525C13.4521 22.8984 13.4124 22.9374 13.3655 22.9374L11.8923 22.9376C11.8455 22.9376 11.8059 22.8986 11.8059 22.8526V21.4076C11.8059 21.3616 11.8456 21.3226 11.8923 21.3226H13.3656C13.4125 21.3226 13.4523 21.3616 13.4523 21.4076L13.4521 22.8525ZM17.7352 20.5484H16.2618C15.7789 20.5484 15.3859 20.9337 15.3859 21.4078V22.8528C15.3859 23.3266 15.7787 23.7122 16.2618 23.7122H17.7352C18.2182 23.7122 18.6114 23.327 18.6114 22.8528V21.4078C18.6112 20.9339 18.2182 20.5484 17.7352 20.5484ZM17.8218 22.8525C17.8218 22.8984 17.782 22.9374 17.7352 22.9374H16.2618C16.215 22.9374 16.1752 22.8984 16.1752 22.8525V21.4074C16.1752 21.3614 16.215 21.3224 16.2618 21.3224H17.7352C17.782 21.3224 17.8218 21.3614 17.8218 21.4074V22.8525ZM13.3655 24.3514H11.8923C11.4094 24.3514 11.0164 24.7367 11.0164 25.2106V26.6557C11.0164 27.1294 11.4092 27.5151 11.8923 27.5151H13.3657C13.8487 27.5151 14.2419 27.1298 14.2419 26.6557V25.2106C14.2415 24.7369 13.8485 24.3514 13.3655 24.3514H13.3655ZM13.4522 26.6553C13.4522 26.7013 13.4124 26.7403 13.3655 26.7403H11.8923C11.8455 26.7403 11.8059 26.7013 11.8059 26.6553V25.2103C11.8059 25.1643 11.8457 25.1253 11.8923 25.1253H13.3657C13.4125 25.1253 13.4523 25.1643 13.4523 25.2103L13.4522 26.6553ZM17.7352 24.3514H16.2619C15.7789 24.3514 15.3859 24.7367 15.3859 25.2106V26.6557C15.3859 27.1294 15.7787 27.5151 16.2619 27.5151H17.7352C18.2182 27.5151 18.6114 27.1298 18.6114 26.6557V25.2106C18.6112 24.7369 18.2182 24.3514 17.7352 24.3514ZM17.8218 26.6553C17.8218 26.7013 17.7821 26.7403 17.7352 26.7403H16.2619C16.215 26.7403 16.1752 26.7013 16.1752 26.6553V25.2103C16.1752 25.1643 16.215 25.1253 16.2619 25.1253H17.7352C17.7821 25.1253 17.8218 25.1643 17.8218 25.2103V26.6553ZM13.3656 16.7455H11.8924C11.4094 16.7455 11.0164 17.1307 11.0164 17.6046V19.0497C11.0164 19.5234 11.4092 19.9091 11.8924 19.9091H13.3657C13.8487 19.9091 14.2419 19.5238 14.2419 19.0497V17.6046C14.2415 17.1307 13.8485 16.7455 13.3656 16.7455ZM13.4522 19.0495C13.4522 19.0955 13.4124 19.1345 13.3656 19.1345H11.8924C11.8455 19.1345 11.8059 19.0955 11.8059 19.0495V17.6044C11.8059 17.5585 11.8457 17.5197 11.8924 17.5197H13.3657C13.4126 17.5197 13.4523 17.5587 13.4523 17.6044L13.4522 19.0495Z" fill="#C89963"/>
</g>
</svg>
