<svg width="23" height="23" viewBox="0 0 23 23" fill="none" xmlns="http://www.w3.org/2000/svg">
<g id="cash">
<g id="Vector">
<path fill-rule="evenodd" clip-rule="evenodd" d="M21.5625 5.75H1.4375V17.25H21.5625V5.75ZM1.4375 4.3125C0.643591 4.3125 0 4.95609 0 5.75V17.25C0 18.0439 0.643591 18.6875 1.4375 18.6875H21.5625C22.3564 18.6875 23 18.0439 23 17.25V5.75C23 4.95609 22.3564 4.3125 21.5625 4.3125H1.4375Z" fill="#939393"/>
<path d="M18.6875 5.75C18.6875 7.33782 19.9747 8.625 21.5625 8.625V5.75H18.6875Z" fill="#939393"/>
<path d="M4.3125 5.75C4.3125 7.33782 3.02532 8.625 1.4375 8.625V5.75H4.3125Z" fill="#939393"/>
<path d="M18.6875 17.25C18.6875 15.6622 19.9747 14.375 21.5625 14.375V17.25H18.6875Z" fill="#939393"/>
<path d="M4.3125 17.25C4.3125 15.6622 3.02532 14.375 1.4375 14.375V17.25H4.3125Z" fill="#939393"/>
<path d="M14.375 11.5C14.375 13.0878 13.0878 14.375 11.5 14.375C9.91218 14.375 8.625 13.0878 8.625 11.5C8.625 9.91218 9.91218 8.625 11.5 8.625C13.0878 8.625 14.375 9.91218 14.375 11.5Z" fill="#939393"/>
</g>
</g>
</svg>
