<svg width="27" height="27" viewBox="0 0 27 27" fill="none" xmlns="http://www.w3.org/2000/svg">
<g id="Group">
<path id="Vector" d="M9.51681 4.22566C8.92283 4.22566 8.35306 4.46166 7.93284 4.88165C7.51285 5.30164 7.27686 5.87139 7.27686 6.46562C7.27686 6.77486 7.5276 7.02561 7.83684 7.02561C8.14609 7.02561 8.39683 6.77486 8.39683 6.46562C8.39783 6.07638 8.60083 5.71562 8.93282 5.51287C9.26482 5.30987 9.67854 5.29387 10.0253 5.47062C10.372 5.64711 10.602 5.99111 10.6333 6.37908C10.6643 6.76682 10.4918 7.1431 10.1775 7.37279C9.43732 7.88228 8.98383 8.71427 8.95682 9.61275V9.82549C8.95682 10.1347 9.20756 10.3855 9.51681 10.3855C9.82605 10.3855 10.0768 10.1347 10.0768 9.82549V9.61275C10.1063 9.07326 10.3885 8.5793 10.8383 8.27978C11.4172 7.85679 11.7585 7.18233 11.7568 6.46554C11.7568 5.8713 11.5208 5.30153 11.1008 4.88157C10.6805 4.46158 10.1108 4.22559 9.51681 4.22559L9.51681 4.22566Z" fill="#FBFCF8"/>
<path id="Vector_2" d="M9.51663 11.1475C9.24489 11.1475 8.99989 11.3112 8.89589 11.5625C8.7919 11.8135 8.84939 12.1025 9.04139 12.2947C9.23363 12.4869 9.52263 12.5444 9.77385 12.4404C10.0249 12.3364 10.1886 12.0912 10.1886 11.8194C10.1886 11.4485 9.88788 11.1475 9.51663 11.1475Z" fill="#FBFCF8"/>
<path id="Vector_3" d="M14.4443 17.7666C14.1498 17.7666 13.8843 17.9438 13.7718 18.2161C13.6591 18.4881 13.7213 18.8011 13.9295 19.0094C14.1378 19.2176 14.4508 19.2799 14.7228 19.1671C14.9951 19.0546 15.1723 18.7891 15.1723 18.4946C15.1723 18.0926 14.8463 17.7666 14.4443 17.7666Z" fill="#FBFCF8"/>
<path id="Vector_4" d="M17.3564 17.7666C17.0619 17.7666 16.7964 17.9438 16.6839 18.2161C16.5712 18.4881 16.6334 18.8011 16.8417 19.0094C17.0499 19.2176 17.3629 19.2799 17.6349 19.1671C17.9072 19.0546 18.0844 18.7891 18.0844 18.4946C18.0844 18.0926 17.7584 17.7666 17.3564 17.7666Z" fill="#FBFCF8"/>
<path id="Vector_5" d="M20.2685 17.7666C19.974 17.7666 19.7085 17.9438 19.596 18.2161C19.4833 18.4881 19.5455 18.8011 19.7538 19.0094C19.962 19.2176 20.275 19.2799 20.547 19.1671C20.8193 19.0546 20.9965 18.7891 20.9965 18.4946C20.9965 18.0926 20.6705 17.7666 20.2685 17.7666Z" fill="#FBFCF8"/>
<path id="Vector_6" d="M26.6523 25.8862L23.8636 23.7917C25.1929 22.178 25.8708 20.1253 25.7638 18.0371C25.6568 15.9488 24.7731 13.9761 23.2856 12.5064C21.7984 11.0369 19.8154 10.1765 17.726 10.0944C17.8445 9.54193 17.9082 8.97943 17.9165 8.41445C17.9212 5.68272 16.597 3.11932 14.3665 1.54162C12.136 -0.0356302 9.27784 -0.429863 6.70394 0.485128C4.12971 1.39986 2.1613 3.50907 1.42653 6.14025C0.691572 8.77143 1.28204 11.5954 3.00948 13.7113L0.220797 15.8058C0.0288006 15.952 -0.0479473 16.2048 0.0302976 16.433C0.103794 16.6613 0.317045 16.8155 0.556791 16.8138H9.12495C9.01195 17.3665 8.9557 17.9295 8.95695 18.4937C8.95695 20.7215 9.84192 22.8581 11.4171 24.4334C12.9923 26.0086 15.1291 26.8936 17.3568 26.8936H26.3166C26.5564 26.8953 26.7696 26.7411 26.8431 26.5128C26.9214 26.2846 26.8446 26.0319 26.6526 25.8856L26.6523 25.8862ZM2.23678 15.6944L4.16328 14.2497C4.28902 14.1509 4.37002 14.0054 4.38727 13.8464C4.38927 13.7002 4.33277 13.5589 4.23028 13.4544C2.57303 11.7039 1.88958 9.24651 2.40554 6.89135C2.92128 4.53665 4.56947 2.58993 6.80693 1.69248C9.04414 0.795215 11.5809 1.06349 13.5806 2.40946C15.5805 3.75516 16.7847 6.00363 16.7962 8.41433C16.785 8.98033 16.7137 9.54359 16.5835 10.0943C14.983 10.247 13.4603 10.856 12.1956 11.8485C10.9309 12.8413 9.97793 14.176 9.44917 15.6942L2.23678 15.6944ZM17.3565 25.7742C14.7555 25.8282 12.3236 24.4904 10.9764 22.2653C9.62915 20.0398 9.57143 17.2648 10.8251 14.9854C12.0789 12.706 14.4533 11.2685 17.054 11.2145H17.3565C19.2767 11.1987 21.1252 11.9435 22.4982 13.2862C23.8711 14.6289 24.6571 16.4601 24.6841 18.3803C24.7111 20.3006 23.9774 22.1535 22.6429 23.5342C22.5321 23.6517 22.4754 23.81 22.4859 23.971C22.4979 24.1317 22.5796 24.2792 22.7099 24.3742L24.6364 25.7742H17.3565Z" fill="#FBFCF8"/>
</g>
</svg>
