<svg width="40" height="40" viewBox="0 0 40 40" fill="none" xmlns="http://www.w3.org/2000/svg">
<g id="Frame">
<g id="Group">
<path id="Vector" d="M16 14.1992C15.0347 14.1992 14.25 14.9839 14.25 15.9492H15.65C15.65 15.7567 15.8075 15.5992 16 15.5992C16.1925 15.5992 16.35 15.7567 16.3577 15.8953C16.329 15.9681 16.1638 16.1431 16.0539 16.2586C15.7361 16.5939 15.3 17.0538 15.3 17.6992H16.7C16.7 17.6117 16.959 17.338 17.0696 17.2211C17.3727 16.9019 17.75 16.5043 17.75 15.9492C17.75 14.9839 16.9653 14.1992 16 14.1992Z" fill="#C89963"/>
<path id="Vector_2" d="M16.7008 18.4004H15.3008V19.8004H16.7008V18.4004Z" fill="#C89963"/>
<path id="Vector_3" d="M23.7008 23.3008H22.3008V26.8008H23.7008V23.3008Z" fill="#C89963"/>
<path id="Vector_4" d="M23.7008 21.1992H22.3008V22.5992H23.7008V21.1992Z" fill="#C89963"/>
<path id="Vector_5" d="M30 24C30 20.1402 26.8598 17 23 17C23 13.1402 19.8598 10 16 10C12.1402 10 9 13.1402 9 17C9 18.6128 9.5397 20.1388 10.5344 21.3722L9 22.6161V24H16C16 27.8598 19.1402 31 23 31H30V29.6161L28.467 28.3736C29.4603 27.136 30 25.6093 30 24ZM16 22.6H11.2435L12.5945 21.5059L12.0415 20.9564C10.9831 19.9036 10.4 18.4994 10.4 17C10.4 13.9123 12.9123 11.4 16 11.4C19.0877 11.4 21.6 13.9123 21.6 17C21.6 17.0497 21.5972 17.0945 21.5958 17.1414C18.8609 17.7014 16.7014 19.8609 16.1414 22.5958C16.0945 22.5972 16.0497 22.6 16 22.6ZM23 29.6C19.9123 29.6 17.4 27.0877 17.4 24C17.4 20.9123 19.9123 18.4 23 18.4C26.0877 18.4 28.6 20.9123 28.6 24C28.6 25.4959 28.0176 26.9022 26.9599 27.9599L26.4104 28.5094L27.7565 29.6H23Z" fill="#C89963"/>
</g>
</g>
</svg>
