<svg width="25" height="25" viewBox="0 0 25 25" fill="none" xmlns="http://www.w3.org/2000/svg">
<g id="x-lg">
<path id="x (Stroke)" fill-rule="evenodd" clip-rule="evenodd" d="M0.762563 0.762563C1.44598 0.0791456 2.55402 0.0791456 3.23744 0.762563L12.5 10.0251L21.7626 0.762563C22.446 0.0791456 23.554 0.0791456 24.2374 0.762563C24.9209 1.44598 24.9209 2.55402 24.2374 3.23744L14.9749 12.5L24.2374 21.7626C24.9209 22.446 24.9209 23.554 24.2374 24.2374C23.554 24.9209 22.446 24.9209 21.7626 24.2374L12.5 14.9749L3.23744 24.2374C2.55402 24.9209 1.44598 24.9209 0.762563 24.2374C0.0791456 23.554 0.0791456 22.446 0.762563 21.7626L10.0251 12.5L0.762563 3.23744C0.0791456 2.55402 0.0791456 1.44598 0.762563 0.762563Z" fill="#CA9A61"/>
</g>
</svg>
