<svg width="40" height="40" viewBox="0 0 40 40" fill="none" xmlns="http://www.w3.org/2000/svg">
<g id="Frame">
<path id="Vector" d="M19.5002 17.82C20.6349 17.8073 21.6779 17.1947 22.2416 16.21C22.8052 15.2253 22.8052 14.0155 22.2416 13.0308C21.6779 12.0461 20.6347 11.4334 19.5002 11.4208C18.3655 11.4336 17.3224 12.0461 16.7587 13.031C16.195 14.0157 16.195 15.2252 16.7587 16.21C17.3225 17.1949 18.3655 17.8073 19.5002 17.82ZM19.5002 12.2923C20.3261 12.3015 21.0852 12.7472 21.4956 13.4637C21.9058 14.1804 21.9058 15.0609 21.4954 15.7776C21.0852 16.4941 20.3259 16.9399 19.5002 16.9488C18.6744 16.9399 17.9152 16.4941 17.5048 15.7774C17.0946 15.0607 17.0946 14.1804 17.5048 13.4637C17.9152 12.747 18.6744 12.3014 19.5002 12.2923ZM21.9613 18.7132H17.0277C16.4862 18.7138 15.9671 18.9291 15.5841 19.3118C15.2012 19.6948 14.9858 20.2139 14.9851 20.7553V25.5315C15.1738 31.4888 23.8148 31.4903 24.0035 25.5313L24.0037 20.7553C24.0031 20.2139 23.7876 19.6948 23.4049 19.312C23.0219 18.9291 22.5028 18.7138 21.9615 18.7132L21.9613 18.7132ZM23.1322 25.5314C23.1195 26.8227 22.4236 28.0104 21.3031 28.6524C20.1828 29.2945 18.8059 29.2945 17.6856 28.6524C16.5651 28.0104 15.869 26.8225 15.8565 25.5312V20.7553C15.8571 20.4449 15.9806 20.1473 16.2002 19.9277C16.4198 19.7081 16.7174 19.5848 17.0278 19.5844H21.9613C22.2716 19.5848 22.5692 19.7083 22.7887 19.9279C23.0083 20.1473 23.1316 20.4449 23.1322 20.7553L23.1322 25.5314ZM12.3496 16.1211H8.76998C8.30084 16.1215 7.85095 16.3082 7.51894 16.6401C7.18712 16.9719 7.0006 17.4217 7 17.891V22.1408V22.1406C7.01031 23.4056 7.69107 24.5698 8.78825 25.1994C9.88543 25.8288 11.2343 25.8288 12.3313 25.1992C13.4285 24.5698 14.1092 23.4054 14.1195 22.1406V17.891C14.119 17.4217 13.9324 16.9718 13.6006 16.64C13.2688 16.3082 12.8189 16.1215 12.3496 16.1211L12.3496 16.1211ZM13.2482 22.1407C13.2377 23.0941 12.7231 23.9707 11.8957 24.4445C11.0681 24.9181 10.0516 24.9181 9.22398 24.4445C8.39658 23.9707 7.88193 23.0942 7.87142 22.1407V17.8911C7.87181 17.6528 7.96653 17.4243 8.13497 17.2559C8.30341 17.0874 8.53176 16.9927 8.77003 16.9925H12.3497C12.5879 16.9927 12.8163 17.0874 12.9849 17.2559C13.1534 17.4243 13.2481 17.6528 13.2483 17.8911L13.2482 22.1407ZM10.5789 15.2449C11.5057 15.2345 12.3578 14.7339 12.8182 13.9295C13.2788 13.1251 13.2788 12.1369 12.8182 11.3325C12.3578 10.5279 11.5057 10.0274 10.5787 10.0169C9.6517 10.0274 8.79975 10.5281 8.33917 11.3325C7.87878 12.1369 7.87878 13.1251 8.33917 13.9295C8.79975 14.7341 9.65185 15.2345 10.5788 15.2449H10.5789ZM10.5789 10.8882C11.1955 10.8974 11.7615 11.2313 12.0672 11.7669C12.3728 12.3024 12.3728 12.9596 12.067 13.4952C11.7613 14.0306 11.1953 14.3648 10.5787 14.3735C9.96211 14.3646 9.39612 14.0306 9.09035 13.495C8.78459 12.9596 8.78459 12.3024 9.09035 11.7667C9.3961 11.2313 9.96211 10.8972 10.5789 10.8882L10.5789 10.8882ZM30.23 16.1037H26.6504C26.1811 16.1043 25.7312 16.291 25.3993 16.623C25.0675 16.9548 24.881 17.4047 24.8804 17.874V22.1242C24.8919 23.3882 25.573 24.5512 26.6697 25.1798C27.7662 25.8086 29.1142 25.8086 30.2108 25.1798C31.3073 24.5512 31.9883 23.3882 32 22.1242V17.874C31.9994 17.4047 31.8129 16.9548 31.4811 16.623C31.1492 16.291 30.6994 16.1043 30.23 16.1037ZM31.1286 22.1243C31.1177 23.0775 30.6029 23.9535 29.7755 24.4271C28.9483 24.9005 27.932 24.9005 27.1047 24.4269C26.2773 23.9535 25.7627 23.0773 25.7518 22.1243V17.8741C25.752 17.6358 25.8467 17.4073 26.0151 17.2389C26.1836 17.0703 26.4121 16.9755 26.6504 16.9752H30.23C30.4683 16.9755 30.6966 17.0703 30.8653 17.2389C31.0337 17.4073 31.1284 17.6358 31.1286 17.8741L31.1286 22.1243ZM28.4591 15.2279C29.3861 15.2174 30.2382 14.717 30.6986 13.9126C31.159 13.108 31.159 12.1197 30.6986 11.3153C30.238 10.5109 29.3859 10.0105 28.4591 10C27.5321 10.0105 26.68 10.5109 26.2196 11.3153C25.7592 12.1199 25.7592 13.1082 26.2196 13.9126C26.6802 14.717 27.5323 15.2174 28.4591 15.2279ZM28.4591 10.8713C29.0757 10.8803 29.6417 11.2144 29.9475 11.7499C30.2532 12.2855 30.2532 12.9427 29.9475 13.4781C29.6417 14.0136 29.0757 14.3477 28.4591 14.3567C27.8425 14.3477 27.2765 14.0136 26.9708 13.4781C26.665 12.9425 26.665 12.2853 26.9708 11.7499C27.2765 11.2144 27.8425 10.8803 28.4591 10.8713Z" fill="#C89963"/>
</g>
</svg>
