<svg width="40" height="40" viewBox="0 0 40 40" fill="none" xmlns="http://www.w3.org/2000/svg">
<g id="Frame">
<path id="Vector" d="M29.5889 29.5843C29.7428 29.7417 29.8367 29.9569 29.8367 30.1722C29.8367 30.3875 29.7428 30.6026 29.5889 30.76C29.4265 30.9089 29.2042 31 28.9821 31C28.7598 31 28.5375 30.9089 28.3752 30.76C28.2213 30.6026 28.1273 30.3875 28.1273 30.1722C28.1273 29.9569 28.2213 29.7417 28.3752 29.5843C28.6999 29.2781 29.2727 29.2781 29.5889 29.5843ZM17.5598 9.1113C17.8328 8.9629 18.1665 8.9629 18.4394 9.1113L31.546 16.241C32.1513 16.5702 32.1513 17.4092 31.546 17.7385L29.7155 18.7327L29.7206 18.7917V27.4102C29.7206 27.8851 29.3204 28.2702 28.8269 28.2702C28.3745 28.2702 28.0006 27.9468 27.9415 27.5269L27.9333 27.4102L27.9311 19.7039L26.2141 20.638L26.2143 26.8444C26.2143 27.1397 26.0401 27.4096 25.7651 27.5403C20.8764 29.8646 15.1229 29.8646 10.2346 27.5403C9.99397 27.4259 9.83049 27.205 9.79342 26.9538L9.78543 26.8443L9.78447 20.638L4.45396 17.7386C3.88904 17.4312 3.85136 16.6799 4.34098 16.3134L4.45396 16.2411L17.5598 9.1113ZM24.6 21.5158L18.4394 24.8683C18.1665 25.0167 17.8328 25.0167 17.5598 24.8683L11.3981 21.5158L11.3977 26.3512L11.79 26.519C15.7541 28.1346 20.2456 28.1346 24.2098 26.519L24.601 26.3512L24.6 21.5158ZM17.9996 10.8474L6.709 16.9893L17.9996 23.1303L26.1414 18.7011L19.3824 16.1453C18.9613 15.9861 18.7363 15.5532 18.8406 15.1417L18.8774 15.0302C19.0428 14.6249 19.4925 14.4083 19.9201 14.5088L20.036 14.5443L28.1459 17.6099L29.2889 16.9896L17.9996 10.8474Z" fill="#C89963" stroke="white" stroke-width="0.5"/>
</g>
</svg>
