<svg width="23" height="23" viewBox="0 0 23 23" fill="none" xmlns="http://www.w3.org/2000/svg">
<path fill-rule="evenodd" clip-rule="evenodd" d="M5.75 0H17.25C18.8378 0 20.125 1.28718 20.125 2.875V20.125C20.125 21.7128 18.8378 23 17.25 23H5.75C4.16218 23 2.875 21.7128 2.875 20.125V2.875C2.875 1.28718 4.16218 0 5.75 0ZM5.75 1.4375C4.95609 1.4375 4.3125 2.08109 4.3125 2.875V20.125C4.3125 20.9189 4.95609 21.5625 5.75 21.5625H17.25C18.0439 21.5625 18.6875 20.9189 18.6875 20.125V2.875C18.6875 2.08109 18.0439 1.4375 17.25 1.4375H5.75Z" fill="#939393"/>
<path d="M8.625 14.5433V8.45716C8.625 7.89848 9.23448 7.5534 9.71354 7.84084L14.7853 10.8839C15.2506 11.1631 15.2506 11.8374 14.7853 12.1165L9.71354 15.1596C9.23448 15.447 8.625 15.1019 8.625 14.5433Z" fill="#939393"/>
</svg>
