<svg width="23" height="23" viewBox="0 0 23 23" fill="none" xmlns="http://www.w3.org/2000/svg">
<path d="M5.75 0H13.6562V1.4375H5.75C4.95609 1.4375 4.3125 2.08109 4.3125 2.875V20.125C4.3125 20.9189 4.95609 21.5625 5.75 21.5625H17.25C18.0439 21.5625 18.6875 20.9189 18.6875 20.125V6.46875H20.125V20.125C20.125 21.7128 18.8378 23 17.25 23H5.75C4.16218 23 2.875 21.7128 2.875 20.125V2.875C2.875 1.28718 4.16218 0 5.75 0Z" fill="#939393"/>
<path d="M13.6562 4.3125V0L20.125 6.46875H15.8125C14.6216 6.46875 13.6562 5.50336 13.6562 4.3125Z" fill="#939393"/>
<path fill-rule="evenodd" clip-rule="evenodd" d="M7 16.3C7 15.9134 7.33579 15.6 7.75 15.6H10.75C11.1642 15.6 11.5 15.9134 11.5 16.3C11.5 16.6866 11.1642 17 10.75 17H7.75C7.33579 17 7 16.6866 7 16.3Z" fill="#939393"/>
<path fill-rule="evenodd" clip-rule="evenodd" d="M7 13.5C7 13.1134 7.33579 12.8 7.75 12.8H15.25C15.6642 12.8 16 13.1134 16 13.5C16 13.8866 15.6642 14.2 15.25 14.2H7.75C7.33579 14.2 7 13.8866 7 13.5Z" fill="#939393"/>
<path fill-rule="evenodd" clip-rule="evenodd" d="M7 10.7C7 10.3134 7.33579 10 7.75 10H15.25C15.6642 10 16 10.3134 16 10.7C16 11.0866 15.6642 11.4 15.25 11.4H7.75C7.33579 11.4 7 11.0866 7 10.7Z" fill="#939393"/>
</svg>
