<svg width="40" height="40" viewBox="0 0 40 40" fill="none" xmlns="http://www.w3.org/2000/svg">
<g id="Frame">
<g id="Group 48095988">
<path id="Vector" d="M27.5113 8H11.6445C10.19 8 9 9.19001 9 10.6445V30.0372C9 31.4917 10.19 32.6817 11.6445 32.6817H23.2801C27.0705 32.6817 30.1557 29.5965 30.1557 25.8061V10.6445C30.1557 9.19001 28.9657 8 27.5113 8ZM28.3928 25.8061C28.3928 28.6268 26.1009 30.9187 23.2801 30.9187H11.6445C11.1596 30.9187 10.763 30.522 10.763 30.0372V10.6445C10.763 10.1596 11.1596 9.76298 11.6445 9.76298H27.5113C27.9961 9.76298 28.3928 10.1596 28.3928 10.6445V25.8061Z" fill="#C89963"/>
<path id="Vector_2" d="M14.2891 19.459H24.8669V21.222H14.2891V19.459Z" fill="#C89963"/>
<path id="Vector_3" d="M14.2891 15.9336H24.8669V17.6966H14.2891V15.9336Z" fill="#C89963"/>
<path id="Vector_4" d="M14.2891 22.9854H22.2225V24.7483H14.2891V22.9854Z" fill="#C89963"/>
</g>
</g>
</svg>
