<svg width="23" height="23" viewBox="0 0 23 23" fill="none" xmlns="http://www.w3.org/2000/svg">
<path fill-rule="evenodd" clip-rule="evenodd" d="M8.87454 1.70167C9.32344 0.69875 10.3301 0 11.5 0C12.6699 0 13.6766 0.698751 14.1255 1.70167C15.0157 1.05757 16.2368 0.955772 17.25 1.54071C18.2631 2.12565 18.7856 3.23413 18.6729 4.32712C19.7659 4.21438 20.8744 4.73682 21.4594 5.74999C22.0443 6.76315 21.9425 7.98436 21.2984 8.87457C22.3013 9.32348 23 10.3301 23 11.5C23 12.6699 22.3013 13.6765 21.2984 14.1254C21.9425 15.0157 22.0443 16.2369 21.4594 17.2501C20.8744 18.2633 19.7659 18.7857 18.6729 18.673C18.7856 19.7659 18.2631 20.8744 17.25 21.4593C16.2369 22.0442 15.0157 21.9424 14.1255 21.2983C13.6766 22.3012 12.6699 23 11.5 23C10.3301 23 9.32343 22.3012 8.87454 21.2983C7.98433 21.9424 6.76314 22.0442 5.74999 21.4593C4.73684 20.8743 4.21441 19.7659 4.32712 18.6729C3.23409 18.7856 2.12558 18.2632 1.54062 17.25C0.955677 16.2368 1.05748 15.0156 1.7016 14.1254C0.69872 13.6765 0 12.6699 0 11.5C0 10.3301 0.698746 9.32344 1.70166 8.87455C1.05749 7.98433 0.955661 6.76309 1.54062 5.7499C2.12558 4.73673 3.2341 4.2143 4.32712 4.32703C4.21445 3.23407 4.73689 2.12564 5.75001 1.54071C6.76315 0.955771 7.98433 1.05757 8.87454 1.70167ZM11.5 1.4375C12.2939 1.4375 12.9375 2.08109 12.9375 2.875C12.9375 2.875 12.9371 2.89064 12.9346 2.91912C12.9319 2.95104 12.9271 2.9939 12.9193 3.0489C12.9036 3.15994 12.8787 3.30165 12.8432 3.47472C12.7722 3.82125 12.6674 4.25361 12.5362 4.74913C12.2742 5.73853 11.9216 6.9248 11.5645 8.0758L11.5 8.28332L11.4355 8.0758C11.0784 6.9248 10.7258 5.73853 10.4638 4.74913C10.3326 4.25361 10.2278 3.82125 10.1568 3.47472C10.1213 3.30165 10.0964 3.15994 10.0807 3.0489C10.0729 2.9939 10.0681 2.95104 10.0654 2.91912C10.0629 2.8907 10.0625 2.87497 10.0625 2.87497C10.0625 2.08106 10.7061 1.4375 11.5 1.4375ZM2.875 12.9375C2.08109 12.9375 1.4375 12.2939 1.4375 11.5C1.4375 10.7061 2.08085 10.0625 2.87476 10.0625C2.87476 10.0625 2.8907 10.0629 2.91912 10.0654C2.95104 10.0681 2.9939 10.0729 3.0489 10.0807C3.15994 10.0964 3.30165 10.1213 3.47472 10.1568C3.82125 10.2278 4.25361 10.3326 4.74913 10.4638C5.73853 10.7258 6.9248 11.0784 8.07581 11.4355L8.28332 11.5L8.0758 11.5645C6.9248 11.9216 5.73853 12.2742 4.74913 12.5362C4.25361 12.6674 3.82125 12.7722 3.47472 12.8432C3.30165 12.8787 3.15994 12.9036 3.0489 12.9193C2.9939 12.9271 2.95104 12.9319 2.91912 12.9346C2.89064 12.9371 2.875 12.9375 2.875 12.9375ZM12.9375 20.125C12.9375 20.9189 12.2939 21.5625 11.5 21.5625C10.7061 21.5625 10.0625 20.9192 10.0625 20.1252C10.0625 20.1252 10.0629 20.1093 10.0654 20.0809C10.0681 20.049 10.0729 20.0061 10.0807 19.9511C10.0964 19.8401 10.1213 19.6984 10.1568 19.5253C10.2278 19.1787 10.3326 18.7464 10.4638 18.2509C10.7258 17.2615 11.0784 16.0752 11.4355 14.9242L11.5 14.7167L11.5645 14.9242C11.9216 16.0752 12.2742 17.2615 12.5362 18.2509C12.6674 18.7464 12.7722 19.1787 12.8432 19.5253C12.8787 19.6984 12.9036 19.8401 12.9193 19.9511C12.9271 20.0061 12.9319 20.049 12.9346 20.0809C12.9371 20.1094 12.9375 20.125 12.9375 20.125ZM4.7492 17.0574C4.06165 17.4544 3.18249 17.2188 2.78553 16.5312C2.38858 15.8437 2.62394 14.9647 3.31149 14.5677C3.31149 14.5677 3.32568 14.56 3.35133 14.548C3.38036 14.5344 3.41988 14.5172 3.4714 14.4964C3.57539 14.4544 3.7106 14.4052 3.87821 14.3494C4.21382 14.2376 4.64065 14.1122 5.1354 13.9781C6.12325 13.7103 7.3269 13.4225 8.50221 13.1562L8.71419 13.1083L8.56674 13.268C7.74846 14.1527 6.89742 15.0512 6.17158 15.7728C5.80806 16.1342 5.48603 16.4411 5.22143 16.6759C5.08928 16.7931 4.97903 16.8856 4.8907 16.9547C4.84694 16.9889 4.81224 17.0145 4.78598 17.0329C4.76258 17.0492 4.7492 17.0574 4.7492 17.0574ZM6.46874 20.2144C7.15629 20.6113 8.03545 20.3758 8.4324 19.6882C8.4324 19.6882 8.43997 19.6743 8.452 19.6486C8.46555 19.6196 8.48281 19.58 8.5036 19.5285C8.54555 19.4245 8.59479 19.2893 8.65061 19.1217C8.76239 18.7861 8.8878 18.3593 9.02192 17.8645C9.28971 16.8767 9.57748 15.673 9.84378 14.4977L9.89165 14.2857L9.73201 14.4332C8.84731 15.2515 7.94881 16.1025 7.2272 16.8283C6.86579 17.1919 6.55885 17.5139 6.32409 17.7785C6.20685 17.9106 6.11438 18.0209 6.04529 18.1092C6.01107 18.153 5.98547 18.1877 5.96711 18.2139C5.94949 18.2391 5.94246 18.2509 5.94246 18.2509C5.54551 18.9385 5.7812 19.8174 6.46874 20.2144ZM19.6883 8.4324C20.3758 8.03545 20.6114 7.15629 20.2145 6.46874C19.8175 5.7812 18.9386 5.54551 18.251 5.94246C18.251 5.94246 18.2374 5.95076 18.214 5.96711C18.1878 5.98547 18.1531 6.01107 18.1093 6.04529C18.021 6.11438 17.9107 6.20685 17.7786 6.32409C17.514 6.55885 17.1919 6.86579 16.8284 7.2272C16.1026 7.94881 15.2515 8.84731 14.4333 9.73201L14.2858 9.89165L14.4978 9.84378C15.6731 9.57748 16.8767 9.28971 17.8646 9.02192C18.3593 8.8878 18.7862 8.76239 19.1218 8.65061C19.2894 8.59479 19.4246 8.54555 19.5286 8.5036C19.5801 8.48281 19.6196 8.46555 19.6487 8.452C19.6745 8.43996 19.6883 8.4324 19.6883 8.4324ZM16.5312 2.78562C17.2188 3.18258 17.4544 4.06174 17.0574 4.74928C17.0574 4.74928 17.0505 4.76088 17.0329 4.78607C17.0145 4.81232 16.9889 4.84703 16.9547 4.89079C16.8856 4.97912 16.7931 5.08936 16.6759 5.22151C16.4411 5.48612 16.1342 5.80815 15.7728 6.17167C15.0512 6.89751 14.1527 7.74855 13.268 8.56683L13.1083 8.71428L13.1562 8.5023C13.4225 7.32698 13.7103 6.12334 13.9781 5.13549C14.1122 4.64074 14.2376 4.2139 14.3494 3.8783C14.4052 3.71068 14.4544 3.57548 14.4964 3.47149C14.5172 3.41997 14.5344 3.38045 14.548 3.35142C14.561 3.32357 14.5677 3.31157 14.5677 3.31157C14.9647 2.62403 15.8437 2.38867 16.5312 2.78562ZM20.125 12.9375C20.9189 12.9375 21.5625 12.2939 21.5625 11.5C21.5625 10.7061 20.9192 10.0625 20.1252 10.0625C20.1252 10.0625 20.1115 10.0627 20.0809 10.0654C20.049 10.0681 20.0061 10.0729 19.9511 10.0807C19.8401 10.0964 19.6984 10.1213 19.5253 10.1568C19.1787 10.2278 18.7464 10.3326 18.2509 10.4638C17.2615 10.7258 16.0752 11.0784 14.9242 11.4355L14.7167 11.5L14.9242 11.5645C16.0752 11.9216 17.2615 12.2742 18.2509 12.5362C18.7464 12.6674 19.1787 12.7722 19.5253 12.8432C19.6983 12.8787 19.8401 12.9036 19.9511 12.9193C20.0061 12.9271 20.049 12.9319 20.0809 12.9346C20.1094 12.9371 20.125 12.9375 20.125 12.9375ZM2.78554 6.46865C2.38858 7.1562 2.62415 8.03536 3.3117 8.43232C3.3117 8.43232 3.32551 8.43985 3.35133 8.45191C3.38036 8.46546 3.41988 8.48272 3.4714 8.50351C3.57539 8.54546 3.7106 8.5947 3.87821 8.65053C4.21382 8.7623 4.64066 8.88771 5.1354 9.02183C6.12325 9.28962 7.3269 9.57739 8.50221 9.8437L8.71419 9.89157L8.56674 9.73192C7.74846 8.84722 6.89742 7.94872 6.17158 7.22711C5.80806 6.86571 5.48603 6.55876 5.22143 6.324C5.08928 6.20676 4.97903 6.11429 4.8907 6.04521C4.84694 6.01098 4.81224 5.98538 4.78598 5.96702C4.76262 5.95068 4.74917 5.94249 4.74917 5.94249C4.06163 5.54553 3.18249 5.78111 2.78554 6.46865ZM5.9426 4.74928C5.54564 4.06174 5.78121 3.18258 6.46876 2.78562C7.1563 2.38867 8.03534 2.62403 8.4323 3.31157C8.4323 3.31157 8.43996 3.32563 8.45201 3.35142C8.46557 3.38045 8.48283 3.41997 8.50361 3.47149C8.54557 3.57548 8.5948 3.71068 8.65063 3.87829C8.76241 4.2139 8.88782 4.64074 9.02193 5.13549C9.28972 6.12334 9.57749 7.32698 9.8438 8.5023L9.89167 8.71428L9.73202 8.56683C8.84733 7.74855 7.94882 6.89751 7.22721 6.17167C6.86581 5.80815 6.55886 5.48612 6.3241 5.22151C6.20686 5.08936 6.11439 4.97912 6.04531 4.89079C6.01109 4.84703 5.98549 4.81232 5.96713 4.78607C5.95079 4.76271 5.9426 4.74928 5.9426 4.74928ZM20.2145 16.5313C19.8175 17.2189 18.9383 17.4544 18.2508 17.0575C18.2508 17.0575 18.2373 17.0492 18.214 17.033C18.1878 17.0146 18.1531 16.989 18.1093 16.9548C18.021 16.8857 17.9107 16.7932 17.7786 16.676C17.514 16.4412 17.1919 16.1343 16.8284 15.7729C16.1026 15.0513 15.2515 14.1528 14.4333 13.2681L14.2858 13.1084L14.4978 13.1563C15.6731 13.4226 16.8767 13.7104 17.8646 13.9782C18.3593 14.1123 18.7862 14.2377 19.1218 14.3495C19.2894 14.4053 19.4246 14.4545 19.5286 14.4965C19.5801 14.5173 19.6196 14.5345 19.6487 14.5481C19.6744 14.5601 19.6883 14.5677 19.6883 14.5677C20.3759 14.9646 20.6114 15.8438 20.2145 16.5313ZM14.5676 19.6882C14.9645 20.3758 15.8437 20.6113 16.5313 20.2144C17.2188 19.8174 17.4545 18.9385 17.0575 18.2509C17.0575 18.2509 17.0493 18.2374 17.0329 18.2139C17.0145 18.1877 16.9889 18.153 16.9547 18.1092C16.8856 18.0209 16.7932 17.9106 16.6759 17.7785C16.4412 17.5139 16.1342 17.1919 15.7728 16.8283C15.0512 16.1025 14.1527 15.2515 13.268 14.4332L13.1083 14.2857L13.1562 14.4977C13.4225 15.673 13.7103 16.8767 13.9781 17.8645C14.1122 18.3593 14.2376 18.7861 14.3494 19.1217C14.4052 19.2893 14.4544 19.4245 14.4964 19.5285C14.5172 19.58 14.5344 19.6196 14.548 19.6486C14.5601 19.6745 14.5676 19.6882 14.5676 19.6882ZM11.5 13.6562C12.6909 13.6562 13.6562 12.6909 13.6562 11.5C13.6562 10.3091 12.6909 9.34375 11.5 9.34375C10.3091 9.34375 9.34375 10.3091 9.34375 11.5C9.34375 12.6909 10.3091 13.6562 11.5 13.6562Z" fill="#939393"/>
</svg>
