<svg width="25" height="25" viewBox="0 0 25 25" fill="none" xmlns="http://www.w3.org/2000/svg">
<path fill-rule="evenodd" clip-rule="evenodd" d="M4.06667 1C2.37299 1 1 2.37299 1 4.06667V8.28333C1 8.70671 1.34329 9.05 1.76667 9.05C2.19005 9.05 2.53333 8.70671 2.53333 8.28333V6.36667H18.6333C20.7504 6.36667 22.4667 8.08295 22.4667 10.2V10.5833H20.9333C18.8163 10.5833 17.1 12.2996 17.1 14.4167C17.1 16.5337 18.8163 18.25 20.9333 18.25H22.4667V18.6333C22.4667 20.7504 20.7504 22.4667 18.6333 22.4667H6.36667C4.24962 22.4667 2.53333 20.7504 2.53333 18.6333V12.1167C2.53333 11.6933 2.19005 11.35 1.76667 11.35C1.34329 11.35 1 11.6933 1 12.1167V18.6333C1 21.5973 3.40269 24 6.36667 24H18.6333C21.5973 24 24 21.5973 24 18.6333V10.2C24 7.23602 21.5973 4.83333 18.6333 4.83333H15.9659L14.8849 3.28905C13.8807 1.85446 12.2395 1 10.4881 1H4.06667ZM20.9333 12.1167H22.4667V16.7167H20.9333C19.663 16.7167 18.6333 15.687 18.6333 14.4167C18.6333 13.1464 19.663 12.1167 20.9333 12.1167ZM14.0942 4.83333L13.6289 4.1683C12.9115 3.14356 11.7393 2.53333 10.4885 2.53333H4.06689C3.22014 2.53333 2.53355 3.21992 2.53355 4.06667V4.83333H14.0942Z" fill="#CA9A61" stroke="#CA9A61" stroke-width="0.5"/>
</svg>
