<svg width="23" height="23" viewBox="0 0 23 23" fill="none" xmlns="http://www.w3.org/2000/svg">
<path fill-rule="evenodd" clip-rule="evenodd" d="M21.5625 9.70349C21.5625 9.10806 21.0798 8.62537 20.4844 8.62537L9.34375 8.62537C9.05304 8.62537 8.79096 8.45025 8.67971 8.18167C8.56846 7.91309 8.62996 7.60395 8.83552 7.39839L12.3009 3.93303C12.5512 3.68272 12.59 3.29052 12.3937 2.99598C12.1738 2.66614 11.7336 2.56716 11.3937 2.77111L5.37737 6.38089L1.83482 8.15217C1.59132 8.27392 1.4375 8.5228 1.4375 8.79504L1.4375 17.8537C1.4375 18.1116 1.57571 18.3497 1.79965 18.4777L5.30955 20.4834C5.74745 20.7336 6.23312 20.8888 6.73496 20.939L10.6382 21.3294C11.4844 21.414 12.2188 20.7494 12.2188 19.899L12.2188 19.4066L10.7813 19.4066C10.3843 19.4066 10.0625 19.0848 10.0625 18.6879C10.0625 18.2909 10.3843 17.9691 10.7813 17.9691L12.7161 17.9691C12.8166 17.8976 12.95 17.7981 13.0894 17.6813C13.4091 17.4135 13.6399 17.1529 13.7077 16.9834C13.7793 16.8042 13.799 16.419 13.7637 15.9648C13.7596 15.9128 13.7551 15.862 13.7502 15.8129L11.5 15.8129C11.103 15.8129 10.7813 15.4911 10.7813 15.0941C10.7813 14.6972 11.103 14.3754 11.5 14.3754L14.3953 14.3754C14.6349 14.3754 14.7856 14.2701 14.8466 14.1604C14.9702 13.938 15.0691 13.7087 15.1077 13.5157C15.1592 13.2584 15.1646 12.7981 15.1469 12.3433C15.1453 12.301 15.1435 12.2596 15.1416 12.2191L11.5 12.2191C11.103 12.2191 10.7813 11.8973 10.7813 11.5004C10.7813 11.1034 11.103 10.7816 11.5 10.7816L20.4844 10.7816C21.0798 10.7816 21.5625 10.2989 21.5625 9.70349ZM16.5805 12.2191L20.4844 12.2191C21.8737 12.2191 23 11.0928 23 9.70349C23 8.31415 21.8737 7.18787 20.4844 7.18787L11.079 7.18787L13.3173 4.9495C14.0522 4.21465 14.1662 3.06328 13.5897 2.19859C12.9442 1.23031 11.652 0.939729 10.6541 1.53847L4.68513 5.11984L1.19195 6.86643C0.461443 7.23168 1.61226e-06 7.97831 1.57656e-06 8.79504L1.1806e-06 17.8537C1.14677e-06 18.6274 0.414619 19.3419 1.08645 19.7258L4.59635 21.7315C5.20941 22.0818 5.88934 22.2991 6.59193 22.3694L10.4952 22.7597C12.1876 22.929 13.6563 21.5999 13.6563 19.899L13.6563 19.063C13.7612 18.9856 13.884 18.8909 14.0125 18.7832C14.3414 18.5077 14.8295 18.0495 15.0423 17.5173C15.2513 16.9948 15.2317 16.3019 15.1968 15.8534C15.1917 15.7878 15.186 15.7241 15.1798 15.6628C15.5501 15.5142 15.8847 15.2515 16.103 14.8589C16.2587 14.5788 16.4368 14.2002 16.5173 13.7976C16.6062 13.3531 16.6007 12.7353 16.5833 12.2874C16.5824 12.2644 16.5815 12.2416 16.5805 12.2191ZM13.6692 15.2298C13.6692 15.2297 13.6692 15.2297 13.6692 15.2298V15.2298Z" fill="#939393"/>
</svg>
