<svg width="40" height="40" viewBox="0 0 40 40" fill="none" xmlns="http://www.w3.org/2000/svg">
<g id="Frame">
<path id="Vector" d="M12 25.7826V25.2284C12.2745 24.4612 13.1683 24.4243 13.6228 25.0467C13.7792 25.2612 13.9265 25.4819 14.1301 25.6587C15.0496 26.4607 16.4208 26.4558 17.3751 25.6441C18.2396 24.9096 18.4245 23.5464 17.7719 22.5537C17.3014 21.838 16.6106 21.4899 15.7585 21.4384C15.2665 21.4084 14.8953 21.0826 14.837 20.6517C14.7619 20.0975 15.14 19.6394 15.7307 19.6032C16.4452 19.5593 17.0623 19.3164 17.5412 18.7754C18.2132 18.0173 18.3515 17.1449 17.9644 16.2294C17.5801 15.3202 16.8517 14.8377 15.8544 14.7953C14.9356 14.7563 14.224 15.1315 13.7006 15.8841C13.3323 16.4139 12.932 16.549 12.4636 16.3401C12.2231 16.2329 12.0883 16.0449 12.0014 15.8103V15.2562C12.0869 14.8837 12.3086 14.5878 12.5643 14.3212C13.3705 13.4795 14.3199 12.9587 15.5347 13.0026C16.2158 13.0276 16.8893 13.0012 17.537 13.3005C19.7144 14.3079 20.6464 16.8734 19.597 19.0254C19.5163 19.191 19.4093 19.3421 19.344 19.512C19.3898 19.6192 19.4816 19.5886 19.5559 19.5886C20.62 19.59 21.684 19.5921 22.748 19.5886C23.1136 19.5872 23.1477 19.5552 23.1491 19.1938C23.1532 17.8676 23.1525 16.5413 23.1491 15.2158C23.1484 14.8391 23.1122 14.8092 22.7265 14.8043C22.3686 14.8001 22.0086 14.828 21.6632 14.695C21.094 14.4757 20.8771 13.8143 21.2184 13.3319C21.3601 13.1314 21.5457 13.0095 21.7987 13.0095C23.3138 13.0081 24.8288 13.0054 26.3439 13.0116C26.7359 13.0137 26.8791 13.1724 27 13.6653V14.1499C26.8638 14.6101 26.5038 14.7549 26.075 14.7994C25.8213 14.8259 25.5662 14.8078 25.3119 14.8169C25.1291 14.8231 25.0373 14.9088 25.0318 15.0932C25.0276 15.2318 25.0269 15.3703 25.0269 15.5089C25.0269 19.2252 25.0269 22.9408 25.0269 26.657C25.0269 26.8186 25.0332 26.9808 25.0193 27.1416C24.9831 27.5656 24.8268 27.9004 24.3625 28H23.7377C23.2825 27.8225 23.1546 27.6352 23.1532 27.1005C23.1484 25.3928 23.1518 23.6843 23.1511 21.9765C23.1511 21.628 22.9795 21.4532 22.6361 21.4523C21.6409 21.4516 20.6457 21.4509 19.6498 21.4523C19.3009 21.4523 19.3009 21.4558 19.4635 21.7579C20.4198 23.5339 20.1272 25.6023 18.7185 26.9432C18.1013 27.5301 17.3799 27.9172 16.5154 27.9993H14.8488C13.9668 27.8371 13.2343 27.4048 12.6227 26.7622C12.3531 26.4788 12.1029 26.1767 12.0014 25.7833L12 25.7826Z" fill="#CA9A62"/>
</g>
</svg>
