<svg width="40" height="40" viewBox="0 0 40 40" fill="none" xmlns="http://www.w3.org/2000/svg">
<g id="Frame">
<g id="Group">
<path id="Vector" d="M10.7957 30.0724H18.8295C20.38 30.0724 21.6491 28.8272 21.6491 27.2767V25.1455C21.6491 24.5828 21.1942 24.1278 20.6314 24.1278C20.0687 24.1278 19.6137 24.5828 19.6137 25.1455V27.2767C19.6137 27.7077 19.2605 28.037 18.8295 28.037H10.7957C10.3647 28.037 10.0354 27.7077 10.0354 27.2767V11.7957C10.0354 11.3647 10.3647 11.0354 10.7957 11.0354H18.8295C19.2605 11.0354 19.6137 11.3647 19.6137 11.7957V13.885C19.6137 14.4477 20.0687 14.9027 20.6314 14.9027C21.1942 14.9027 21.6491 14.4477 21.6491 13.885V11.7957C21.6491 10.2452 20.38 9 18.8295 9H10.7957C9.24519 9 8 10.2452 8 11.7957V27.2767C8 28.8272 9.24519 30.0724 10.7957 30.0724Z" fill="#C89963"/>
<path id="Vector_2" d="M25.3785 24.8337C25.5701 25.0014 25.8095 25.0852 26.043 25.0852C26.3304 25.0852 26.6117 24.9654 26.8093 24.732L30.6646 20.29C30.8681 20.1044 30.9998 19.835 30.9998 19.5357C30.9998 19.2124 30.8501 18.9251 30.6107 18.7395L26.7554 14.8842C26.3603 14.4891 25.7137 14.4891 25.3186 14.8842C24.9235 15.2793 24.9235 15.9259 25.3186 16.321L27.5157 18.518H14.3634C13.8007 18.518 13.3457 18.973 13.3457 19.5357C13.3457 20.0984 13.8007 20.5534 14.3634 20.5534H27.7432L25.2767 23.397C24.9056 23.822 24.9535 24.4686 25.3785 24.8337Z" fill="#C89963"/>
</g>
</g>
</svg>
