<svg width="23" height="23" viewBox="0 0 23 23" fill="none" xmlns="http://www.w3.org/2000/svg">
<g id="newspaper">
<g id="Vector">
<path fill-rule="evenodd" clip-rule="evenodd" d="M0 3.59375C0 2.40289 0.965386 1.4375 2.15625 1.4375H17.9688C19.1596 1.4375 20.125 2.40289 20.125 3.59375V18.7276C20.125 19.1578 20.0528 19.6686 19.7834 20.125H20.8438C21.2407 20.125 21.5625 19.8032 21.5625 19.4062V6.46875C21.5625 6.0718 21.8843 5.75 22.2812 5.75C22.6782 5.75 23 6.0718 23 6.46875V19.4062C23 20.5971 22.0346 21.5625 20.8438 21.5625H2.15132C0.957237 21.5625 0 20.5939 0 19.4062V3.59375ZM17.25 20.125C17.7809 20.125 18.1898 19.8209 18.4764 19.4906C18.6082 19.3386 18.6875 19.09 18.6875 18.7276V3.59375C18.6875 3.1968 18.3657 2.875 17.9688 2.875H2.15625C1.7593 2.875 1.4375 3.1968 1.4375 3.59375V19.4062C1.4375 19.8064 1.75758 20.125 2.15132 20.125H17.25Z" fill="#939393"/>
<path d="M2.875 4.3125H17.25V7.1875H2.875V4.3125Z" fill="#939393"/>
<path d="M2.875 8.625H8.625V12.9375H2.875V8.625Z" fill="#939393"/>
<path d="M2.875 14.375H8.625V15.8125H2.875V14.375Z" fill="#939393"/>
<path d="M2.875 17.25H8.625V18.6875H2.875V17.25Z" fill="#939393"/>
<path d="M10.0625 8.625H12.9375V10.0625H10.0625V8.625Z" fill="#939393"/>
<path d="M14.375 8.625H17.25V10.0625H14.375V8.625Z" fill="#939393"/>
<path d="M10.0625 11.5H12.9375V12.9375H10.0625V11.5Z" fill="#939393"/>
<path d="M14.375 11.5H17.25V12.9375H14.375V11.5Z" fill="#939393"/>
<path d="M10.0625 14.375H12.9375V15.8125H10.0625V14.375Z" fill="#939393"/>
<path d="M14.375 14.375H17.25V15.8125H14.375V14.375Z" fill="#939393"/>
<path d="M10.0625 17.25H12.9375V18.6875H10.0625V17.25Z" fill="#939393"/>
<path d="M14.375 17.25H17.25V18.6875H14.375V17.25Z" fill="#939393"/>
</g>
</g>
</svg>
