<svg width="40" height="40" viewBox="0 0 40 40" fill="none" xmlns="http://www.w3.org/2000/svg">
<g id="Frame">
<g id="Group 48096028">
<path id="Vector" d="M29.8736 15.7033L29.8733 15.702C29.87 15.6886 29.8655 15.6753 29.8591 15.6565L29.8582 15.654L29.8579 15.6531C29.8431 15.6082 29.8245 15.5655 29.8023 15.5252L29.8019 15.5245C29.7981 15.5175 29.7954 15.5111 29.7935 15.5064L29.7894 15.4957C29.7892 15.4953 29.7891 15.4949 29.789 15.4945L27.1173 11.084L27.2028 11.0322L27.1173 11.084C26.7498 10.4772 26.08 10.1 25.3706 10.1H14.6294C13.9201 10.1 13.2502 10.4772 12.8823 11.0845C12.8823 11.0845 12.8823 11.0845 12.8823 11.0845L10.2119 15.4931C10.2117 15.4937 10.2113 15.4946 10.2109 15.4957L10.2105 15.4967C10.2088 15.5016 10.2043 15.5135 10.1973 15.5259M29.8736 15.7033L10.1101 15.4769M29.8736 15.7033C29.886 15.7514 29.8935 15.8011 29.8958 15.8528C29.8961 15.8592 29.8967 15.8648 29.8972 15.8691L29.8987 15.8792C29.8995 15.8847 29.8991 15.8836 29.8991 15.881C29.8991 15.8868 29.8996 15.8917 29.9 15.8949V27.8944C29.9 29.3132 28.7455 30.4673 27.3271 30.4673H12.6729C11.2546 30.4673 10.1 29.3128 10.1 27.8944V15.8949C10.1003 15.8924 10.1006 15.889 10.1008 15.885C10.1008 15.8846 10.101 15.8831 10.1016 15.8786L10.1017 15.8778C10.1024 15.8727 10.1038 15.863 10.1042 15.8522L10.0043 15.8484M29.8736 15.7033L10.0043 15.8484M10.1973 15.5259C10.197 15.5264 10.1968 15.5268 10.1965 15.5273L10.1101 15.4769M10.1973 15.5259C10.1974 15.5257 10.1976 15.5254 10.1977 15.5252L10.1101 15.4769M10.1973 15.5259C10.1753 15.5658 10.157 15.6081 10.1423 15.6526M10.1101 15.4769C10.0848 15.5228 10.0638 15.5712 10.0471 15.6217M10.1423 15.6526C10.1423 15.6524 10.1424 15.6522 10.1424 15.6521L10.0471 15.6217M10.1423 15.6526C10.1402 15.6591 10.1383 15.6648 10.1366 15.6701C10.1325 15.6826 10.1293 15.6925 10.1263 15.7037M10.1423 15.6526C10.1422 15.6528 10.1421 15.6529 10.1421 15.6531L10.0471 15.6217M10.0471 15.6217L10.1263 15.7037M10.0043 15.8484C10.0041 15.854 10.0033 15.8596 10.0025 15.8651C10.0018 15.8704 10.0011 15.8757 10.0009 15.881L10.0043 15.8484ZM10.0043 15.8484L10.1042 15.8535C10.1068 15.8009 10.1141 15.7512 10.1263 15.7037M10.0043 15.8484L10.1263 15.7037M11.7139 16.6457H11.6139V16.7457V27.8944C11.6139 28.4784 12.0889 28.9534 12.6729 28.9534H27.3271C27.9111 28.9534 28.3861 28.4784 28.3861 27.8944V16.7457V16.6457H28.2861H23.4279H23.3279V16.7457V20.2541C23.3279 20.6719 22.9887 21.0111 22.5709 21.0111H17.4291C17.0113 21.0111 16.6721 20.6719 16.6721 20.2541V16.7457V16.6457H16.5721H11.7139ZM21.8139 16.7457V16.6457H21.7139H18.2861H18.1861V16.7457V19.3971V19.4971H18.2861H21.7139H21.8139V19.3971V16.7457ZM25.8231 11.8689C25.7282 11.7115 25.5551 11.6139 25.3711 11.6139H22.3652H22.2393L22.2678 11.7366L23.0391 15.0544L23.0571 15.1317H23.1365H27.6219H27.7994L27.7074 14.9799L25.8231 11.8689ZM20.7029 11.6913L20.6849 11.6139H20.6054H19.3954H19.316L19.298 11.6913L18.5263 15.0091L18.4978 15.1317H18.6237H21.3767H21.5026L21.4741 15.0091L20.7029 11.6913ZM14.1768 11.8684L14.1766 11.8687L12.2926 14.9799L12.2006 15.1317H12.3781H16.8635H16.9429L16.9609 15.0544L17.7326 11.7366L17.7611 11.6139H17.6352H14.6289C14.4452 11.6139 14.2724 11.7116 14.1768 11.8684Z" fill="#C89963" stroke="white" stroke-width="0.2"/>
<path id="Vector_2" d="M25.57 26.3816H25.67V26.2816V24.9962V24.8962H25.57H22.9991H22.8991V24.9962V26.2816V26.3816H22.9991H25.57ZM21.3852 24.1392C21.3852 23.7214 21.7243 23.3822 22.1421 23.3822H26.427C26.8448 23.3822 27.184 23.7214 27.184 24.1392V27.1386C27.184 27.5564 26.8448 27.8956 26.427 27.8956H22.1421C21.7243 27.8956 21.3852 27.5564 21.3852 27.1386V24.1392Z" fill="#C89963" stroke="white" stroke-width="0.2"/>
</g>
</g>
</svg>
