<svg width="24" height="24" viewBox="0 0 24 24" fill="none" xmlns="http://www.w3.org/2000/svg">
<path id="Vector" fill-rule="evenodd" clip-rule="evenodd" d="M12 0C9.04091 0 6.64222 2.35046 6.64222 5.25V7.5H4.13354C2.99691 7.5 2.03147 8.3148 1.86282 9.41619L0.0258811 21.4162C-0.182379 22.7766 0.892741 24 2.2966 24H21.7034C23.1071 24 24.1824 22.7766 23.9741 21.4162L22.1372 9.41619C21.9686 8.3148 21.0029 7.5 19.8665 7.5H17.3578V5.25C17.3578 2.35046 14.9591 0 12 0H12ZM15.8269 9V10.5C15.8269 10.9142 16.1696 11.25 16.5923 11.25C17.015 11.25 17.3577 10.9142 17.3577 10.5V9H19.8664C20.2451 9 20.567 9.27154 20.6232 9.63883L22.4602 21.6388C22.5295 22.0922 22.1713 22.5 21.7033 22.5H2.29651C1.82857 22.5 1.47011 22.0922 1.53965 21.6388L3.37659 9.63883C3.4328 9.27153 3.75467 9 4.13345 9H6.64214V10.5C6.64214 10.9142 6.98485 11.25 7.40753 11.25C7.8302 11.25 8.17292 10.9142 8.17292 10.5V9H15.8269ZM15.8269 7.5V5.25C15.8269 3.17897 14.1135 1.5 12 1.5C9.88643 1.5 8.173 3.17897 8.173 5.25V7.5H15.8269Z" fill="#D6D9DF"/>
</svg>
