<svg width="23" height="23" viewBox="0 0 23 23" fill="none" xmlns="http://www.w3.org/2000/svg">
<g id="people">
<path id="Path 7 (Stroke)" fill-rule="evenodd" clip-rule="evenodd" d="M21.5625 20.125C21.5625 20.125 23 20.125 23 18.6875C23 17.25 21.5625 12.9375 15.8125 12.9375C10.0625 12.9375 8.625 17.25 8.625 18.6875C8.625 20.125 10.0625 20.125 10.0625 20.125H21.5625ZM10.0946 18.6875H21.5304C21.5354 18.6869 21.5423 18.686 21.5508 18.6846C21.5548 18.6839 21.5587 18.6832 21.5625 18.6825C21.5604 18.3029 21.3226 17.2024 20.4711 16.209C19.6746 15.2797 18.2811 14.375 15.8125 14.375C13.3439 14.375 11.9504 15.2797 11.1539 16.209C10.3024 17.2024 10.0646 18.3029 10.0625 18.6825C10.0663 18.6832 10.0702 18.6839 10.0742 18.6846C10.0827 18.686 10.0896 18.6869 10.0946 18.6875Z" fill="#939393"/>
<path id="Oval (Stroke)" fill-rule="evenodd" clip-rule="evenodd" d="M15.8125 10.0625C17.4003 10.0625 18.6875 8.77532 18.6875 7.1875C18.6875 5.59968 17.4003 4.3125 15.8125 4.3125C14.2247 4.3125 12.9375 5.59968 12.9375 7.1875C12.9375 8.77532 14.2247 10.0625 15.8125 10.0625ZM20.125 7.1875C20.125 9.56923 18.1942 11.5 15.8125 11.5C13.4308 11.5 11.5 9.56923 11.5 7.1875C11.5 4.80577 13.4308 2.875 15.8125 2.875C18.1942 2.875 20.125 4.80577 20.125 7.1875Z" fill="#939393"/>
<path id="Path (Stroke)" fill-rule="evenodd" clip-rule="evenodd" d="M9.9704 13.3399C9.44169 13.1708 8.85433 13.0479 8.20278 12.985C7.8803 12.9539 7.5421 12.9375 7.1875 12.9375C1.4375 12.9375 0 17.25 0 18.6875C0 19.6458 0.479167 20.125 1.4375 20.125H7.49852C7.29612 19.7166 7.1875 19.2325 7.1875 18.6875C7.1875 17.2352 7.72979 15.7522 8.75411 14.5133C9.10408 14.09 9.51031 13.6952 9.9704 13.3399ZM7.07256 14.3757C4.67546 14.4033 3.31298 15.2942 2.52893 16.209C1.6736 17.2068 1.4375 18.3127 1.4375 18.6875H5.75C5.75 17.1849 6.21367 15.6883 7.07256 14.3757Z" fill="#939393"/>
<path id="Oval (Stroke)_2" fill-rule="evenodd" clip-rule="evenodd" d="M2.15625 7.90625C2.15625 5.52452 4.08702 3.59375 6.46875 3.59375C8.85048 3.59375 10.7812 5.52452 10.7812 7.90625C10.7812 10.288 8.85048 12.2188 6.46875 12.2188C4.08702 12.2188 2.15625 10.288 2.15625 7.90625ZM6.46875 5.03125C4.88093 5.03125 3.59375 6.31843 3.59375 7.90625C3.59375 9.49407 4.88093 10.7812 6.46875 10.7812C8.05657 10.7812 9.34375 9.49407 9.34375 7.90625C9.34375 6.31843 8.05657 5.03125 6.46875 5.03125Z" fill="#939393"/>
</g>
</svg>
