<svg width="19" height="19" viewBox="0 0 19 19" fill="none" xmlns="http://www.w3.org/2000/svg">
<g id="person-frame">
<path id="Subtract" fill-rule="evenodd" clip-rule="evenodd" d="M12.375 5.1875C12.375 6.77532 11.0878 8.0625 9.5 8.0625C7.91218 8.0625 6.625 6.77532 6.625 5.1875C6.625 3.59968 7.91218 2.3125 9.5 2.3125C11.0878 2.3125 12.375 3.59968 12.375 5.1875ZM9.5 9.5C11.8817 9.5 13.8125 7.56923 13.8125 5.1875C13.8125 2.80577 11.8817 0.875 9.5 0.875C7.11827 0.875 5.1875 2.80577 5.1875 5.1875C5.1875 7.56923 7.11827 9.5 9.5 9.5ZM18.125 16.6875C18.125 18.125 16.6875 18.125 16.6875 18.125H2.3125C2.3125 18.125 0.875 18.125 0.875 16.6875C0.875 15.25 2.3125 10.9375 9.5 10.9375C16.6875 10.9375 18.125 15.25 18.125 16.6875ZM16.6875 16.6825C16.6854 16.3277 16.4664 15.265 15.4913 14.2899C14.5537 13.3523 12.7906 12.375 9.49999 12.375C6.20939 12.375 4.44626 13.3523 3.50864 14.2899C2.53352 15.265 2.31455 16.3277 2.3125 16.6825H16.6875Z" fill="#939393"/>
</g>
</svg>
