<svg width="40" height="40" viewBox="0 0 40 40" fill="none" xmlns="http://www.w3.org/2000/svg">
<g id="Frame">
<g id="Group">
<g id="Group_2">
<path id="Vector" d="M9 29.002C9.55228 29.002 10 28.5542 10 28.002C10 27.4497 9.55228 27.002 9 27.002C8.44772 27.002 8 27.4497 8 28.002C8 28.5542 8.44772 29.002 9 29.002Z" fill="#C89963"/>
<path id="Vector_2" d="M9 23.002C9.55228 23.002 10 22.5542 10 22.002C10 21.4497 9.55228 21.002 9 21.002C8.44772 21.002 8 21.4497 8 22.002C8 22.5542 8.44772 23.002 9 23.002Z" fill="#C89963"/>
<path id="Vector_3" d="M9 17.002C9.183 17.002 9.324 16.951 9.433 16.904C9.783 16.739 10 16.393 10 16.002C10 15.451 9.552 15.002 9 15.002C8.779 15.002 8.575 15.067 8.425 15.181C8.422 15.183 8.42 15.186 8.417 15.189C8.415 15.19 8.413 15.191 8.411 15.192C8.409 15.194 8.409 15.197 8.407 15.198C8.152 15.385 8 15.682 8 16.002C8 16.563 8.44 17.002 9 17.002Z" fill="#C89963"/>
<path id="Vector_4" d="M33.373 21.1163C33.444 20.9683 33.437 20.7942 33.355 20.6522C33.273 20.5092 33.126 20.4172 32.962 20.4032C32.388 20.3562 30.993 20.2803 30.441 20.5983C30.297 20.6813 30.147 20.8282 30 21.0083V20.5022C30 20.2262 29.776 20.0022 29.5 20.0022H29V18.0022H29.5C29.776 18.0022 30 17.7782 30 17.5022V14.5022C30 14.2262 29.776 14.0022 29.5 14.0022H28.949C28.823 13.1312 28.378 12.3702 27.732 11.8292C27.887 11.8482 28.042 11.8663 28.18 11.8663C28.34 11.8663 28.484 11.8503 28.601 11.8143C29.211 11.6253 30.104 10.5503 30.459 10.0973C30.561 9.96825 30.592 9.79725 30.543 9.64025C30.494 9.48325 30.372 9.36025 30.215 9.31125C29.666 9.13925 28.324 8.75725 27.711 8.94825C27.153 9.12225 26.364 10.0292 25.961 10.5302C25.871 9.63825 25.49 8.78425 24.853 8.14725C24.658 7.95225 24.341 7.95225 24.146 8.14725C23.951 8.34225 23.951 8.65925 24.146 8.85425C24.688 9.39725 25 10.1483 25 10.9153V11.0512C23.562 11.2592 22.405 12.3342 22.09 13.7352C21.901 12.9712 21.431 12.3102 20.791 11.8242C20.984 11.8482 21.172 11.8643 21.34 11.8643C21.506 11.8643 21.654 11.8502 21.774 11.8172C22.454 11.6282 23.51 10.4682 23.818 10.1172C23.931 9.98825 23.97 9.80925 23.922 9.64525C23.874 9.48125 23.743 9.35325 23.577 9.30625C23.105 9.17425 21.514 8.75925 20.845 8.94325C20.17 9.13125 19.129 10.2703 18.811 10.6323C18.734 9.69225 18.3 8.79125 17.56 8.12825C17.355 7.94525 17.039 7.96125 16.854 8.16725C16.669 8.37325 16.687 8.68925 16.892 8.87325C17.505 9.42125 17.842 10.1463 17.842 10.9153V11.0473C16.428 11.2162 15.258 12.0722 14.758 13.2442C14.542 12.6872 14.185 12.2063 13.734 11.8283C13.889 11.8473 14.044 11.8652 14.182 11.8652C14.342 11.8652 14.486 11.8492 14.603 11.8132C15.213 11.6242 16.106 10.5492 16.461 10.0962C16.563 9.96725 16.594 9.79625 16.545 9.63925C16.496 9.48225 16.374 9.35925 16.217 9.31025C15.668 9.13825 14.326 8.75625 13.713 8.94725C13.155 9.12125 12.366 10.0283 11.963 10.5293C11.873 9.63725 11.492 8.78325 10.855 8.14625C10.66 7.95125 10.343 7.95125 10.148 8.14625C9.953 8.34125 9.953 8.65825 10.148 8.85325C10.69 9.39625 11.002 10.1472 11.002 10.9142V11.0503C9.473 11.2743 8.272 12.4752 8.051 14.0022H7.5C7.224 14.0022 7 14.2262 7 14.5022V17.5022C7 17.7782 7.224 18.0022 7.5 18.0022H8V20.0022H7.5C7.224 20.0022 7 20.2262 7 20.5022V23.5022C7 23.7782 7.224 24.0023 7.5 24.0023H8V26.0023H7.5C7.224 26.0023 7 26.2263 7 26.5023V29.5023C7 29.7782 7.224 30.0023 7.5 30.0023H29.5C29.777 30.0023 30.029 29.9753 30.271 29.9193C32.148 29.4893 33.335 27.6123 32.917 25.7313C32.68 24.6943 32.008 23.8652 31.121 23.4032C31.447 23.3702 31.745 23.3103 31.937 23.1993C32.491 22.8802 33.126 21.6362 33.373 21.1163ZM29 21.0022V22.2832C28.805 21.8012 28.521 21.3682 28.157 21.0022H28.5H29ZM28.008 9.90425C28.154 9.86325 28.633 9.93225 29.182 10.0643C28.804 10.4823 28.451 10.8103 28.305 10.8593C28.158 10.8993 27.68 10.8302 27.132 10.7002C27.51 10.2812 27.864 9.95425 28.008 9.90425ZM25.5 12.0022C26.707 12.0022 27.718 12.8622 27.95 14.0022H23.05C23.282 12.8622 24.293 12.0022 25.5 12.0022ZM21.111 9.90925C21.297 9.85725 21.874 9.93625 22.488 10.0693C22.084 10.4683 21.681 10.8072 21.506 10.8552C21.321 10.9072 20.744 10.8272 20.127 10.6952C20.533 10.2942 20.933 9.95925 21.111 9.90925ZM18.34 12.0022C19.716 12.0022 20.867 12.8622 21.132 14.0022H15.547C15.812 12.8622 16.963 12.0022 18.34 12.0022ZM14.008 9.90425C14.153 9.86325 14.632 9.93225 15.182 10.0643C14.804 10.4823 14.451 10.8103 14.305 10.8593C14.159 10.8993 13.68 10.8302 13.132 10.7002C13.51 10.2812 13.864 9.95425 14.008 9.90425ZM11.5 12.0022C12.707 12.0022 13.718 12.8622 13.95 14.0022H9.05C9.282 12.8622 10.293 12.0022 11.5 12.0022ZM8 16.0022V15.0022H8.5H9H14.5H14.989H21.689H22.5H28.5H29V17.0022H28.5H9H8.5H8V16.0022ZM9 18.0022H28V20.0022H9V18.0022ZM8 22.0022V21.0022H8.5H9H26.731C26.763 21.1172 26.832 21.2222 26.941 21.2902C27.566 21.6853 28 22.2922 28.19 23.0022H9H8.5H8V22.0022ZM9 24.0023H27.055C27.044 24.0133 27.035 24.0263 27.024 24.0373C26.94 24.1213 26.866 24.2133 26.791 24.3063C26.75 24.3573 26.705 24.4043 26.666 24.4573C26.588 24.5643 26.522 24.6793 26.457 24.7952C26.432 24.8403 26.401 24.8813 26.378 24.9272C26.295 25.0912 26.224 25.2623 26.167 25.4383C26.159 25.4633 26.156 25.4893 26.149 25.5142C26.104 25.6663 26.065 25.8213 26.041 25.9803C26.04 25.9873 26.037 25.9943 26.036 26.0023H9V24.0023ZM27.062 29.0023H9H8V28.0023V27.0023H8.5H9H26.032C26.045 27.0953 26.061 27.1852 26.082 27.2743C26.125 27.4583 26.184 27.6353 26.255 27.8073C26.278 27.8643 26.308 27.9163 26.334 27.9722C26.387 28.0842 26.442 28.1943 26.506 28.2993C26.543 28.3593 26.583 28.4163 26.623 28.4733C26.688 28.5673 26.757 28.6573 26.83 28.7443C26.876 28.7983 26.922 28.8503 26.971 28.9013C27.003 28.9343 27.029 28.9713 27.062 29.0023ZM31.941 25.9503C32.24 27.2943 31.39 28.6383 30.047 28.9443H30.046C29.878 28.9832 29.699 29.0023 29.499 29.0023C28.344 29.0023 27.316 28.1812 27.056 27.0522C27.018 26.8832 26.999 26.7033 26.999 26.5023C26.999 26.3453 27.018 26.1912 27.047 26.0403C27.211 25.1793 27.819 24.4463 28.671 24.1413C28.758 24.1093 28.847 24.0863 28.936 24.0633C28.941 24.0623 28.945 24.0633 28.95 24.0613C28.953 24.0603 28.955 24.0583 28.958 24.0573C29.124 24.0193 29.3 24.0002 29.499 24.0002C30.675 24.0023 31.68 24.8053 31.941 25.9503ZM31.439 22.3322C31.303 22.4052 30.829 22.4323 30.258 22.4353C30.535 21.9433 30.809 21.5463 30.94 21.4663C31.075 21.3943 31.56 21.3652 32.119 21.3632C31.842 21.8552 31.568 22.2522 31.439 22.3322Z" fill="#C89963"/>
</g>
</g>
</g>
</svg>
