<svg width="23" height="23" viewBox="0 0 23 23" fill="none" xmlns="http://www.w3.org/2000/svg">
<g id="shop">
<path id="vector-v2 (Stroke)" fill-rule="evenodd" clip-rule="evenodd" d="M4.2704 1.93949C4.5435 1.62087 4.94219 1.4375 5.36183 1.4375H17.6382C18.0578 1.4375 18.4565 1.62087 18.7296 1.93949L22.4809 6.316C22.8159 6.7068 23 7.20455 23 7.71927V8.08594C23 9.97147 21.4715 11.5 19.5859 11.5C18.4904 11.5 17.5153 10.984 16.8906 10.1817C16.2659 10.984 15.2909 11.5 14.1953 11.5C13.0997 11.5 12.1247 10.984 11.5 10.1817C10.8753 10.984 9.90026 11.5 8.80469 11.5C7.70912 11.5 6.73408 10.984 6.10938 10.1817C5.48467 10.984 4.50963 11.5 3.41406 11.5C1.52853 11.5 0 9.97147 0 8.08594V7.71927C0 7.20455 0.184127 6.7068 0.519103 6.316L4.2704 1.93949ZM6.82812 8.08594C6.82812 9.17756 7.71306 10.0625 8.80469 10.0625C9.89631 10.0625 10.7812 9.17756 10.7812 8.08594C10.7812 7.68898 11.103 7.36719 11.5 7.36719C11.897 7.36719 12.2188 7.68898 12.2188 8.08594C12.2188 9.17756 13.1037 10.0625 14.1953 10.0625C15.2869 10.0625 16.1719 9.17756 16.1719 8.08594C16.1719 7.68898 16.4937 7.36719 16.8906 7.36719C17.2876 7.36719 17.6094 7.68898 17.6094 8.08594C17.6094 9.17756 18.4943 10.0625 19.5859 10.0625C20.6776 10.0625 21.5625 9.17756 21.5625 8.08594V7.71927C21.5625 7.54769 21.5011 7.38178 21.3895 7.25151L17.6382 2.875H5.36183L1.61053 7.25151C1.49888 7.38178 1.4375 7.54769 1.4375 7.71927V8.08594C1.4375 9.17756 2.32244 10.0625 3.41406 10.0625C4.50569 10.0625 5.39062 9.17756 5.39062 8.08594C5.39062 7.68898 5.71242 7.36719 6.10938 7.36719C6.50633 7.36719 6.82812 7.68898 6.82812 8.08594ZM2.15625 12.2188C2.5532 12.2188 2.875 12.5405 2.875 12.9375V21.5625H4.3125V14.375C4.3125 13.5811 4.95609 12.9375 5.75 12.9375H10.0625C10.8564 12.9375 11.5 13.5811 11.5 14.375V21.5625H20.125V12.9375C20.125 12.5405 20.4468 12.2188 20.8438 12.2188C21.2407 12.2188 21.5625 12.5405 21.5625 12.9375V21.5625H22.2812C22.6782 21.5625 23 21.8843 23 22.2812C23 22.6782 22.6782 23 22.2812 23H0.71875C0.321795 23 0 22.6782 0 22.2812C0 21.8843 0.321795 21.5625 0.71875 21.5625H1.4375V12.9375C1.4375 12.5405 1.7593 12.2188 2.15625 12.2188ZM5.75 21.5625H10.0625V14.375H5.75V21.5625ZM12.9375 14.375C12.9375 13.5811 13.5811 12.9375 14.375 12.9375H17.25C18.0439 12.9375 18.6875 13.5811 18.6875 14.375V18.6875C18.6875 19.4814 18.0439 20.125 17.25 20.125H14.375C13.5811 20.125 12.9375 19.4814 12.9375 18.6875V14.375ZM17.25 14.375H14.375V18.6875H17.25V14.375Z" fill="#939393"/>
</g>
</svg>
