<svg width="24" height="24" viewBox="0 0 24 24" fill="none" xmlns="http://www.w3.org/2000/svg">
<g id="silo">
<path id="Vector" d="M23.1428 13.6549C23.3702 13.6549 23.5882 13.5646 23.7489 13.4038C23.9097 13.2431 24 13.0251 24 12.7977V11.5463C24.0009 11.2633 23.9317 10.9844 23.7986 10.7346C23.6655 10.4849 23.4726 10.2719 23.2371 10.1149L16.38 5.5463C16.0983 5.35834 15.7672 5.25804 15.4286 5.25804C15.0899 5.25804 14.7588 5.35834 14.4771 5.5463L11.1429 7.7663V5.2463C11.1429 5.19487 11.1429 5.13487 11.1429 5.08344C11.3702 5.08344 11.5882 4.99313 11.7489 4.83239C11.9097 4.67164 12 4.45363 12 4.2263C12 3.99897 11.9097 3.78095 11.7489 3.62021C11.5882 3.45946 11.3702 3.36915 11.1429 3.36915H10.8171C10.4515 2.31121 9.74247 1.40602 8.80285 0.797727C7.96097 0.276264 6.9903 0 6 0C5.0097 0 4.03903 0.276264 3.19714 0.797727C2.25753 1.40602 1.54846 2.31121 1.18286 3.36915H0.857143C0.629814 3.36915 0.411797 3.45946 0.251051 3.62021C0.0903058 3.78095 0 3.99897 0 4.2263C0 4.45363 0.0903058 4.67164 0.251051 4.83239C0.411797 4.99313 0.629814 5.08344 0.857143 5.08344C0.857143 5.13487 0.857143 5.19487 0.857143 5.2463V8.51201C0.629814 8.51201 0.411797 8.60232 0.251051 8.76306C0.0903058 8.92381 0 9.14182 0 9.36915C0 9.59648 0.0903058 9.8145 0.251051 9.97524C0.411797 10.136 0.629814 10.2263 0.857143 10.2263V13.6549C0.629814 13.6549 0.411797 13.7452 0.251051 13.9059C0.0903058 14.0667 0 14.2847 0 14.512C0 14.7393 0.0903058 14.9574 0.251051 15.1181C0.411797 15.2788 0.629814 15.3691 0.857143 15.3691V18.7977C0.629814 18.7977 0.411797 18.888 0.251051 19.0488C0.0903058 19.2095 0 19.4275 0 19.6549C0 19.8822 0.0903058 20.1002 0.251051 20.261C0.411797 20.4217 0.629814 20.512 0.857143 20.512V23.0834C0.857143 23.3108 0.947448 23.5288 1.10819 23.6895C1.26894 23.8503 1.48696 23.9406 1.71429 23.9406H22.2857C22.7404 23.9406 23.1764 23.76 23.4979 23.4385C23.8194 23.117 24 22.6809 24 22.2263V16.2263C24 15.999 23.9097 15.7809 23.7489 15.6202C23.5882 15.4595 23.3702 15.3691 23.1428 15.3691C22.9155 15.3691 22.6975 15.4595 22.5368 15.6202C22.376 15.7809 22.2857 15.999 22.2857 16.2263V22.2263H20.5714V17.0834C20.5714 16.8561 20.4811 16.6381 20.3204 16.4773C20.1596 16.3166 19.9416 16.2263 19.7143 16.2263H11.1429C10.9155 16.2263 10.6975 16.3166 10.5368 16.4773C10.376 16.6381 10.2857 16.8561 10.2857 17.0834V22.2263H8.57143V11.5377L15.4286 6.96915L22.2857 11.5463V12.7977C22.2857 13.0251 22.376 13.2431 22.5368 13.4038C22.6975 13.5646 22.9155 13.6549 23.1428 13.6549ZM4.11428 2.20344C4.68007 1.85089 5.33336 1.66401 6 1.66401C6.66664 1.66401 7.31992 1.85089 7.88571 2.20344C8.33518 2.49575 8.70368 2.89668 8.95714 3.36915H3.04286C3.29631 2.89668 3.66481 2.49575 4.11428 2.20344ZM2.57143 15.3691H6.85714V18.7977H2.57143V15.3691ZM2.57143 20.512H6.85714V22.2263H2.57143V20.512ZM12 17.9406H18.8571V22.2263H12V17.9406ZM7.62 10.1149C7.38456 10.2719 7.19167 10.4849 7.05856 10.7346C6.92545 10.9844 6.85625 11.2633 6.85714 11.5463V13.6549H2.57143V10.2263H6C6.22733 10.2263 6.44534 10.136 6.60609 9.97524C6.76683 9.8145 6.85714 9.59648 6.85714 9.36915C6.85714 9.14182 6.76683 8.92381 6.60609 8.76306C6.44534 8.60232 6.22733 8.51201 6 8.51201H2.57143V5.2463C2.57143 5.19487 2.57143 5.13487 2.57143 5.08344H9.42857C9.42857 5.13487 9.42857 5.19487 9.42857 5.2463V8.9063L7.62 10.1149Z" fill="#D6D9DF"/>
<path id="Vector_2" d="M12.8569 11.9406C12.8569 12.4491 13.0077 12.9463 13.2903 13.3692C13.5728 13.792 13.9745 14.1216 14.4443 14.3163C14.9142 14.5109 15.4312 14.5618 15.93 14.4626C16.4288 14.3634 16.887 14.1185 17.2466 13.7588C17.6063 13.3992 17.8512 12.941 17.9504 12.4422C18.0496 11.9434 17.9987 11.4264 17.8041 10.9565C17.6094 10.4867 17.2798 10.0851 16.857 9.8025C16.4341 9.51995 15.9369 9.36914 15.4284 9.36914C14.7464 9.36914 14.0923 9.64006 13.6101 10.1223C13.1279 10.6045 12.8569 11.2586 12.8569 11.9406ZM16.2855 11.9406C16.2855 12.1101 16.2352 12.2758 16.1411 12.4168C16.0469 12.5577 15.913 12.6676 15.7564 12.7325C15.5998 12.7973 15.4274 12.8143 15.2611 12.7812C15.0949 12.7482 14.9421 12.6665 14.8223 12.5467C14.7024 12.4268 14.6208 12.2741 14.5877 12.1078C14.5546 11.9415 14.5716 11.7692 14.6365 11.6126C14.7013 11.4559 14.8112 11.3221 14.9522 11.2279C15.0931 11.1337 15.2588 11.0834 15.4284 11.0834C15.6557 11.0834 15.8737 11.1737 16.0345 11.3345C16.1952 11.4952 16.2855 11.7132 16.2855 11.9406Z" fill="#D6D9DF"/>
</g>
</svg>
