<svg width="40" height="40" viewBox="0 0 40 40" fill="none" xmlns="http://www.w3.org/2000/svg">
<g id="Frame">
<g id="Group">
<path id="Vector" d="M19.5 31C13.701 31 9 26.299 9 20.5C9 14.701 13.701 10 19.5 10C25.299 10 30 14.701 30 20.5C30 26.299 25.299 31 19.5 31ZM13.3256 27.4993C14.971 28.9519 17.1326 29.8333 19.5 29.8333C21.8674 29.8333 24.029 28.9519 25.6744 27.4993L23.1918 25.0167C22.1862 25.8396 20.9007 26.3333 19.5 26.3333C18.0993 26.3333 16.8138 25.8396 15.8082 25.0167L13.3256 27.4993ZM12.5007 26.6744L14.9833 24.1918C14.1604 23.1862 13.6667 21.9007 13.6667 20.5C13.6667 19.0993 14.1604 17.8138 14.9833 16.8082L12.5007 14.3256C11.0481 15.971 10.1667 18.1326 10.1667 20.5C10.1667 22.8674 11.0481 25.029 12.5007 26.6744ZM13.3256 13.5007L15.8082 15.9833C16.8138 15.1604 18.0993 14.6667 19.5 14.6667C20.9007 14.6667 22.1862 15.1604 23.1918 15.9833L25.6744 13.5007C24.029 12.0481 21.8674 11.1667 19.5 11.1667C17.1326 11.1667 14.971 12.0481 13.3256 13.5007ZM26.4993 14.3256L24.0167 16.8082C24.8396 17.8138 25.3333 19.0993 25.3333 20.5C25.3333 21.9007 24.8396 23.1862 24.0167 24.1918L26.4993 26.6744C27.9519 25.029 28.8333 22.8674 28.8333 20.5C28.8333 18.1326 27.9519 15.971 26.4993 14.3256ZM19.5 25.1667C22.0773 25.1667 24.1667 23.0773 24.1667 20.5C24.1667 17.9227 22.0773 15.8333 19.5 15.8333C16.9227 15.8333 14.8333 17.9227 14.8333 20.5C14.8333 23.0773 16.9227 25.1667 19.5 25.1667Z" fill="#C89963" stroke="#C89963" stroke-width="0.5"/>
</g>
</g>
</svg>
