<svg width="23" height="23" viewBox="0 0 23 23" fill="none" xmlns="http://www.w3.org/2000/svg">
<g id="tv">
<path id="Vector (Stroke)" fill-rule="evenodd" clip-rule="evenodd" d="M3.59375 19.4062C3.59375 19.0093 3.91555 18.6875 4.3125 18.6875H18.6875C19.0845 18.6875 19.4062 19.0093 19.4062 19.4062C19.4062 19.8032 19.0845 20.125 18.6875 20.125H4.3125C3.91555 20.125 3.59375 19.8032 3.59375 19.4062Z" fill="#939393"/>
<path id="Path 12 (Stroke)" fill-rule="evenodd" clip-rule="evenodd" d="M20.112 4.3125H2.875C2.40779 4.3125 2.15295 4.42517 2.01027 4.52029C1.85859 4.62141 1.73954 4.76653 1.64511 4.95537C1.54788 5.14984 1.49209 5.36172 1.46286 5.5371C1.44882 5.62139 1.44235 5.68849 1.43946 5.72888C1.43827 5.74563 1.43772 5.75724 1.4375 5.76297V14.375C1.4375 14.8422 1.55017 15.097 1.64529 15.2397C1.74641 15.3914 1.89153 15.5105 2.08037 15.6049C2.27484 15.7021 2.48672 15.7579 2.6621 15.7871C2.74639 15.8012 2.81349 15.8077 2.85388 15.8105C2.87064 15.8117 2.88225 15.8123 2.88797 15.8125H20.125C20.5922 15.8125 20.847 15.6998 20.9897 15.6047C21.1414 15.5036 21.2605 15.3585 21.3549 15.1696C21.4521 14.9752 21.5079 14.7633 21.5371 14.5879C21.5512 14.5036 21.5577 14.4365 21.5605 14.3961C21.5617 14.3794 21.5623 14.3677 21.5625 14.362V5.75C21.5625 5.28279 21.4498 5.02795 21.3547 4.88527C21.2536 4.73359 21.1085 4.61454 20.9196 4.52011C20.7252 4.42288 20.5133 4.36709 20.3379 4.33786C20.2536 4.32382 20.1865 4.31735 20.1461 4.31446C20.1294 4.31327 20.1178 4.31272 20.112 4.3125ZM20.125 2.875H2.875C0 2.875 0 5.75 0 5.75V14.375C0 17.25 2.875 17.25 2.875 17.25H20.125C23 17.25 23 14.375 23 14.375V5.75C23 2.875 20.125 2.875 20.125 2.875Z" fill="#939393"/>
</g>
</svg>
