<svg width="50" height="50" viewBox="0 0 50 50" fill="none" xmlns="http://www.w3.org/2000/svg">
<path d="M25 0C29.9445 0 34.778 1.46622 38.8893 4.21326C43.0005 6.96029 46.2048 10.8648 48.097 15.4329C49.9892 20.0011 50.4843 25.0277 49.5196 29.8773C48.555 34.7268 46.174 39.1814 42.6777 42.6777C39.1814 46.174 34.7268 48.555 29.8773 49.5196C25.0277 50.4843 20.0011 49.9892 15.4329 48.097C10.8648 46.2048 6.96029 43.0005 4.21326 38.8893C1.46622 34.778 0 29.9445 0 25C0 18.3696 2.63392 12.0107 7.32233 7.32233C12.0107 2.63392 18.3696 0 25 0V0Z" fill="#FFECD6"/>
<path d="M17 20H33M32 20L31.133 32.142C31.0971 32.6466 30.8713 33.1188 30.5011 33.4636C30.1309 33.8083 29.6439 34 29.138 34H20.862C20.3553 34.0013 19.867 33.8102 19.4957 33.4653C19.1245 33.1204 18.898 32.6474 18.862 32.142L18 20H32ZM23 24V30V24ZM27 24V30V24ZM28 20V17C28 16.7348 27.8946 16.4804 27.7071 16.2929C27.5196 16.1054 27.2652 16 27 16H23C22.7348 16 22.4804 16.1054 22.2929 16.2929C22.1054 16.4804 22 16.7348 22 17V20H28Z" stroke="#CA9A62" stroke-width="2" stroke-linecap="round" stroke-linejoin="round"/>
</svg>
