<svg width="165" height="165" viewBox="0 0 165 165" fill="none" xmlns="http://www.w3.org/2000/svg">
<g filter="url(#filter0_d_269_822)">
<path d="M74.04 13.945C78.6538 9.13856 86.3462 9.13855 90.96 13.945C93.8302 16.935 98.0683 18.1871 102.102 17.2349C108.554 15.712 115.004 19.9481 116.3 26.4491C117.113 30.5238 120.013 33.9333 123.924 35.3381C130.185 37.5876 133.335 44.6314 130.936 50.837C129.433 54.724 130.054 59.1708 132.586 62.4809C136.645 67.7869 135.57 75.4169 130.181 79.3641C126.823 81.8233 124.997 85.9194 125.354 90.0661C125.922 96.6758 120.928 102.564 114.305 102.939C110.163 103.174 106.434 105.605 104.517 109.284C101.45 115.173 94.0703 117.389 88.3067 114.092C84.709 112.035 80.291 112.035 76.6933 114.092C70.9297 117.389 63.5504 115.173 60.4828 109.284C58.5661 105.605 54.837 103.174 50.6952 102.939C44.0718 102.564 39.0776 96.6758 39.6464 90.0661C40.0033 85.9194 38.1769 81.8233 34.8191 79.3641C29.4296 75.4169 28.3549 67.7869 32.4136 62.4809C34.9455 59.1708 35.5666 54.724 34.0639 50.837C31.665 44.6314 34.8152 37.5876 41.0765 35.3381C44.9868 33.9333 47.8868 30.5238 48.6996 26.4491C49.9964 19.9481 56.4463 15.712 62.898 17.2349C66.9317 18.1871 71.1698 16.935 74.04 13.945Z" fill="url(#paint0_linear_269_822)"/>
<path d="M74.04 13.945C78.6538 9.13856 86.3462 9.13855 90.96 13.945C93.8302 16.935 98.0683 18.1871 102.102 17.2349C108.554 15.712 115.004 19.9481 116.3 26.4491C117.113 30.5238 120.013 33.9333 123.924 35.3381C130.185 37.5876 133.335 44.6314 130.936 50.837C129.433 54.724 130.054 59.1708 132.586 62.4809C136.645 67.7869 135.57 75.4169 130.181 79.3641C126.823 81.8233 124.997 85.9194 125.354 90.0661C125.922 96.6758 120.928 102.564 114.305 102.939C110.163 103.174 106.434 105.605 104.517 109.284C101.45 115.173 94.0703 117.389 88.3067 114.092C84.709 112.035 80.291 112.035 76.6933 114.092C70.9297 117.389 63.5504 115.173 60.4828 109.284C58.5661 105.605 54.837 103.174 50.6952 102.939C44.0718 102.564 39.0776 96.6758 39.6464 90.0661C40.0033 85.9194 38.1769 81.8233 34.8191 79.3641C29.4296 75.4169 28.3549 67.7869 32.4136 62.4809C34.9455 59.1708 35.5666 54.724 34.0639 50.837C31.665 44.6314 34.8152 37.5876 41.0765 35.3381C44.9868 33.9333 47.8868 30.5238 48.6996 26.4491C49.9964 19.9481 56.4463 15.712 62.898 17.2349C66.9317 18.1871 71.1698 16.935 74.04 13.945Z" fill="url(#paint1_linear_269_822)" fill-opacity="0.1"/>
<path d="M42.6333 63.4102C42.6333 41.3925 60.4822 23.5436 82.4999 23.5436C104.518 23.5436 122.366 41.3925 122.366 63.4102V64.2301C122.366 86.2478 104.518 104.097 82.4999 104.097C60.4822 104.097 42.6333 86.2478 42.6333 64.2301V63.4102Z" fill="black" fill-opacity="0.04"/>
<path d="M49.0109 63.4102C49.0109 44.9147 64.0044 29.9212 82.4999 29.9212C100.995 29.9212 115.989 44.9147 115.989 63.4102V64.2301C115.989 82.7256 100.995 97.7191 82.4999 97.7191C64.0044 97.7191 49.0109 82.7256 49.0109 64.2301V63.4102Z" stroke="white" stroke-opacity="0.3" stroke-width="12.7551"/>
<path d="M122.905 64.1856C122.905 86.5009 104.815 104.591 82.4999 104.591C60.1846 104.591 42.0945 86.5009 42.0945 64.1856C42.0945 41.8704 60.1846 23.7802 82.4999 23.7802C104.815 23.7802 122.905 41.8704 122.905 64.1856ZM50.413 64.1856C50.413 81.9068 64.7788 96.2726 82.4999 96.2726C100.221 96.2726 114.587 81.9068 114.587 64.1856C114.587 46.4645 100.221 32.0987 82.4999 32.0987C64.7788 32.0987 50.413 46.4645 50.413 64.1856Z" fill="url(#paint2_linear_269_822)" fill-opacity="0.5"/>
<path d="M65.3333 61.7357L76.0242 59.5587L79.2315 54.116L82.4388 48.6733L88.8534 59.5587L99.5444 61.7357L90.9916 70.444L93.1298 81.3294L82.4388 75.8867L71.7478 81.3294L73.886 70.444L65.3333 61.7357Z" fill="#AF9772"/>
<path fill-rule="evenodd" clip-rule="evenodd" d="M76.0238 59.5586L82.4384 48.6732L88.853 59.5586L99.544 61.7357L90.9912 70.444L93.1294 81.3293L82.4384 75.8866L71.7474 81.3293L73.8856 70.444L65.3328 61.7357L76.0238 59.5586ZM70.5178 71.4534L63.1139 63.9149C62.3151 63.1016 62.0253 61.9164 62.3587 60.8262C62.692 59.736 63.5952 58.9156 64.7122 58.6881L74.047 56.7872L79.7589 47.0942C80.318 46.1455 81.3372 45.5631 82.4384 45.5631C83.5397 45.5631 84.5588 46.1455 85.1179 47.0942L90.8298 56.7872L100.165 58.6881C101.282 58.9156 102.185 59.736 102.518 60.8262C102.852 61.9164 102.562 63.1016 101.763 63.9149L94.359 71.4534L96.1812 80.7299C96.4106 81.8975 95.9535 83.0937 95.004 83.811C94.0545 84.5283 92.7789 84.6408 91.7184 84.1009L82.4384 79.3766L73.1584 84.1009C72.098 84.6408 70.8224 84.5283 69.8728 83.811C68.9233 83.0937 68.4663 81.8975 68.6956 80.7299L70.5178 71.4534Z" fill="#896A3B"/>
</g>
<defs>
<filter id="filter0_d_269_822" x="-4.05814" y="-4.55445" width="173.116" height="173.116" filterUnits="userSpaceOnUse" color-interpolation-filters="sRGB">
<feFlood flood-opacity="0" result="BackgroundImageFix"/>
<feColorMatrix in="SourceAlpha" type="matrix" values="0 0 0 0 0 0 0 0 0 0 0 0 0 0 0 0 0 0 127 0" result="hardAlpha"/>
<feOffset dy="19.3721"/>
<feGaussianBlur stdDeviation="14.5291"/>
<feComposite in2="hardAlpha" operator="out"/>
<feColorMatrix type="matrix" values="0 0 0 0 0.760784 0 0 0 0 0.686275 0 0 0 0 0.607843 0 0 0 0.4 0"/>
<feBlend mode="normal" in2="BackgroundImageFix" result="effect1_dropShadow_269_822"/>
<feBlend mode="normal" in="SourceGraphic" in2="effect1_dropShadow_269_822" result="shape"/>
</filter>
<linearGradient id="paint0_linear_269_822" x1="99.0468" y1="120.132" x2="62.777" y2="17.8461" gradientUnits="userSpaceOnUse">
<stop offset="0.0625" stop-color="#87704F"/>
<stop offset="1" stop-color="#CBC6C5"/>
</linearGradient>
<linearGradient id="paint1_linear_269_822" x1="5.25054" y1="-3.85257" x2="92.6086" y2="152.074" gradientUnits="userSpaceOnUse">
<stop stop-color="white"/>
<stop offset="1" stop-color="white" stop-opacity="0"/>
</linearGradient>
<linearGradient id="paint2_linear_269_822" x1="82.4999" y1="23.7802" x2="82.4999" y2="104.591" gradientUnits="userSpaceOnUse">
<stop stop-color="white"/>
<stop offset="0.0001" stop-color="white" stop-opacity="0.81"/>
<stop offset="1" stop-color="white" stop-opacity="0"/>
</linearGradient>
</defs>
</svg>
