<svg width="50" height="50" viewBox="0 0 50 50" fill="none" xmlns="http://www.w3.org/2000/svg">
<path d="M25 0C29.9445 0 34.778 1.46622 38.8893 4.21326C43.0005 6.96029 46.2048 10.8648 48.097 15.4329C49.9892 20.0011 50.4843 25.0277 49.5196 29.8773C48.555 34.7268 46.174 39.1814 42.6777 42.6777C39.1814 46.174 34.7268 48.555 29.8773 49.5196C25.0277 50.4843 20.0011 49.9892 15.4329 48.097C10.8648 46.2048 6.96029 43.0005 4.21326 38.8893C1.46622 34.778 0 29.9445 0 25C0 18.3696 2.63392 12.0107 7.32233 7.32233C12.0107 2.63392 18.3696 0 25 0V0Z" fill="#FFECD6"/>
<g clip-path="url(#clip0_511_8291)">
<path d="M30.7853 21.9555C31.6738 21.9555 32.3962 21.233 32.3962 20.3445V19.478C32.3962 18.7839 31.9538 18.1698 31.2959 17.9502L25.7097 16.083C25.38 15.9723 25.0166 15.9723 24.6878 16.083L19.1006 17.9495C18.4425 18.1695 18 18.7836 18 19.4777V20.3442C18 21.2327 18.7225 21.9552 19.6109 21.9552H19.7887V26.8205H19.6109C18.7225 26.8205 18 27.543 18 28.4314V29.3883C18 30.2767 18.7225 30.9992 19.6109 30.9992H30.7853C31.6738 30.9992 32.3962 30.2767 32.3962 29.3883V28.4314C32.3962 27.543 31.6738 26.8205 30.7853 26.8205H30.4244V21.9552L30.7853 21.9555ZM19.25 20.3442V19.4777C19.25 19.3223 19.3491 19.1845 19.4966 19.1352L25.0844 17.268C25.1209 17.2555 25.1594 17.2492 25.1978 17.2492C25.2363 17.2492 25.2753 17.2558 25.3125 17.268L30.8997 19.1355C31.0472 19.1845 31.1462 19.3223 31.1462 19.4777V20.3442C31.1462 20.5433 30.9844 20.7052 30.7853 20.7052H19.6109C19.4119 20.7052 19.25 20.543 19.25 20.3442ZM24.1675 26.8208V21.9555H26.0459V26.8208H24.1675ZM21.0391 21.9555H22.9175V26.8208H21.0391V21.9555ZM31.1466 28.432V29.3889C31.1466 29.588 30.9847 29.7498 30.7856 29.7498H19.6109C19.4119 29.7498 19.25 29.5877 19.25 29.3889V28.432C19.25 28.233 19.4119 28.0711 19.6109 28.0711H30.7853C30.9844 28.0711 31.1466 28.2333 31.1466 28.432ZM29.1744 26.8211H27.2959V21.9558H29.1744V26.8211Z" fill="#CA9A62"/>
</g>
<defs>
<clipPath id="clip0_511_8291">
<rect width="20" height="25" fill="white" transform="translate(15 13)"/>
</clipPath>
</defs>
</svg>
