<svg width="50" height="50" viewBox="0 0 50 50" fill="none" xmlns="http://www.w3.org/2000/svg">
<path d="M25 0C29.9445 0 34.778 1.46622 38.8893 4.21326C43.0005 6.96029 46.2048 10.8648 48.097 15.4329C49.9892 20.0011 50.4843 25.0277 49.5196 29.8773C48.555 34.7268 46.174 39.1814 42.6777 42.6777C39.1814 46.174 34.7268 48.555 29.8773 49.5196C25.0277 50.4843 20.0011 49.9892 15.4329 48.097C10.8648 46.2048 6.96029 43.0005 4.21326 38.8893C1.46622 34.778 0 29.9445 0 25C0 18.3696 2.63392 12.0107 7.32233 7.32233C12.0107 2.63392 18.3696 0 25 0V0Z" fill="#FFECD6"/>
<path d="M32.8597 26.9795L32.1402 25.7261C32.0601 25.5873 32.0601 25.4132 32.1402 25.2724L32.8617 24.019C33.1471 23.5223 32.977 22.8848 32.4785 22.5974L31.2213 21.8739C31.0806 21.7937 30.9946 21.6431 30.9946 21.4808V20.0436C30.9946 19.4687 30.5273 19.0033 29.9544 19.0033H28.5174C28.3552 19.0033 28.2046 18.9153 28.1245 18.7765L27.4011 17.5211C27.1137 17.0244 26.4763 16.8523 25.9797 17.1398L24.7265 17.8613C24.5858 17.9415 24.4137 17.9415 24.2729 17.8613L23.0197 17.1398C22.7792 17.0009 22.4977 16.9638 22.2299 17.0361C21.962 17.1085 21.7372 17.2806 21.5984 17.5211L20.875 18.7784C20.7948 18.9192 20.6443 19.0053 20.482 19.0053H19.045C18.4702 19.0053 18.0049 19.4726 18.0049 20.0456V21.4828C18.0049 21.6451 17.9169 21.7957 17.7781 21.8758L16.523 22.5994C16.0264 22.8868 15.8543 23.5243 16.1398 24.021L16.8612 25.2744C16.9413 25.4152 16.9413 25.5873 16.8612 25.728L16.1398 26.9815C16.0009 27.222 15.9638 27.5036 16.0361 27.7715C16.1085 28.0394 16.2805 28.2642 16.521 28.4031L17.7781 29.1266C17.9189 29.2068 18.0049 29.3573 18.0049 29.5196V30.9569C18.0049 31.5318 18.4722 31.9972 19.045 31.9972H20.482C20.6443 31.9972 20.7948 32.0852 20.875 32.224L21.5984 33.4794C21.8858 33.9761 22.5231 34.1482 23.0197 33.8607L24.2729 33.1391C24.4137 33.059 24.5858 33.059 24.7265 33.1391L25.9797 33.8607C26.1401 33.9526 26.318 33.9995 26.4978 33.9995C26.5878 33.9995 26.6797 33.9878 26.7696 33.9624C27.0374 33.89 27.2623 33.718 27.4011 33.4774L28.1245 32.2201C28.2046 32.0793 28.3552 31.9933 28.5174 31.9933H29.9544C30.5292 31.9933 30.9946 31.5259 30.9946 30.953V29.5157C30.9946 29.3534 31.0825 29.2029 31.2213 29.1227L32.4785 28.3992C32.9751 28.1156 33.1471 27.4762 32.8597 26.9795ZM21.2543 22.2572C21.5299 21.9814 21.8955 21.8309 22.2846 21.8309C22.6737 21.8309 23.0393 21.9834 23.3149 22.2572C23.8819 22.8242 23.8819 23.7491 23.3149 24.3182C23.0315 24.6017 22.658 24.7445 22.2846 24.7445C21.9112 24.7445 21.5397 24.6017 21.2543 24.3182C20.6873 23.7491 20.6873 22.8262 21.2543 22.2572ZM21.8564 28.6925L21.3032 28.1391L27.1352 22.306L27.6885 22.8594L21.8564 28.6925ZM27.7393 28.7394C27.4558 29.023 27.0824 29.1657 26.709 29.1657C26.3356 29.1657 25.9621 29.023 25.6787 28.7394C25.1097 28.1723 25.1097 27.2474 25.6787 26.6784C26.2456 26.1113 27.1704 26.1113 27.7393 26.6784C28.3083 27.2455 28.3083 28.1704 27.7393 28.7394Z" fill="#CA9A62"/>
</svg>
