<svg width="50" height="50" viewBox="0 0 50 50" fill="none" xmlns="http://www.w3.org/2000/svg">
<path d="M25 0C29.9445 0 34.778 1.46622 38.8893 4.21326C43.0005 6.96029 46.2048 10.8648 48.097 15.4329C49.9892 20.0011 50.4843 25.0277 49.5196 29.8773C48.555 34.7268 46.174 39.1814 42.6777 42.6777C39.1814 46.174 34.7268 48.555 29.8773 49.5196C25.0277 50.4843 20.0011 49.9892 15.4329 48.097C10.8648 46.2048 6.96029 43.0005 4.21326 38.8893C1.46622 34.778 0 29.9445 0 25C0 18.3696 2.63392 12.0107 7.32233 7.32233C12.0107 2.63392 18.3696 0 25 0V0Z" fill="#FFECD6"/>
<path d="M19 19C18.4696 19 17.9609 19.2107 17.5858 19.5858C17.2107 19.9609 17 20.4696 17 21V22H33V21C33 20.4696 32.7893 19.9609 32.4142 19.5858C32.0391 19.2107 31.5304 19 31 19H19Z" fill="#CA9A62"/>
<path fill-rule="evenodd" clip-rule="evenodd" d="M33 24H17V29C17 29.5304 17.2107 30.0391 17.5858 30.4142C17.9609 30.7893 18.4696 31 19 31H31C31.5304 31 32.0391 30.7893 32.4142 30.4142C32.7893 30.0391 33 29.5304 33 29V24ZM19 28C19 27.7348 19.1054 27.4804 19.2929 27.2929C19.4804 27.1054 19.7348 27 20 27H21C21.2652 27 21.5196 27.1054 21.7071 27.2929C21.8946 27.4804 22 27.7348 22 28C22 28.2652 21.8946 28.5196 21.7071 28.7071C21.5196 28.8946 21.2652 29 21 29H20C19.7348 29 19.4804 28.8946 19.2929 28.7071C19.1054 28.5196 19 28.2652 19 28ZM24 27C23.7348 27 23.4804 27.1054 23.2929 27.2929C23.1054 27.4804 23 27.7348 23 28C23 28.2652 23.1054 28.5196 23.2929 28.7071C23.4804 28.8946 23.7348 29 24 29H25C25.2652 29 25.5196 28.8946 25.7071 28.7071C25.8946 28.5196 26 28.2652 26 28C26 27.7348 25.8946 27.4804 25.7071 27.2929C25.5196 27.1054 25.2652 27 25 27H24Z" fill="#CA9A62"/>
</svg>
