<svg width="50" height="50" viewBox="0 0 50 50" fill="none" xmlns="http://www.w3.org/2000/svg">
<path d="M25 0C29.9445 0 34.778 1.46622 38.8893 4.21326C43.0005 6.96029 46.2048 10.8648 48.097 15.4329C49.9892 20.0011 50.4843 25.0277 49.5196 29.8773C48.555 34.7268 46.174 39.1814 42.6777 42.6777C39.1814 46.174 34.7268 48.555 29.8773 49.5196C25.0277 50.4843 20.0011 49.9892 15.4329 48.097C10.8648 46.2048 6.96029 43.0005 4.21326 38.8893C1.46622 34.778 0 29.9445 0 25C0 18.3696 2.63392 12.0107 7.32233 7.32233C12.0107 2.63392 18.3696 0 25 0V0Z" fill="#FFECD6"/>
<path d="M20.5928 21.6937C20.5928 21.2621 20.9427 20.9121 21.3744 20.9121H22.9373C23.3689 20.9121 23.7189 21.2621 23.7189 21.6937V22.7466C23.7189 23.1783 23.3689 23.5282 22.9373 23.5282H21.3744C20.9427 23.5282 20.5928 23.1783 20.5928 22.7466V21.6937Z" fill="#CA9A62"/>
<path d="M20.5928 28.3216C20.5928 27.89 20.9427 27.54 21.3744 27.54H22.9373C23.3689 27.54 23.7189 27.89 23.7189 28.3216V29.3746C23.7189 29.8062 23.3689 30.1562 22.9373 30.1562H21.3744C20.9427 30.1562 20.5928 29.8062 20.5928 29.3746V28.3216Z" fill="#CA9A62"/>
<path d="M25.3496 21.6937C25.3496 21.2621 25.6996 20.9121 26.1312 20.9121H27.6941C28.1258 20.9121 28.4757 21.2621 28.4757 21.6937V22.7466C28.4757 23.1783 28.1258 23.5282 27.6941 23.5282H26.1312C25.6996 23.5282 25.3496 23.1783 25.3496 22.7466V21.6937Z" fill="#CA9A62"/>
<path d="M25.3496 28.3216C25.3496 27.89 25.6996 27.54 26.1312 27.54H27.6941C28.1258 27.54 28.4757 27.89 28.4757 28.3216V29.3746C28.4757 29.8062 28.1258 30.1562 27.6941 30.1562H26.1312C25.6996 30.1562 25.3496 29.8062 25.3496 29.3746V28.3216Z" fill="#CA9A62"/>
<path fill-rule="evenodd" clip-rule="evenodd" d="M18.3545 25.4999C18.3545 25.2041 18.5942 24.9644 18.89 24.9644H30.195C30.4907 24.9644 30.7305 25.2041 30.7305 25.4999C30.7305 25.7956 30.4907 26.0354 30.195 26.0354H18.89C18.5942 26.0354 18.3545 25.7956 18.3545 25.4999Z" fill="#CA9A62"/>
<path fill-rule="evenodd" clip-rule="evenodd" d="M18.8158 17.8501C17.7299 17.8501 16.8496 18.7304 16.8496 19.8163V22.3029C16.8496 22.6041 17.0937 22.8482 17.3948 22.8482C17.696 22.8482 17.9401 22.6041 17.9401 22.3029V19.8163C17.9401 19.3326 18.3321 18.9405 18.8158 18.9405H21.3025C21.6036 18.9405 21.8477 18.6964 21.8477 18.3953C21.8477 18.0942 21.6036 17.8501 21.3025 17.8501H18.8158Z" fill="#CA9A62"/>
<path fill-rule="evenodd" clip-rule="evenodd" d="M18.8158 33.1499C17.7299 33.1499 16.8496 32.2696 16.8496 31.1838V28.6971C16.8496 28.396 17.0937 28.1519 17.3948 28.1519C17.696 28.1519 17.9401 28.396 17.9401 28.6971V31.1838C17.9401 31.6674 18.3321 32.0595 18.8158 32.0595H21.3025C21.6036 32.0595 21.8477 32.3036 21.8477 32.6047C21.8477 32.9058 21.6036 33.1499 21.3025 33.1499H18.8158Z" fill="#CA9A62"/>
<path fill-rule="evenodd" clip-rule="evenodd" d="M30.1833 17.8501C31.2692 17.8501 32.1495 18.7304 32.1495 19.8163V22.3029C32.1495 22.6041 31.9053 22.8482 31.6042 22.8482C31.3031 22.8482 31.059 22.6041 31.059 22.3029V19.8163C31.059 19.3326 30.6669 18.9405 30.1833 18.9405H27.6966C27.3955 18.9405 27.1514 18.6964 27.1514 18.3953C27.1514 18.0942 27.3955 17.8501 27.6966 17.8501H30.1833Z" fill="#CA9A62"/>
<path fill-rule="evenodd" clip-rule="evenodd" d="M30.1833 33.1499C31.2692 33.1499 32.1495 32.2696 32.1495 31.1838V28.6971C32.1495 28.396 31.9053 28.1519 31.6042 28.1519C31.3031 28.1519 31.059 28.396 31.059 28.6971V31.1838C31.059 31.6674 30.6669 32.0595 30.1833 32.0595H27.6966C27.3955 32.0595 27.1514 32.3036 27.1514 32.6047C27.1514 32.9058 27.3955 33.1499 27.6966 33.1499H30.1833Z" fill="#CA9A62"/>
</svg>
