<svg width="8" height="12" viewBox="0 0 8 12" fill="none" xmlns="http://www.w3.org/2000/svg">
<path fill-rule="evenodd" clip-rule="evenodd" d="M0.359875 11.3429C0.141138 11.124 0.0182617 10.8273 0.0182617 10.5179C0.0182617 10.2085 0.141138 9.91171 0.359875 9.69287L4.20187 5.85087L0.359875 2.00987C0.24765 1.90241 0.158016 1.77362 0.0962303 1.63105C0.0344446 1.48848 0.00175141 1.33501 6.84603e-05 1.17964C-0.00161449 1.02427 0.0277468 0.870126 0.0864299 0.726254C0.145113 0.582381 0.231936 0.451676 0.341806 0.341806C0.451676 0.231936 0.582381 0.145113 0.726254 0.0864299C0.870126 0.0277468 1.02427 -0.00161449 1.17964 6.84603e-05C1.33501 0.00175141 1.48848 0.0344446 1.63105 0.0962303C1.77362 0.158016 1.90241 0.24765 2.00987 0.359875L6.67688 5.02687C6.89561 5.24571 7.01849 5.54246 7.01849 5.85187C7.01849 6.16129 6.89561 6.45804 6.67688 6.67688L2.00987 11.3429C1.79103 11.5616 1.49429 11.6845 1.18487 11.6845C0.875462 11.6845 0.578714 11.5616 0.359875 11.3429Z" fill="#888888"/>
</svg>
