<svg width="32" height="33" viewBox="0 0 32 33" fill="none" xmlns="http://www.w3.org/2000/svg">
<path d="M25.5801 21.5888C26.2921 20.5045 26.4847 19.6657 26.3256 19.4374L25.5051 18.2659C25.2407 18.8213 24.8821 19.3941 24.4434 19.9659L25.5801 21.5888Z" fill="#FFF8E1"/>
<path d="M19.8063 26.2101C20.3952 25.9634 21.0275 25.643 21.6926 25.2277L20.4857 23.5023C19.8639 23.8958 19.2382 24.2342 18.6208 24.517L19.8063 26.2101Z" fill="#FFF8E1"/>
<path d="M23.3712 21.1914C22.8946 21.6741 22.3629 22.1463 21.7812 22.5951L22.9892 24.3198C23.6069 23.8378 24.124 23.3529 24.5567 22.8842L23.3712 21.1914Z" fill="#FFF8E1"/>
<path d="M17.1022 25.1057C16.4149 25.3223 15.7542 25.4637 15.1418 25.5216L15.9623 26.6931C16.122 26.9209 16.9763 27.0262 18.2389 26.7279L17.1022 25.1057Z" fill="#FFF8E1"/>
<path d="M26.1247 20.6014L25.0591 19.0791C24.8769 19.3733 24.6717 19.6696 24.4446 19.966L25.5813 21.5889C25.8182 21.2277 25.9963 20.8946 26.1247 20.6014Z" fill="#FFEBB2"/>
<path d="M23.766 23.6651L22.565 21.9496C22.3148 22.1687 22.0539 22.3851 21.7812 22.5954L22.9892 24.3201C23.2691 24.1016 23.5259 23.8827 23.766 23.6651Z" fill="#FFEBB2"/>
<path d="M19.5359 24.0594C19.2297 24.2251 18.9242 24.3782 18.6208 24.517L19.8063 26.2104C20.1052 26.0852 20.4164 25.9403 20.7365 25.774L19.5359 24.0594Z" fill="#FFEBB2"/>
<path d="M17.3315 26.8845L16.2476 25.3363C15.8658 25.4236 15.4951 25.4881 15.1418 25.5216L15.9623 26.6932C16.0803 26.8611 16.5749 26.9614 17.3315 26.8845Z" fill="#FFEBB2"/>
<path d="M10.7555 9.23619C13.0246 10.5463 15.1591 11.0973 15.523 10.467C15.887 9.83663 14.3425 8.26357 12.0734 6.95346C9.80432 5.64335 7.66981 5.0923 7.30586 5.72266C6.94191 6.35302 8.48635 7.92608 10.7555 9.23619Z" fill="#F4F5F5"/>
<path d="M7.67213 9.30514C7.0658 8.77947 6.55595 8.23419 6.16501 7.69777L5.2832 9.22512C5.35848 9.56102 5.78578 10.2755 6.64261 11.0877L7.67213 9.30514Z" fill="#F4F5F5"/>
<path d="M10.766 11.3254C10.4554 11.1743 10.1439 11.0136 9.83231 10.8336C9.52108 10.654 9.22598 10.4645 8.93974 10.2713L7.88745 12.0937C8.16136 12.2841 8.45582 12.4739 8.7778 12.6599C9.09978 12.8458 9.41164 13.0062 9.71338 13.1482L10.766 11.3254Z" fill="#F4F5F5"/>
<path d="M12.2372 11.9406L11.208 13.7232C12.34 14.0594 13.1725 14.0721 13.5008 13.9693L14.3826 12.4422C13.7225 12.372 12.9954 12.2028 12.2372 11.9406Z" fill="#F4F5F5"/>
<path d="M15.3346 9.62746C14.4322 9.5778 12.9415 9.03727 11.3882 8.14027C9.83495 7.2436 8.62167 6.22293 8.12731 5.46637C7.71202 5.4436 7.42041 5.52425 7.30591 5.72257C6.9425 6.3523 8.48725 7.92646 10.7557 9.23589C13.0241 10.5453 15.1597 11.0963 15.5234 10.4669C15.6382 10.2686 15.5623 9.97601 15.3346 9.62746Z" fill="#E0E0E0"/>
<path d="M13.2364 12.2344C12.9112 12.1547 12.5779 12.0586 12.2372 11.9406L11.208 13.7232C11.5901 13.8367 11.9345 13.9108 12.241 13.9585L13.2364 12.2344Z" fill="#E0E0E0"/>
<path d="M9.79771 10.8121C9.50009 10.6391 9.21606 10.4573 8.94121 10.2716L7.88892 12.0941C8.15207 12.2772 8.43609 12.4594 8.74353 12.6384L9.79771 10.8121Z" fill="#E0E0E0"/>
<path d="M6.85642 8.52458C6.59706 8.24909 6.36491 7.97234 6.16501 7.69812L5.2832 9.22548C5.33065 9.43707 5.51884 9.79954 5.86517 10.2417L6.85642 8.52458Z" fill="#E0E0E0"/>
<path d="M12.9965 5.35564C9.71881 3.46329 6.3535 3.15586 5.48023 4.66835L3.37154 8.32052C2.49858 9.8327 4.44723 12.5939 7.72493 14.4862C11.0026 16.3786 14.3682 16.6857 15.2412 15.1735L17.3499 11.5214C18.2232 10.0092 16.2745 7.24831 12.9965 5.35564ZM6.64354 11.0877C5.78671 10.2755 5.35909 9.56069 5.28413 9.22511L6.16594 7.69775C6.55719 8.23418 7.06547 8.77977 7.67242 9.30576L6.64354 11.0877ZM9.71501 13.1483C9.41327 13.0063 9.10141 12.8457 8.77943 12.66C8.45745 12.4743 8.16299 12.2842 7.88908 12.0938L8.93947 10.2746C9.22476 10.4675 9.52334 10.6547 9.83394 10.8341C10.1442 11.0134 10.4558 11.1782 10.7657 11.3291L9.71501 13.1483ZM13.5016 13.9694C13.1733 14.0722 12.3408 14.0596 11.2088 13.7234L12.2374 11.9414C12.9965 12.2042 13.723 12.3719 14.3831 12.4421L13.5016 13.9694ZM10.7562 9.23618C8.48781 7.92643 6.94275 6.35226 7.30648 5.72285C7.67021 5.09344 9.80547 5.64409 12.0739 6.95353C14.3423 8.26296 15.8874 9.83744 15.5236 10.4669C15.1599 11.0963 13.0246 10.5459 10.7562 9.23618Z" fill="#BDBCBC"/>
<path d="M19.9342 21.3374C16.5908 23.6789 13.8435 23.6685 13.5427 23.2386C13.2419 22.8082 14.1708 20.2238 17.5159 17.8823C20.8597 15.5433 23.6057 15.5516 23.9062 15.9817C24.2082 16.4125 23.2799 18.9966 19.9342 21.3374Z" fill="#FFF8E1"/>
<path d="M24.1596 8.42122C22.4928 9.38305 21.1388 9.29828 20.8943 9.09048C20.8807 8.84947 21.4389 7.55838 23.1067 6.59497C24.7726 5.63314 26.1273 5.7198 26.3711 5.92792C26.3857 6.1664 25.8274 7.4597 24.1596 8.42122Z" fill="#FFF3E1"/>
<path d="M5.65036 22.1901C4.99153 20.3819 5.31066 19.0642 5.558 18.8583C5.7968 18.8855 6.97149 19.6617 7.63158 21.4693C8.28851 23.2794 7.96906 24.5974 7.72109 24.8011C7.48198 24.7742 6.30729 24.0002 5.65036 22.1901Z" fill="#FFF3E1"/>
<path d="M25.5446 5.79929C25.2204 6.31104 24.6271 6.98347 23.6536 7.54488C22.681 8.10598 21.8169 8.30967 21.2156 8.34193C20.9844 8.70661 20.8889 8.99064 20.8943 9.09058C21.1387 9.2987 22.4931 9.38315 24.1596 8.42163C25.8274 7.4598 26.3857 6.16682 26.3711 5.92802C26.2699 5.84104 25.9732 5.77652 25.5446 5.79929Z" fill="#FFDFB1"/>
<path d="M7.99163 24.0094C7.54377 23.6014 6.98457 22.8999 6.60091 21.8438C6.21725 20.7886 6.16665 19.9021 6.23971 19.3043C5.92026 19.0133 5.65774 18.8697 5.55779 18.8583C5.31046 19.063 4.99195 20.3816 5.64983 22.1901C6.30708 23.9999 7.48367 24.7742 7.72152 24.8014C7.82431 24.7163 7.93944 24.4358 7.99163 24.0094Z" fill="#FFDFB1"/>
<path d="M28.1974 4.87365C27.3251 3.36211 24.5725 3.31499 22.052 4.77055C19.5315 6.22452 18.1948 8.63147 19.0681 10.1449C19.942 11.6561 22.6944 11.7036 25.2142 10.248C27.736 8.79215 29.071 6.38488 28.1974 4.87365ZM24.16 8.42146C22.4932 9.38329 21.1392 9.29852 20.8947 9.09072C20.8811 8.84971 21.4393 7.55862 23.1071 6.59521C24.773 5.63338 26.1277 5.72004 26.3715 5.92816C26.3861 6.16664 25.8278 7.45994 24.16 8.42146Z" fill="#F68C1E"/>
<path d="M9.61286 20.7468C8.61624 18.0121 6.47813 16.2786 4.83786 16.8757C3.19696 17.4751 2.67382 20.1768 3.66854 22.9111C4.6639 25.6476 6.80233 27.3815 8.44354 26.7841C10.0841 26.185 10.6073 23.4858 9.61286 20.7468ZM7.72146 24.8012C7.48266 24.7744 6.30797 24.0004 5.65104 22.1903C4.99221 20.3821 5.31134 19.0644 5.55868 18.8585C5.79748 18.8857 6.97217 19.6619 7.63227 21.4695C8.28888 23.2796 7.96943 24.5976 7.72146 24.8012Z" fill="#F68C1E"/>
<path d="M23.1139 15.765C22.7679 16.8075 21.6173 18.6154 19.2081 20.3012C16.8005 21.9874 14.7076 22.451 13.6092 22.4194C13.4747 22.8246 13.458 23.1181 13.5424 23.2386C13.8432 23.6684 16.5902 23.6792 19.934 21.3374C23.2794 18.9965 24.208 16.4125 23.9062 15.9817C23.8218 15.8615 23.5406 15.777 23.1139 15.765Z" fill="#FFEBB2"/>
<path d="M28.0527 18.2266L25.6341 14.7737C24.2987 12.8645 20.1218 13.4845 16.3067 16.1574C12.491 18.8278 10.4801 22.5407 11.8164 24.447L14.2347 27.9021C15.5711 29.809 19.747 29.1913 23.563 26.5187C27.3771 23.848 29.389 20.135 28.0527 18.2266ZM13.543 23.2388C13.2422 22.8083 14.1712 20.2239 17.5162 17.8824C20.86 15.5435 23.606 15.5517 23.9065 15.9819C24.2082 16.4123 23.2799 18.9964 19.9342 21.3376C16.5908 23.6794 13.8438 23.6686 13.543 23.2388ZM15.9623 26.6936L15.1418 25.5221C15.7545 25.4636 16.4152 25.3244 17.1028 25.1068L18.2389 26.7284C16.9763 27.0267 16.1223 26.9213 15.9623 26.6936ZM19.8068 26.21L18.6226 24.5182C19.2397 24.2354 19.8653 23.8957 20.4865 23.5026L21.6934 25.2273C21.028 25.6429 20.396 25.963 19.8068 26.21ZM22.9893 24.3202L21.7817 22.5961C22.3633 22.147 22.896 21.6757 23.3723 21.1927L24.5568 22.8845C24.1238 23.3533 23.607 23.8378 22.9893 24.3202ZM25.5803 21.5887L24.4442 19.9668C24.8842 19.3946 25.2412 18.8215 25.5053 18.2655L26.3258 19.437C26.4849 19.6657 26.2923 20.5045 25.5803 21.5887Z" fill="#FFC00E"/>
</svg>
