<svg width="50" height="50" viewBox="0 0 50 50" fill="none" xmlns="http://www.w3.org/2000/svg">
<path d="M25 0C29.9445 0 34.778 1.46622 38.8893 4.21326C43.0005 6.96029 46.2048 10.8648 48.097 15.4329C49.9892 20.0011 50.4843 25.0277 49.5196 29.8773C48.555 34.7268 46.174 39.1814 42.6777 42.6777C39.1814 46.174 34.7268 48.555 29.8773 49.5196C25.0277 50.4843 20.0011 49.9892 15.4329 48.097C10.8648 46.2048 6.96029 43.0005 4.21326 38.8893C1.46622 34.778 0 29.9445 0 25C0 18.3696 2.63392 12.0107 7.32233 7.32233C12.0107 2.63392 18.3696 0 25 0V0Z" fill="#FFECD6"/>
<path d="M25.5002 22.82C26.6349 22.8073 27.6779 22.1947 28.2416 21.21C28.8052 20.2253 28.8052 19.0155 28.2416 18.0308C27.6779 17.0461 26.6347 16.4334 25.5002 16.4208C24.3655 16.4336 23.3224 17.0461 22.7587 18.031C22.195 19.0157 22.195 20.2252 22.7587 21.21C23.3225 22.1949 24.3655 22.8073 25.5002 22.82ZM25.5002 17.2923C26.3261 17.3015 27.0852 17.7472 27.4956 18.4637C27.9058 19.1804 27.9058 20.0609 27.4954 20.7776C27.0852 21.4941 26.3259 21.9399 25.5002 21.9488C24.6744 21.9399 23.9152 21.4941 23.5048 20.7774C23.0946 20.0607 23.0946 19.1804 23.5048 18.4637C23.9152 17.747 24.6744 17.3014 25.5002 17.2923ZM27.9613 23.7132H23.0277C22.4862 23.7138 21.9671 23.9291 21.5841 24.3118C21.2012 24.6948 20.9858 25.2139 20.9851 25.7553V30.5315C21.1738 36.4888 29.8148 36.4903 30.0035 30.5313L30.0037 25.7553C30.0031 25.2139 29.7876 24.6948 29.4049 24.312C29.0219 23.9291 28.5028 23.7138 27.9615 23.7132L27.9613 23.7132ZM29.1322 30.5314C29.1195 31.8227 28.4236 33.0104 27.3031 33.6524C26.1828 34.2945 24.8059 34.2945 23.6856 33.6524C22.5651 33.0104 21.869 31.8225 21.8565 30.5312V25.7553C21.8571 25.4449 21.9806 25.1473 22.2002 24.9277C22.4198 24.7081 22.7174 24.5848 23.0278 24.5844H27.9613C28.2716 24.5848 28.5692 24.7083 28.7887 24.9279C29.0083 25.1473 29.1316 25.4449 29.1322 25.7553L29.1322 30.5314ZM18.3496 21.1211H14.77C14.3008 21.1215 13.851 21.3082 13.5189 21.6401C13.1871 21.9719 13.0006 22.4217 13 22.891V27.1408V27.1406C13.0103 28.4056 13.6911 29.5698 14.7882 30.1994C15.8854 30.8288 17.2343 30.8288 18.3313 30.1992C19.4285 29.5698 20.1092 28.4054 20.1195 27.1406V22.891C20.119 22.4217 19.9324 21.9718 19.6006 21.64C19.2688 21.3082 18.8189 21.1215 18.3496 21.1211L18.3496 21.1211ZM19.2482 27.1407C19.2377 28.0941 18.7231 28.9707 17.8957 29.4445C17.0681 29.9181 16.0516 29.9181 15.224 29.4445C14.3966 28.9707 13.8819 28.0942 13.8714 27.1407V22.8911C13.8718 22.6528 13.9665 22.4243 14.135 22.2559C14.3034 22.0874 14.5318 21.9927 14.77 21.9925H18.3497C18.5879 21.9927 18.8163 22.0874 18.9849 22.2559C19.1534 22.4243 19.2481 22.6528 19.2483 22.8911L19.2482 27.1407ZM16.5789 20.2449C17.5057 20.2345 18.3578 19.7339 18.8182 18.9295C19.2788 18.1251 19.2788 17.1369 18.8182 16.3325C18.3578 15.5279 17.5057 15.0274 16.5787 15.0169C15.6517 15.0274 14.7998 15.5281 14.3392 16.3325C13.8788 17.1369 13.8788 18.1251 14.3392 18.9295C14.7998 19.7341 15.6519 20.2345 16.5788 20.2449H16.5789ZM16.5789 15.8882C17.1955 15.8974 17.7615 16.2313 18.0672 16.7669C18.3728 17.3024 18.3728 17.9596 18.067 18.4952C17.7613 19.0306 17.1953 19.3648 16.5787 19.3735C15.9621 19.3646 15.3961 19.0306 15.0903 18.495C14.7846 17.9596 14.7846 17.3024 15.0903 16.7667C15.3961 16.2313 15.9621 15.8972 16.5789 15.8882L16.5789 15.8882ZM36.23 21.1037H32.6504C32.1811 21.1043 31.7312 21.291 31.3993 21.623C31.0675 21.9548 30.881 22.4047 30.8804 22.874V27.1242C30.8919 28.3882 31.573 29.5512 32.6697 30.1798C33.7662 30.8086 35.1142 30.8086 36.2108 30.1798C37.3073 29.5512 37.9883 28.3882 38 27.1242V22.874C37.9994 22.4047 37.8129 21.9548 37.4811 21.623C37.1492 21.291 36.6994 21.1043 36.23 21.1037ZM37.1286 27.1243C37.1177 28.0775 36.6029 28.9535 35.7755 29.4271C34.9483 29.9005 33.932 29.9005 33.1047 29.4269C32.2773 28.9535 31.7627 28.0773 31.7518 27.1243V22.8741C31.752 22.6358 31.8467 22.4073 32.0151 22.2389C32.1836 22.0703 32.4121 21.9755 32.6504 21.9752H36.23C36.4683 21.9755 36.6966 22.0703 36.8653 22.2389C37.0337 22.4073 37.1284 22.6358 37.1286 22.8741L37.1286 27.1243ZM34.4591 20.2279C35.3861 20.2174 36.2382 19.717 36.6986 18.9126C37.159 18.108 37.159 17.1197 36.6986 16.3153C36.238 15.5109 35.3859 15.0105 34.4591 15C33.5321 15.0105 32.68 15.5109 32.2196 16.3153C31.7592 17.1199 31.7592 18.1082 32.2196 18.9126C32.6802 19.717 33.5323 20.2174 34.4591 20.2279ZM34.4591 15.8713C35.0757 15.8803 35.6417 16.2144 35.9475 16.7499C36.2532 17.2855 36.2532 17.9427 35.9475 18.4781C35.6417 19.0136 35.0757 19.3477 34.4591 19.3567C33.8425 19.3477 33.2765 19.0136 32.9708 18.4781C32.665 17.9425 32.665 17.2853 32.9708 16.7499C33.2765 16.2144 33.8425 15.8803 34.4591 15.8713Z" fill="#C89963"/>
</svg>
