<svg width="26" height="26" viewBox="0 0 26 26" fill="none" xmlns="http://www.w3.org/2000/svg">
<path d="M6.5 0H15.4375V1.625H6.5C5.60254 1.625 4.875 2.35254 4.875 3.25V22.75C4.875 23.6475 5.60254 24.375 6.5 24.375H19.5C20.3975 24.375 21.125 23.6475 21.125 22.75V7.3125H22.75V22.75C22.75 24.5449 21.2949 26 19.5 26H6.5C4.70508 26 3.25 24.5449 3.25 22.75V3.25C3.25 1.45507 4.70508 0 6.5 0Z" fill="#C89963"/>
<path d="M15.4375 4.875V0L22.75 7.3125H17.875C16.5288 7.3125 15.4375 6.22119 15.4375 4.875Z" fill="#C89963"/>
<path fill-rule="evenodd" clip-rule="evenodd" d="M8.125 18.6875C8.125 18.2388 8.48877 17.875 8.9375 17.875H12.1875C12.6362 17.875 13 18.2388 13 18.6875C13 19.1362 12.6362 19.5 12.1875 19.5H8.9375C8.48877 19.5 8.125 19.1362 8.125 18.6875Z" fill="#C89963"/>
<path fill-rule="evenodd" clip-rule="evenodd" d="M8.125 15.4375C8.125 14.9888 8.48877 14.625 8.9375 14.625H17.0625C17.5112 14.625 17.875 14.9888 17.875 15.4375C17.875 15.8862 17.5112 16.25 17.0625 16.25H8.9375C8.48877 16.25 8.125 15.8862 8.125 15.4375Z" fill="#C89963"/>
<path fill-rule="evenodd" clip-rule="evenodd" d="M8.125 12.1875C8.125 11.7388 8.48877 11.375 8.9375 11.375H17.0625C17.5112 11.375 17.875 11.7388 17.875 12.1875C17.875 12.6362 17.5112 13 17.0625 13H8.9375C8.48877 13 8.125 12.6362 8.125 12.1875Z" fill="#C89963"/>
</svg>
