<svg width="14" height="25" viewBox="0 0 14 25" fill="none" xmlns="http://www.w3.org/2000/svg">
<g clip-path="url(#clip0_189_749)">
<path d="M6.07258 16.7434C5.97941 15.4711 5.41731 14.2397 4.52258 13.3505C4.13805 12.9686 3.65598 12.558 3.68912 12.011C3.70413 11.766 3.82605 11.5434 3.94485 11.3304C4.65263 10.0626 5.36042 8.79407 6.0682 7.52623C6.49462 6.76245 6.9273 5.98971 7.53191 5.36475C8.16279 5.69226 8.54545 6.35433 9.01876 6.8923C9.82408 7.80769 10.9683 8.40323 12.1657 8.52989C12.3038 8.96871 12.4414 9.40689 12.5796 9.84571C12.7353 10.3395 12.8909 10.8756 12.7278 11.3669C12.5283 11.9682 11.9118 12.3232 11.6267 12.8868C11.1828 13.7631 11.6386 14.9075 11.1921 15.7826C11.0465 16.0685 10.8164 16.2982 10.6125 16.5444C9.64339 17.7195 9.28449 19.2868 9.00376 20.797C8.90934 19.5733 8.33911 18.3944 7.445 17.5756C7.23492 18.2946 6.89978 18.9746 6.45898 19.574C6.46273 18.4238 5.92752 16.4594 6.07133 16.7427L6.07258 16.7434Z" fill="#3E7F00"/>
<g style="mix-blend-mode:overlay" opacity="0.2">
<path d="M12.5802 9.84594C12.544 9.73144 12.5083 9.61758 12.4721 9.50307C11.0471 9.17236 9.57842 9.03803 8.11846 9.10775C7.35565 9.14421 6.58659 9.23761 5.87005 9.50755C5.34922 9.70393 4.85652 10.002 4.46449 10.3999C4.29129 10.7102 4.1181 11.0204 3.94491 11.3306C3.82611 11.5437 3.70418 11.7669 3.68918 12.0113C3.65541 12.5582 4.13811 12.9689 4.52264 13.3508C4.56828 13.3955 4.61205 13.4422 4.65582 13.4889C5.126 12.9049 5.4974 12.1021 5.88443 11.5066C5.9307 11.4349 5.98948 11.3562 6.07326 11.3518C6.15392 11.3473 6.21957 11.4138 6.27397 11.4758C6.62223 11.8737 6.9705 12.2723 7.31876 12.6701C7.55823 12.4456 7.7977 12.2211 8.03717 11.9965C8.74121 12.8454 9.39835 13.7352 10.0055 14.6589C9.96983 14.4376 10.0824 14.2207 10.2043 14.0339C10.7026 13.2734 11.4148 12.6912 12.0569 12.0528C12.3039 11.8078 12.5446 11.5462 12.7572 11.2667C12.8704 10.8029 12.7253 10.3059 12.5802 9.8453V9.84594Z" fill="black"/>
</g>
<g style="mix-blend-mode:overlay" opacity="0.2">
<path d="M12.1662 8.53056C11.3915 8.44868 10.6393 8.16978 9.98657 7.73543C8.39155 7.7284 6.76965 8.18257 5.30657 8.89261C4.85263 9.70565 4.39933 10.5187 3.94539 11.3317C3.8266 11.5447 3.70467 11.768 3.68967 12.0123C3.6559 12.5593 4.1386 12.9699 4.52313 13.3518C4.68006 13.5079 4.82637 13.6755 4.96268 13.8508C5.21153 13.5047 5.40035 13.0889 5.50289 12.8305C5.68609 12.3699 5.79676 11.8639 6.10501 11.4795C6.73276 12.9456 7.11167 14.5231 7.21921 16.1204C7.24672 16.5253 7.26048 16.9462 7.44242 17.3076C7.63625 17.188 7.71378 16.943 7.75442 16.7153C7.87447 16.0366 7.79194 15.34 7.79131 14.6504C7.79069 13.9608 7.8876 13.2316 8.30465 12.6898C8.97616 13.7318 9.59266 14.8109 10.1516 15.9208C10.6837 15.3297 10.8488 14.4892 11.2577 13.8034C11.3152 13.7069 11.3784 13.6147 11.4447 13.5252C11.4734 13.3032 11.5266 13.0883 11.6285 12.8881C11.9142 12.3245 12.5307 11.9695 12.7295 11.3682C12.8927 10.8769 12.7371 10.3409 12.5814 9.84702C12.4432 9.4082 12.3056 8.97002 12.1674 8.53119L12.1662 8.53056Z" fill="black"/>
</g>
<g style="mix-blend-mode:overlay" opacity="0.2">
<path d="M12.6008 9.91309C12.302 10.3468 11.8111 10.6813 11.521 11.1387C11.0996 11.8033 11.1409 12.6528 11.0458 13.4384C10.8914 14.7126 10.3293 15.9318 9.46645 16.8645C9.32327 17.0193 9.12256 17.1786 8.92748 17.105C8.75804 17.0417 8.69051 16.8351 8.66425 16.6528C8.55734 15.9088 8.77555 15.1604 8.99126 14.4414C9.25262 13.5701 9.51397 12.6995 9.77595 11.8283C9.82347 11.6696 9.85598 11.4611 9.72155 11.3677C9.63652 11.3089 9.52272 11.3281 9.42268 11.3498C9.12882 11.4144 8.82619 11.4854 8.58422 11.6677C8.12466 12.0138 8.00586 12.6535 7.92146 13.2311C7.73826 14.49 7.55443 15.7489 7.37123 17.0078C7.26557 17.075 7.11863 17.0091 7.05173 16.9016C6.98545 16.7941 6.97858 16.6604 6.97545 16.5338C6.93481 14.7427 7.28432 12.9388 7.01734 11.1681C6.84915 11.2449 6.80163 11.4624 6.77662 11.6492C6.52402 13.5522 6.37333 15.4694 6.32519 17.389C6.21515 17.1843 6.12511 16.9739 6.04883 16.7583C6.07634 17.0315 6.46212 18.5974 6.45899 19.5748C6.8998 18.9754 7.23493 18.2948 7.44501 17.5765C8.33912 18.3953 8.90935 19.5742 9.00377 20.7979C9.2845 19.287 9.6434 17.7204 10.6125 16.5453C10.8157 16.2984 11.0458 16.0694 11.1921 15.7834C11.6386 14.9084 11.1828 13.764 11.6267 12.8876C11.9124 12.324 12.5289 11.969 12.7278 11.3677C12.8834 10.8982 12.7484 10.3884 12.6002 9.91309H12.6008Z" fill="black"/>
</g>
<g style="mix-blend-mode:overlay" opacity="0.2">
<path d="M5.17014 11.0285C5.01133 11.1014 5.00695 11.3266 5.02696 11.5031C5.11512 12.2733 5.20328 13.0441 5.29081 13.8143C5.31457 14.0209 5.3696 14.2774 5.41711 14.5448C5.53028 14.7508 5.6297 14.9638 5.71536 15.1832C5.56217 13.7989 5.6397 12.3347 5.16951 11.0278L5.17014 11.0285Z" fill="black"/>
</g>
<path d="M8.13756 20.6352C8.13068 19.3296 7.9306 18.1187 7.57858 16.8688C7.57045 16.8387 7.52168 16.8432 7.52418 16.8764C7.60047 18.1193 7.61172 19.3891 7.58296 20.6352C7.56858 21.2442 7.53544 21.8525 7.48792 22.4596C7.44353 23.0231 7.32723 23.6097 7.47291 24.1643C7.48667 24.2174 7.5517 24.2187 7.57983 24.1784C8.20321 23.2777 8.14381 21.6907 8.13818 20.6352H8.13756Z" fill="#89B71A"/>
<path d="M7.33369 24.4544C7.26428 24.1934 7.10922 23.9759 7.02606 23.7168C6.91977 23.3829 6.90789 23.0407 6.91727 22.6927C6.93352 22.0767 6.97542 21.4894 6.87913 20.8766C6.63653 19.3363 6.47397 17.8324 6.42144 16.2703C6.3758 14.9065 6.37768 13.544 6.1926 12.1898C6.01503 10.8874 5.55922 9.61314 4.98024 8.44252C4.96774 8.41694 4.92459 8.43485 4.9346 8.46235C5.45793 9.86197 5.58173 11.3473 5.70741 12.8295C5.83558 14.341 5.86685 15.859 5.96126 17.3731C6.00315 18.0467 6.0738 18.7158 6.1751 19.383C6.29264 20.1551 6.50023 20.9355 6.49835 21.7197C6.49647 22.479 6.12445 24.3405 7.20551 24.5849C7.28179 24.6021 7.35494 24.5356 7.33306 24.4544H7.33369Z" fill="#89B71A"/>
<path d="M8.95124 16.155C8.90247 15.04 8.89434 13.927 8.98938 12.8146C9.07941 11.7559 9.24573 10.6262 8.99313 9.581C8.98312 9.53878 8.92247 9.54965 8.92122 9.59123C8.84244 11.8109 8.23345 13.9187 8.36662 16.155C8.43103 17.2348 8.64111 18.3024 8.69301 19.3783C8.71989 19.931 8.71677 20.4876 8.69238 21.0396C8.67112 21.5085 8.59672 21.9934 8.68488 22.4552C8.68675 22.4642 8.69926 22.4648 8.70364 22.4578C9.16007 21.6735 9.06003 20.4888 9.03627 19.6163C9.00563 18.4598 9.00188 17.3122 8.95124 16.155Z" fill="#89B71A"/>
<path d="M0.205766 4.56368C-0.0912282 5.47267 -0.0918534 6.51663 0.370207 7.35013C0.720348 7.98086 1.32246 8.48812 1.45814 9.20009C1.57882 9.83209 1.31309 10.5594 1.66698 11.0916C1.94021 11.5036 2.50857 11.6526 2.72865 12.0966C2.82807 12.2961 2.8437 12.536 2.9675 12.7209C3.15508 13.0011 3.52147 13.0689 3.81909 13.2192C4.23426 13.429 4.54563 13.8429 4.63817 14.3073C4.72883 13.745 4.52875 13.1424 4.73008 12.6115C4.93204 12.0799 5.50102 11.7319 5.60544 11.1716C5.68984 10.72 5.44412 10.2824 5.31594 9.84169C4.96705 8.64612 5.48289 7.36484 5.38347 6.1213C5.30657 5.15858 4.85201 4.24704 4.19237 3.55619C3.75719 3.10009 2.43541 1.94675 1.74388 2.16104C1.07111 2.36958 0.407097 3.94703 0.205766 4.56304V4.56368Z" fill="#448C04"/>
<g style="mix-blend-mode:overlay" opacity="0.2">
<path d="M5.60589 11.1723C5.69029 10.7207 5.44457 10.2832 5.31639 9.84245C4.9675 8.64688 5.48334 7.3656 5.38392 6.12206C5.30702 5.15934 4.85246 4.2478 4.19282 3.55694C4.19282 3.55694 4.19219 3.5563 4.19157 3.55566C3.98148 3.91772 3.86956 4.40324 3.81204 4.71029C3.72263 5.18941 3.72951 5.71075 3.9646 6.1355C4.08527 6.35299 4.2641 6.54425 4.31412 6.78861C4.42291 7.31699 3.90395 7.74173 3.70762 8.24388C3.31121 9.25842 4.29098 10.3369 4.18532 11.4244C4.12717 12.0244 3.74451 12.5406 3.5957 13.1221C3.67136 13.1528 3.74701 13.1841 3.81829 13.22C4.23346 13.4298 4.54483 13.8436 4.63737 14.3081C4.72803 13.7458 4.52795 13.1432 4.72928 12.6123C4.93124 12.0807 5.50022 11.7327 5.60464 11.1723H5.60589Z" fill="black"/>
</g>
<g style="mix-blend-mode:overlay" opacity="0.2">
<path d="M5.18474 10.081C5.23164 10.01 5.28041 9.9371 5.32167 9.86162C5.3198 9.85522 5.31792 9.84882 5.31605 9.84307C5.25289 9.62686 5.21851 9.40744 5.2035 9.18612C5.14285 9.16053 5.07782 9.15669 5.01655 9.18995C4.83585 9.28718 4.85649 9.57376 4.70768 9.71641C4.52198 9.89424 4.15871 9.63389 4.25937 9.39465C4.33565 9.21298 4.59263 9.09656 4.54574 8.90466C4.49134 8.68077 4.14182 8.76329 3.963 8.6232C3.84608 8.53172 3.82545 8.35965 3.8367 8.20868C3.89297 7.44171 4.49572 6.78667 4.49196 6.01714C4.49009 5.66403 4.19309 5.23929 3.87984 5.38769C3.68101 5.48173 3.63287 5.7408 3.58785 5.96021C3.54346 6.17962 3.42904 6.43741 3.2102 6.44828C3.12266 6.23847 3.23208 6.0037 3.2796 5.78046C3.32712 5.55721 3.24334 5.24888 3.02012 5.24632C2.9551 5.24568 2.89007 5.27383 2.82567 5.26359C2.69437 5.24376 2.63434 5.08576 2.61684 4.95079C2.54493 4.39363 2.74501 3.74307 2.38674 3.31641C1.96845 3.3727 1.7815 3.90171 1.81964 4.33158C1.85778 4.76144 2.0291 5.18619 1.95845 5.61094C1.70022 5.42735 1.51264 5.14269 1.44261 4.82925C1.29881 4.77552 1.18939 4.9687 1.165 5.12286C1.06184 5.78046 1.28443 6.48219 1.74461 6.95299C1.91968 7.1321 2.1479 7.33872 2.09037 7.58563C2.06974 7.67583 2.01159 7.75195 1.98033 7.83895C1.86278 8.16455 2.13602 8.48694 2.36924 8.73898C2.60246 8.99037 2.8263 9.37802 2.62496 9.65692C2.35798 9.52259 1.97533 9.41768 1.81526 9.67355C1.75336 9.77206 1.75086 9.89808 1.76962 10.0139C1.89154 10.7521 2.7075 11.0924 3.24834 11.5964C3.35838 11.6994 3.4653 11.867 3.37964 11.9918C3.334 12.0583 3.24959 12.0819 3.18269 12.1254C2.93259 12.2879 2.97823 12.696 3.17769 12.9218C3.36901 13.0485 3.61099 13.1144 3.81982 13.2199C4.08305 13.353 4.30376 13.5679 4.45382 13.8251C4.48571 13.8475 4.51822 13.8686 4.55386 13.8839C4.59326 13.8104 4.62514 13.7285 4.65328 13.6428C4.63452 13.289 4.60701 12.9372 4.73081 12.6116C4.7752 12.4939 4.83835 12.3858 4.91026 12.2822C4.94152 12.1178 4.96153 11.9457 4.89525 11.7947C4.8171 11.6182 4.62827 11.4947 4.60326 11.3028C4.58888 11.1902 4.63515 11.0796 4.68267 10.9772C4.82772 10.6663 4.99592 10.3657 5.18474 10.0804V10.081Z" fill="black"/>
</g>
<g opacity="0.3">
<path d="M4.81958 9.11227C5.20786 8.58965 5.46796 8.00818 5.40981 7.33907C5.40794 7.31796 5.37918 7.31796 5.37793 7.33907C5.35042 7.76766 5.26351 8.18409 5.05592 8.5615C4.85709 8.92164 4.5651 9.21846 4.31062 9.53638C4.02363 9.89588 3.46653 10.668 3.82105 11.1477C3.20518 10.6117 2.23229 10.4217 1.91841 9.59779C1.91216 9.58179 1.89028 9.58755 1.89278 9.60482C1.98156 10.1038 2.41361 10.3654 2.81127 10.6059C3.35274 10.9328 3.8792 11.2571 4.23059 11.8092C4.24247 11.8277 4.27498 11.8162 4.26686 11.7932C4.18057 11.536 4.03114 11.3403 3.84981 11.1752C3.86669 11.1861 3.88608 11.1906 3.90921 11.1855C3.92484 11.1816 3.94047 11.1784 3.95611 11.1746C3.98174 11.1688 3.98862 11.1388 3.97861 11.1177C3.8223 10.7767 4.05802 10.24 4.21746 9.94577C4.38253 9.64192 4.61387 9.38605 4.81833 9.11099L4.81958 9.11227Z" fill="#B2ED40"/>
<path d="M3.17083 9.11336C3.18146 9.13191 3.20772 9.12295 3.20897 9.10248C3.22835 8.85237 3.2221 8.61057 3.28337 8.36429C3.33777 8.14552 3.42405 7.93507 3.50471 7.72589C3.6629 7.31713 3.81609 6.90646 3.92488 6.48043C4.12058 5.71729 4.18686 4.87419 3.86423 4.1392C3.85423 4.11681 3.82109 4.1328 3.82672 4.15519C4.06119 5.10384 3.94802 6.01858 3.63727 6.93397C3.50284 7.32929 3.32339 7.70798 3.19334 8.10522C3.08892 8.42506 2.99201 8.80439 3.1702 9.11272L3.17083 9.11336Z" fill="#B2ED40"/>
<path d="M2.48952 6.37752C2.48077 6.39287 2.50077 6.40823 2.51328 6.39607C3.1354 5.78262 3.31548 4.70796 3.04849 3.88405C3.04162 3.86294 3.01348 3.87189 3.01661 3.893C3.09101 4.38236 3.06475 4.82566 2.95783 5.25296C2.46388 4.55699 2.17752 3.76635 2.07123 2.91237C2.06935 2.89574 2.04372 2.89446 2.04497 2.91237C2.09561 3.78937 2.42324 4.61648 2.94345 5.31053C2.84654 5.67068 2.6921 6.01994 2.49015 6.37688L2.48952 6.37752Z" fill="#B2ED40"/>
<path d="M3.01332 8.35617C3.04833 8.37089 3.07709 8.31651 3.04958 8.2922C2.64379 7.92695 2.1017 7.73504 1.68403 7.37554C1.25136 7.00325 0.906844 6.48958 0.743028 5.93434C0.736776 5.91259 0.703012 5.92155 0.709265 5.94394C0.864327 6.49918 1.11755 6.98726 1.54398 7.37618C1.74843 7.56233 1.97978 7.71265 2.21049 7.86042C2.46997 8.02674 2.72883 8.23783 3.01269 8.35617H3.01332Z" fill="#B2ED40"/>
</g>
<path d="M7.36487 24.3871C6.66147 23.0265 6.3801 21.6326 6.1275 20.132C5.84176 18.4342 5.46661 16.7512 5.06833 15.0778C4.67942 13.4428 4.25112 11.8155 3.77281 10.2048C3.28198 8.55182 2.58295 6.9008 2.41914 5.16535C2.41789 5.15192 2.3985 5.15192 2.3985 5.16535C2.39163 6.82148 2.92559 8.35736 3.36827 9.93545C3.86659 11.7131 4.3274 13.4985 4.71381 15.3056C5.09209 17.073 5.38595 18.8564 5.67294 20.6418C5.89929 22.0484 5.99557 23.5901 6.99473 24.6794C7.18293 24.8848 7.4868 24.6238 7.36487 24.3878V24.3871Z" fill="#94CC27"/>
<path d="M8.38838 12.8515C8.53031 12.004 8.71351 11.1647 8.83168 10.3133C9.05739 8.68722 9.16431 7.07906 8.87232 5.45556C8.87107 5.44724 8.85669 5.44916 8.85794 5.45747C9.07115 7.18717 8.998 8.9399 8.68912 10.6523C8.41276 12.1818 7.80377 13.6723 7.67434 15.2222C7.55179 16.6845 7.85879 18.1769 8.10701 19.6091C8.26458 20.5162 8.31835 21.3932 8.12577 22.2996C7.97321 23.0186 7.56242 23.673 7.48614 24.4023C7.46363 24.6185 7.74499 24.6933 7.87817 24.5686C8.40526 24.0728 8.53031 23.2528 8.63035 22.5593C8.73664 21.825 8.73664 21.0772 8.6466 20.3416C8.44652 18.7097 7.93632 17.1041 7.98009 15.4448C8.00322 14.5736 8.24457 13.7087 8.38838 12.8522V12.8515Z" fill="#94CC27"/>
<path d="M13.8899 5.95206C13.8086 5.09169 13.9712 4.1955 13.7023 3.37607C13.3522 2.30908 12.3455 1.59264 11.8003 0.630561C11.6309 0.33183 11.257 0.225004 10.9606 0.390041C9.88453 0.990062 8.9529 1.86003 8.27388 2.90399C8.02378 3.28907 7.80494 3.70295 7.69177 4.15072C7.52545 4.80832 7.59236 5.50749 7.44167 6.16892C7.29411 6.81627 6.94397 7.4003 6.79266 8.04702C6.56444 9.02189 6.83143 10.1042 7.48544 10.8507C7.79619 11.2058 8.10694 11.5601 8.45083 11.8819C9.55565 12.915 9.28616 14.5366 9.51438 14.7458C9.97769 14.1995 9.92017 13.0679 10.5279 12.6751C11.3845 12.1205 12.3505 11.5211 12.6131 10.5194C12.7 10.188 12.7 9.83684 12.8007 9.50997C13.0345 8.75387 13.7717 8.23253 13.953 7.46171C14.0687 6.96916 13.9374 6.45613 13.8899 5.95206Z" fill="#448C04"/>
<g style="mix-blend-mode:overlay" opacity="0.2">
<path d="M10.4943 5.77554C10.9514 4.57039 10.2448 3.22898 10.3505 1.94066C10.3961 1.38478 10.6087 0.850643 10.9363 0.404785C10.0566 0.900538 9.27568 1.57732 8.65043 2.38204C8.49724 2.81446 8.38157 3.26288 8.28653 3.71129C8.05894 4.78212 7.93577 5.87278 7.81947 6.96151C7.73944 7.70994 7.66253 8.45964 7.62502 9.21191C7.60001 9.71278 7.5231 10.3653 7.56499 10.941C7.7657 11.17 7.96765 11.3977 8.17961 11.6152C8.40596 11.4246 8.62729 11.1207 8.81112 10.9115C9.23879 10.4254 9.62582 9.86054 9.70273 9.194C9.77338 8.57862 9.56955 7.94278 9.71586 7.34148C9.85466 6.77153 10.2867 6.32311 10.4943 5.7749V5.77554Z" fill="black"/>
</g>
<g style="mix-blend-mode:overlay" opacity="0.2">
<path d="M11.0095 6.50919C11.7804 5.68528 12.8677 5.0859 13.246 4.01316C13.3148 3.81869 13.3541 3.59161 13.2535 3.41186C13.1128 3.15918 12.747 3.12208 12.4988 3.26345C12.2506 3.40482 12.0968 3.67029 11.9717 3.93192C11.8467 4.19355 11.7341 4.46989 11.5297 4.67267C11.4871 4.71489 11.4384 4.75455 11.3802 4.76606C11.1989 4.80252 11.0839 4.54281 11.1476 4.36498C11.2114 4.18715 11.3677 4.06369 11.4678 3.90441C11.5672 3.74513 11.5822 3.48926 11.4165 3.40546C11.2939 3.34341 11.1489 3.4125 11.0126 3.40866C10.6387 3.39778 10.5042 2.89244 10.5368 2.51055C10.5693 2.1293 10.628 1.66617 10.3279 1.43652C9.73331 1.70007 9.63202 2.52782 9.7652 3.17645C9.899 3.82509 10.1772 4.4846 10.0141 5.1262C9.91276 5.526 9.6464 5.87399 9.59326 6.28274C9.5151 6.88148 9.88712 7.58257 9.50885 8.04634C9.23186 7.9747 9.20685 7.42585 8.92549 7.47575C8.84295 7.49046 8.78105 7.56083 8.73229 7.63055C8.20832 8.38409 8.46093 9.44469 8.90736 10.2488C9.12369 10.639 9.3813 11.1322 9.12557 11.4968C8.85421 11.3778 8.58035 11.6861 8.56159 11.9919C8.94862 12.4026 9.1437 12.8881 9.25249 13.3384C9.26125 13.3544 9.27063 13.3704 9.27875 13.3864C9.42569 13.6698 9.58075 13.9896 9.89275 13.9052C10.0359 13.4203 10.1604 12.9124 10.5274 12.6744C10.5955 12.6303 10.6649 12.5855 10.7343 12.5407C10.875 12.0405 11.0176 11.5281 11.3546 11.2243C11.4903 11.1021 11.6485 11.0029 11.7573 10.8558C11.866 10.7081 11.9104 10.4867 11.7966 10.3434C11.5021 10.3863 11.2077 10.4292 10.9132 10.472C10.8656 10.479 10.815 10.4854 10.7719 10.4643C10.7231 10.4407 10.6943 10.3869 10.6812 10.3332C10.6187 10.0812 10.8231 9.83873 11.0451 9.71335C11.2677 9.58797 11.5265 9.52273 11.7166 9.35065C11.9073 9.17858 11.9867 8.83187 11.7866 8.67195C11.6972 8.60031 11.5741 8.58368 11.489 8.50691C11.3265 8.35915 11.3934 8.07641 11.5347 7.90753C11.676 7.73866 11.8754 7.62223 11.9936 7.43545C12.1118 7.24866 12.0949 6.93842 11.8886 6.86741C11.5415 6.74843 11.2939 7.42649 10.9457 7.31135C10.7956 7.26146 10.7268 7.07083 10.7593 6.91283C10.7919 6.75483 10.8994 6.62561 11.0082 6.50855L11.0095 6.50919Z" fill="black"/>
</g>
<g opacity="0.3">
<path d="M11.1744 7.78332C10.6079 8.34048 9.77199 9.24051 9.99145 10.1361C9.99895 10.1674 10.0415 10.1648 10.0508 10.1361C10.2115 9.62048 10.3203 9.15991 10.6155 8.69678C10.8881 8.26947 11.2294 7.91125 11.5933 7.56583C12.223 6.96836 12.9845 6.32357 13.2746 5.46639C13.2784 5.45488 13.2615 5.44784 13.2559 5.45808C13.0014 5.9308 12.7025 6.35043 12.3211 6.72465C11.9497 7.08926 11.5458 7.41806 11.175 7.78332H11.1744Z" fill="#B2ED40"/>
<path d="M13.0285 8.00387C13.036 7.98148 13.0035 7.96869 12.9922 7.98788C12.7296 8.42478 12.4432 8.81307 12.0831 9.17193C11.763 9.49113 11.4203 9.78602 11.1046 10.1097C10.4299 10.8012 9.9835 11.668 9.93223 12.6588C9.9291 12.7138 10.0023 12.7151 10.0191 12.671C10.2273 12.1375 10.3099 11.5701 10.5887 11.0641C10.6456 10.9611 10.7075 10.862 10.7738 10.766C11.3672 10.37 12.1012 10.292 12.5908 9.71629C12.6071 9.6971 12.5827 9.6728 12.5639 9.68879C12.18 10.0144 11.7967 10.1973 11.3259 10.3528C11.214 10.3899 11.0939 10.4315 10.9833 10.4884C11.134 10.3042 11.2971 10.1302 11.4635 9.96129C12.0306 9.38558 12.7684 8.80987 13.0285 8.00323V8.00387Z" fill="#B2ED40"/>
<path d="M9.97717 6.74846C9.97467 6.77148 10.0134 6.77724 10.0172 6.75421C10.0835 6.37488 10.4817 6.18937 10.7675 5.99683C11.0382 5.81452 11.2877 5.60663 11.5234 5.37826C11.9767 4.93944 12.4325 4.40403 12.6758 3.80912C12.6845 3.78801 12.6532 3.77778 12.642 3.79441C12.1806 4.48463 11.7473 5.12686 11.0882 5.64181C10.7025 5.94374 10.0309 6.18362 9.97717 6.74846Z" fill="#B2ED40"/>
<path d="M10.1498 3.7329C10.1541 3.75145 10.1854 3.74825 10.1835 3.72842C10.1785 3.68173 10.176 3.63567 10.1748 3.59025C10.2523 3.88195 10.3123 4.17492 10.3236 4.47941C10.3373 4.85042 10.2742 5.22208 10.3061 5.59117C10.3086 5.61996 10.348 5.62828 10.3567 5.59821C10.5274 5.02889 10.5099 4.35531 10.373 3.78024C10.3223 3.5685 10.2623 3.36253 10.2067 3.15911C10.2773 2.74268 10.4511 2.35375 10.5874 1.93988C10.5968 1.91109 10.5549 1.89446 10.5399 1.91941C10.3592 2.23157 10.2129 2.57508 10.146 2.93138C10.0447 2.52966 9.97719 2.12666 10.0478 1.68592C10.0528 1.65586 10.0147 1.64562 10.0034 1.67377C9.78211 2.22006 9.95218 2.80601 10.1079 3.34717C10.1091 3.47575 10.1216 3.60497 10.1504 3.73354L10.1498 3.7329Z" fill="#B2ED40"/>
</g>
<path d="M6.40747 0.614367C5.79785 0.957236 5.40457 1.66792 5.43083 2.37925C5.44333 2.72148 5.54275 3.0765 5.42958 3.3989C5.25638 3.89273 4.64989 4.12238 4.48482 4.61877C4.23535 5.37103 5.14509 6.0702 5.08381 6.86213C5.05755 7.20244 4.85435 7.49669 4.71367 7.80566C4.41229 8.46517 4.41292 9.31402 4.88061 9.86223C5.10195 10.1219 5.40457 10.2927 5.67843 10.4942C6.58192 11.1576 7.20342 12.2086 7.35973 13.3351C7.37348 12.7529 7.39412 12.1446 7.67235 11.6367C8.07752 10.8972 8.98601 10.4488 9.12106 9.61211C9.21172 9.04792 8.90722 8.46965 9.02415 7.91056C9.11356 7.48198 9.43244 7.14871 9.63314 6.7617C9.93514 6.17959 9.96077 5.49449 9.98016 4.83626C9.99391 4.37185 10.007 3.90105 9.90763 3.44751C9.8301 3.09249 9.68441 2.7541 9.63377 2.39396C9.60063 2.16048 9.60813 1.92123 9.56436 1.68903C9.43556 1.01289 8.87846 0.490269 8.25821 0.220964C7.90307 0.0668006 7.67861 -0.0867227 7.33722 0.0565658C7.0471 0.178105 6.69571 0.452528 6.40872 0.614367H6.40747Z" fill="#4D9E0E"/>
<g style="mix-blend-mode:overlay" opacity="0.2">
<path d="M8.28925 9.79599C8.22548 9.68853 8.13607 9.59513 8.09667 9.47615C7.98788 9.15183 8.278 8.84735 8.50059 8.59083C8.72318 8.33432 8.87261 7.87503 8.58562 7.6972C8.45995 7.81618 8.26299 7.8488 8.1073 7.77588C8.06729 7.42981 8.26987 7.10358 8.49871 6.84579C8.72755 6.58799 8.99641 6.35451 9.14022 6.03851C9.28403 5.72251 9.25214 5.28369 8.96202 5.10138C8.912 5.07003 8.85385 5.047 8.79508 5.05084C8.65252 5.06044 8.56749 5.21076 8.4737 5.32079C8.37929 5.43081 8.18108 5.49798 8.11231 5.3694C8.61438 4.31457 8.6669 3.04544 8.25361 1.95159C8.14107 1.6535 7.91035 1.32022 7.60273 1.37268C7.30386 1.42321 7.18693 1.79167 7.13629 2.09744C7.03312 2.72048 6.95747 3.34801 6.9087 3.9781C6.62108 4.04718 6.5498 3.39727 6.26156 3.46251C6.17153 3.48298 6.114 3.57254 6.07711 3.6589C5.78762 4.33312 6.14964 5.0937 6.45539 5.76025C6.56919 6.00908 6.6786 6.27775 6.63921 6.54961C6.59982 6.82148 6.3516 7.07927 6.08899 7.0217C5.94268 6.98971 5.83139 6.87265 5.70571 6.78949C5.58004 6.70634 5.40059 6.66028 5.29055 6.76455C5.16862 6.87969 5.22114 7.08631 5.2993 7.23599C5.61068 7.83345 6.20029 8.32345 6.23092 8.99959C6.23718 9.14032 6.18903 9.31495 6.05398 9.3399C5.9827 9.35333 5.91205 9.31751 5.84577 9.28809C5.55065 9.15695 5.21302 9.12817 4.90039 9.20685C4.9873 9.54844 5.10985 9.87979 5.25928 10.1977C5.39684 10.2981 5.54127 10.3915 5.67883 10.4926C6.37411 11.0031 6.90119 11.7438 7.17881 12.5709C7.29573 12.3701 7.40765 12.1737 7.52645 11.9792C7.56521 11.8609 7.61148 11.7451 7.6715 11.6351C7.80968 11.383 8.00601 11.1649 8.2111 10.9532C8.40805 10.5738 8.49934 10.1472 8.28925 9.79407V9.79599Z" fill="black"/>
</g>
<g opacity="0.3">
<path d="M6.2387 4.24386C6.35937 4.63407 6.58071 4.9699 6.83769 5.27951C7.08529 5.5776 7.36477 5.92239 7.73992 6.0452C7.77119 6.05544 7.79932 6.00938 7.77306 5.98699C7.47357 5.73112 7.23785 5.43047 6.98962 5.1247C6.89146 5.0038 6.79704 4.88099 6.70951 4.75433C6.91522 3.47113 7.15969 2.21224 6.89146 0.910488C6.88896 0.897695 6.86832 0.900893 6.86957 0.913687C6.91334 1.62437 6.92522 2.32162 6.84081 3.02975C6.79642 3.40204 6.70513 3.75387 6.62135 4.11785C6.59071 4.25026 6.56445 4.38076 6.55632 4.51061C6.45566 4.33406 6.37187 4.14791 6.31748 3.94385C6.09801 3.11675 6.08613 2.23655 5.90419 1.40048C5.89793 1.3717 5.85229 1.37746 5.85354 1.40752C5.87855 1.93142 5.95671 2.45724 6.01673 2.97794C6.06613 3.40332 6.11114 3.83511 6.23807 4.24514L6.2387 4.24386Z" fill="#B2ED40"/>
<path d="M9.4711 5.6305C9.23726 5.7981 9.0278 5.96186 8.74456 6.03414C8.5895 6.0738 8.42443 6.08212 8.26499 6.1077C8.39692 5.92859 8.51822 5.74181 8.63264 5.55054C8.94214 5.03368 9.25539 4.49059 9.39295 3.89505C9.39607 3.88226 9.37732 3.8733 9.37169 3.88609C9.05531 4.55136 8.78333 5.19808 8.32377 5.77891C8.11431 6.0431 7.88672 6.29065 7.65725 6.53629C7.50531 6.69941 7.4009 6.81071 7.43529 7.04164C7.44216 7.08642 7.50656 7.07234 7.50907 7.0314C7.51907 6.87148 7.7229 6.73203 7.82232 6.62904C7.93361 6.51454 8.04053 6.3962 8.14057 6.27146C8.14244 6.2689 8.14432 6.26699 8.14557 6.26443C8.602 6.35782 9.22726 5.97209 9.48549 5.65033C9.49361 5.6401 9.48298 5.62219 9.47048 5.6305H9.4711Z" fill="#B2ED40"/>
<path d="M9.21863 7.0436C9.22488 7.02632 9.19925 7.01609 9.18987 7.03144C9.0073 7.33657 8.83848 7.65641 8.62902 7.94363C8.40956 8.24364 8.13757 8.472 7.85246 8.70165C7.4523 9.02469 7.00649 9.4731 7.18344 10.0418C7.19032 10.0642 7.22345 10.0603 7.22345 10.036C7.23221 9.61831 7.43792 9.33109 7.6999 9.08098C7.80869 9.0394 7.91686 8.99526 8.0269 8.95688C8.15508 8.9121 8.28576 8.87692 8.40643 8.81231C8.43707 8.79568 8.42081 8.7509 8.38955 8.74898C8.2645 8.74259 8.13132 8.77009 8.00314 8.81615C8.13195 8.70932 8.26137 8.60378 8.37892 8.48927C8.78283 8.09715 9.02293 7.56749 9.21801 7.0436H9.21863Z" fill="#B2ED40"/>
<path d="M7.24842 9.05038C7.35471 8.42861 7.27156 7.75183 6.63442 7.47741C6.52063 7.42815 6.39996 7.39809 6.28053 7.3661C5.97603 7.13006 5.74407 6.81406 5.74032 6.40338C5.74032 6.39059 5.71968 6.38675 5.71718 6.40018C5.67591 6.62599 5.70968 6.85372 5.82097 7.05458C5.86411 7.13198 5.91914 7.20234 5.98166 7.26375C5.97291 7.25927 5.96353 7.25608 5.95478 7.2516C5.73656 7.14221 5.55024 6.95735 5.40706 6.75904C5.11819 6.3586 4.97438 5.88908 4.83495 5.41955C4.8287 5.39972 4.80181 5.40804 4.80494 5.42787C4.91623 6.15966 5.15821 6.91257 5.79784 7.3322C6.13047 7.55033 6.60004 7.58359 6.87014 7.88744C7.129 8.17978 7.17839 8.66657 7.19027 9.04206C7.19152 9.07533 7.24342 9.0862 7.24967 9.05038H7.24842Z" fill="#B2ED40"/>
</g>
<path d="M7.69356 19.1506C7.78172 17.3352 7.74608 15.5224 7.60978 13.7108C7.5435 12.8261 7.46847 11.9376 7.47785 11.0497C7.4866 10.2104 7.61853 9.38718 7.71795 8.55623C7.91865 6.87323 7.9199 5.16528 7.56976 3.50403C7.56538 3.4842 7.53537 3.48868 7.53537 3.50851C7.54225 5.3687 7.49973 7.20714 7.20962 9.04751C6.93513 10.7868 7.00203 12.4442 7.12833 14.1944C7.25901 16.0092 7.2859 17.8297 7.17773 19.6464C7.12521 20.5272 7.01141 21.3933 6.9245 22.2697C6.84447 23.0789 6.88323 23.929 7.29465 24.6468C7.44909 24.9167 7.82111 24.7293 7.76796 24.4427C7.4322 22.6394 7.60602 20.9648 7.69419 19.1506H7.69356Z" fill="#9BDB35"/>
<path d="M11.0883 3.99216C11.0908 3.98577 11.0808 3.98193 11.0777 3.98768C10.7019 4.67854 10.3524 5.32782 10.136 6.09543C9.90594 6.91103 9.87467 7.75029 9.88093 8.59403C9.89531 10.4856 9.85216 12.2875 9.50327 14.1528C9.35134 14.9665 9.21003 15.7776 9.12625 16.6022C9.03496 17.5009 9.14188 18.3939 9.09373 19.2946C9.04309 20.2426 8.85614 21.1778 8.66981 22.1054C8.58541 22.5263 8.49912 22.9497 8.3772 23.3617C8.2684 23.7276 8.11584 24.041 8.16023 24.4287C8.16961 24.5131 8.24464 24.5656 8.32342 24.524C8.90428 24.2208 9.03058 23.3962 9.15876 22.8013C9.33821 21.9691 9.48389 21.1209 9.58643 20.2752C9.69773 19.3554 9.64583 18.4694 9.59331 17.5489C9.53641 16.5491 9.65896 15.6068 9.83716 14.6243C9.98409 13.8145 10.1492 12.9989 10.1879 12.1737C10.2329 11.2174 10.1379 10.2649 10.1023 9.31047C10.0673 8.36438 10.0104 7.38951 10.2161 6.45813C10.4018 5.61631 10.7625 4.78601 11.0883 3.99216Z" fill="#9BDB35"/>
<path d="M7.55615 15.1718C7.55615 15.2428 7.5574 15.3138 7.5574 15.3848C7.5574 15.3868 7.56053 15.3868 7.56053 15.3848C7.56053 15.3138 7.56178 15.2428 7.56178 15.1718C7.56178 15.168 7.55615 15.168 7.55615 15.1718Z" fill="#89B71A"/>
<path d="M9.1295 20.6984C9.05759 21.2223 8.93442 21.7411 8.82 22.2573C8.73872 22.6239 8.60304 22.9271 8.44672 23.2629C8.35106 23.4683 8.27666 23.7734 8.1366 23.9493C7.47821 24.7745 7.3888 23.0633 7.38067 22.7537C7.36566 22.1748 7.32127 21.5377 7.38755 20.9658C7.38817 20.9588 7.37692 20.9569 7.37504 20.9639C7.16371 21.9362 6.80356 22.7953 6.90548 23.8258C6.95863 24.3619 7.22998 24.9869 7.83773 24.999C8.53363 25.0125 8.84251 24.2608 8.94005 23.6723C9.10261 22.6955 9.17827 21.6957 9.17514 20.7048C9.17514 20.6786 9.13325 20.6709 9.12887 20.6984H9.1295Z" fill="#B9ED54"/>
<path d="M8.66283 20.7483C8.66158 20.7271 8.63219 20.7271 8.63094 20.7483C8.59342 21.315 8.47525 21.8747 8.29956 22.4133C8.16575 22.8234 7.92191 23.2142 7.89502 23.6505C7.89502 23.6569 7.90315 23.662 7.90815 23.6582C8.70034 23.1004 8.72598 21.6221 8.66283 20.7483Z" fill="#B9ED54"/>
<path d="M6.10949 21.1004C5.99695 20.4018 5.89816 19.7033 5.77248 19.0073C5.51675 17.5898 5.186 16.2522 4.74082 14.8846C4.73894 14.8788 4.73081 14.8814 4.73206 14.8872C5.13535 16.3309 5.46798 17.9032 5.57053 19.4014C5.61367 20.0347 5.64556 20.6699 5.73122 21.2987C5.80687 21.8539 5.87315 22.4853 6.28206 22.8928C6.3252 22.9356 6.39023 22.9024 6.39461 22.8454C6.43712 22.2671 6.20078 21.671 6.10887 21.1004H6.10949Z" fill="#B9ED54"/>
<path d="M7.69506 15.3299C7.56188 13.7281 7.4831 12.1283 7.40307 10.5259C7.40307 10.5188 7.39244 10.5169 7.39056 10.5239C7.07481 12.0067 7.3024 13.4767 7.42683 14.978C7.56251 16.6169 7.74445 18.2187 7.43183 19.8498C7.42995 19.8594 7.44371 19.8633 7.44621 19.8537C7.77634 18.3818 7.82073 16.8299 7.69568 15.3299H7.69506Z" fill="#B9ED54"/>
<path d="M10.0404 10.1517C10.0391 10.1421 10.0254 10.1421 10.026 10.1517C10.1211 11.5264 9.84719 12.9798 9.5008 14.3039C9.48955 14.3468 9.5552 14.3781 9.57271 14.3352C10.1523 12.9427 10.2017 11.6364 10.0404 10.1517Z" fill="#B9ED54"/>
<path d="M7.69083 2.14472C7.68896 2.11658 7.64394 2.1057 7.63894 2.13768C7.48513 3.20787 7.60705 4.15268 7.73085 5.20943C7.73148 5.21711 7.74398 5.21775 7.74335 5.20943C7.67895 4.19938 7.75023 3.16373 7.69083 2.14472Z" fill="#B9ED54"/>
<path d="M9.23974 1.81965C9.14595 1.18253 8.83395 0.603617 8.24684 0.335591C8.04551 0.243477 7.83417 0.393802 7.87982 0.624087C7.97423 1.10449 8.25059 1.52092 8.35876 2.00388C8.48006 2.54697 8.60323 3.2455 8.61199 3.80586C8.61199 3.84104 8.66013 3.85575 8.67764 3.82377C9.04654 3.14827 9.36166 2.641 9.24099 1.81837L9.23974 1.81965Z" fill="#5AAD12"/>
<path d="M8.78536 4.2952C8.71658 4.17366 8.54214 4.14743 8.44522 4.25042C8.37645 4.32398 8.32893 4.41226 8.30267 4.51077C8.28328 4.58369 8.27203 4.68093 8.29516 4.76025C8.29704 4.77624 8.29891 4.79287 8.30204 4.80886C8.31267 4.87347 8.39145 4.93488 8.45585 4.92848C8.48586 4.92528 8.51463 4.92337 8.54276 4.91121H8.53401C8.78786 4.87411 8.91291 4.52229 8.78473 4.2952H8.78536Z" fill="#5AAD12"/>
<path d="M6.12497 4.62088C5.98742 3.84879 5.85174 3.0607 5.80047 2.27773C5.80047 2.26813 5.78859 2.2675 5.78483 2.27581C5.49784 3.02616 5.31902 3.79441 5.39655 4.61001C5.45283 5.20299 5.50535 6.03266 6.10309 6.31156C6.14623 6.33139 6.20438 6.32691 6.22876 6.27765C6.49199 5.74928 6.22189 5.16717 6.12497 4.62088Z" fill="#5AAD12"/>
<path d="M6.7035 6.89196C6.69975 6.87981 6.69475 6.87021 6.68912 6.86061C6.69037 6.82799 6.68099 6.79473 6.66536 6.76594C6.65848 6.75315 6.65098 6.74099 6.64223 6.72948C6.6341 6.71925 6.62659 6.70837 6.61847 6.69814C6.61784 6.69686 6.61722 6.69622 6.61534 6.69366C6.58908 6.65592 6.55907 6.6009 6.51592 6.5702C6.47716 6.51199 6.38775 6.4896 6.34898 6.56572C6.34398 6.57532 6.3396 6.58491 6.3346 6.59515C6.27708 6.66551 6.29021 6.78897 6.33148 6.86381C6.38087 6.95337 6.49342 7.0442 6.59658 6.99623C6.63035 6.98855 6.66411 6.97576 6.68787 6.95273C6.70287 6.93802 6.70975 6.91307 6.7035 6.8926V6.89196Z" fill="#5AAD12"/>
<path d="M13.2866 2.99158C12.9315 2.3794 12.3144 2.00007 11.9186 1.42564C11.9142 1.41924 11.9048 1.425 11.9086 1.4314C12.1268 1.87278 12.4626 2.2342 12.6733 2.67302C12.9571 3.26408 12.8971 3.86922 12.7927 4.49227C12.7152 4.95348 12.7352 5.25413 12.914 5.68143C13.176 6.30512 13.5242 6.86868 13.0822 7.50133C13.0647 7.52691 13.1003 7.56401 13.1247 7.54482C13.4498 7.29791 13.493 6.93713 13.5242 6.54308C13.5467 6.25523 13.5186 6.00575 13.5098 5.72237C13.498 5.33409 13.578 4.94452 13.6155 4.55368C13.668 4.00739 13.563 3.46558 13.2873 2.99094L13.2866 2.99158Z" fill="#5AAD12"/>
<path d="M1.51324 8.04294C1.28439 7.62331 1.1037 7.05719 0.978021 6.58958C0.889236 6.25951 0.692907 5.14135 1.04742 4.91426C1.08244 4.89187 1.10995 4.85093 1.10745 4.80679C1.06743 4.09931 0.973019 3.5543 1.34754 2.9031C1.3488 2.90119 1.34567 2.89927 1.34442 2.90119C1.07931 3.29587 0.81233 3.82552 0.792947 4.31232C0.782318 4.58227 0.837965 4.64432 0.694157 4.82534C0.544097 5.01405 0.403415 5.07738 0.301499 5.3115C0.105171 5.76504 0.163319 6.319 0.330261 6.77189C0.56348 7.40518 0.982398 7.66937 1.47322 8.07428C1.49448 8.09219 1.52824 8.07044 1.51324 8.04294Z" fill="#5AAD12"/>
</g>
<defs>
<clipPath id="clip0_189_749">
<rect width="14" height="25" fill="white"/>
</clipPath>
</defs>
</svg>
