<svg width="91" height="91" viewBox="0 0 91 91" fill="none" xmlns="http://www.w3.org/2000/svg">
<circle cx="46.0543" cy="24.7486" r="19.9561" fill="#FEFCF8"/>
<g filter="url(#filter0_d_269_145)">
<path d="M42.925 10.8141C44.3292 9.35128 46.6703 9.35128 48.0745 10.8141C48.9481 11.7241 50.2379 12.1052 51.4656 11.8154C53.4292 11.3519 55.3922 12.6412 55.7868 14.6197C56.0342 15.8598 56.9168 16.8975 58.1069 17.3251C60.0125 18.0097 60.9713 20.1534 60.2412 22.0421C59.7838 23.2251 59.9729 24.5785 60.7434 25.5859C61.9787 27.2008 61.6516 29.523 60.0113 30.7243C58.9894 31.4727 58.4335 32.7194 58.5421 33.9814C58.7153 35.993 57.1953 37.785 55.1795 37.8993C53.9189 37.9708 52.784 38.7106 52.2006 39.8304C51.267 41.6225 49.0211 42.297 47.267 41.2938C46.1721 40.6675 44.8274 40.6675 43.7325 41.2938C41.9784 42.297 39.7325 41.6225 38.7989 39.8304C38.2155 38.7106 37.0806 37.9708 35.82 37.8993C33.8042 37.785 32.2842 35.993 32.4574 33.9814C32.566 32.7194 32.0101 31.4727 30.9882 30.7243C29.3479 29.523 29.0208 27.2008 30.2561 25.5859C31.0267 24.5785 31.2157 23.2251 30.7583 22.0421C30.0282 20.1534 30.987 18.0097 32.8926 17.3251C34.0827 16.8975 34.9653 15.8598 35.2127 14.6197C35.6074 12.6412 37.5704 11.3519 39.5339 11.8154C40.7616 12.1052 42.0514 11.7241 42.925 10.8141Z" fill="url(#paint0_linear_269_145)"/>
<path d="M42.925 10.8141C44.3292 9.35128 46.6703 9.35128 48.0745 10.8141C48.9481 11.7241 50.2379 12.1052 51.4656 11.8154C53.4292 11.3519 55.3922 12.6412 55.7868 14.6197C56.0342 15.8598 56.9168 16.8975 58.1069 17.3251C60.0125 18.0097 60.9713 20.1534 60.2412 22.0421C59.7838 23.2251 59.9729 24.5785 60.7434 25.5859C61.9787 27.2008 61.6516 29.523 60.0113 30.7243C58.9894 31.4727 58.4335 32.7194 58.5421 33.9814C58.7153 35.993 57.1953 37.785 55.1795 37.8993C53.9189 37.9708 52.784 38.7106 52.2006 39.8304C51.267 41.6225 49.0211 42.297 47.267 41.2938C46.1721 40.6675 44.8274 40.6675 43.7325 41.2938C41.9784 42.297 39.7325 41.6225 38.7989 39.8304C38.2155 38.7106 37.0806 37.9708 35.82 37.8993C33.8042 37.785 32.2842 35.993 32.4574 33.9814C32.566 32.7194 32.0101 31.4727 30.9882 30.7243C29.3479 29.523 29.0208 27.2008 30.2561 25.5859C31.0267 24.5785 31.2157 23.2251 30.7583 22.0421C30.0282 20.1534 30.987 18.0097 32.8926 17.3251C34.0827 16.8975 34.9653 15.8598 35.2127 14.6197C35.6074 12.6412 37.5704 11.3519 39.5339 11.8154C40.7616 12.1052 42.0514 11.7241 42.925 10.8141Z" fill="url(#paint1_linear_269_145)" fill-opacity="0.1"/>
<path d="M33.3665 25.8686C33.3665 19.1675 38.7987 13.7353 45.4998 13.7353C52.2008 13.7353 57.6331 19.1675 57.6331 25.8686V26.1181C57.6331 32.8192 52.2008 38.2514 45.4998 38.2514C38.7987 38.2514 33.3665 32.8192 33.3665 26.1181V25.8686Z" fill="black" fill-opacity="0.04"/>
<path d="M39.744 25.8686C39.744 22.6898 42.3209 20.1128 45.4998 20.1128C48.6786 20.1128 51.2555 22.6898 51.2555 25.8686V26.1181C51.2555 29.2969 48.6786 31.8739 45.4998 31.8739C42.321 31.8739 39.744 29.2969 39.744 26.1181V25.8686Z" stroke="white" stroke-opacity="0.3" stroke-width="12.7551"/>
<path d="M57.8807 26.1046C57.8807 32.8962 52.375 38.4019 45.5834 38.4019C38.7918 38.4019 33.2861 32.8962 33.2861 26.1046C33.2861 19.313 38.7918 13.8073 45.5834 13.8073C52.375 13.8073 57.8807 19.313 57.8807 26.1046ZM35.8178 26.1046C35.8178 31.498 40.19 35.8702 45.5834 35.8702C50.9768 35.8702 55.349 31.498 55.349 26.1046C55.349 20.7112 50.9768 16.339 45.5834 16.339C40.19 16.339 35.8178 20.7112 35.8178 26.1046Z" fill="url(#paint2_linear_269_145)" fill-opacity="0.5"/>
<path d="M40.2878 25.359L43.5416 24.6964L44.5178 23.0399L45.4939 21.3834L47.4462 24.6964L50.6999 25.359L48.0969 28.0093L48.7477 31.3223L45.4939 29.6658L42.2401 31.3223L42.8909 28.0093L40.2878 25.359Z" fill="#FFEF9C"/>
<path fill-rule="evenodd" clip-rule="evenodd" d="M43.5414 24.6964L45.4937 21.3834L47.446 24.6964L50.6997 25.3589L48.0967 28.0093L48.7475 31.3222L45.4937 29.6658L42.2399 31.3222L42.8907 28.0093L40.2876 25.3589L43.5414 24.6964ZM41.8657 28.3165L39.6123 26.0222C39.3692 25.7747 39.281 25.4139 39.3825 25.0821C39.4839 24.7503 39.7588 24.5007 40.0988 24.4314L42.9398 23.8529L44.6782 20.9029C44.8484 20.6141 45.1585 20.4369 45.4937 20.4369C45.8288 20.4369 46.139 20.6141 46.3092 20.9029L48.0476 23.8529L50.8886 24.4314C51.2286 24.5007 51.5035 24.7503 51.6049 25.0821C51.7064 25.4139 51.6182 25.7747 51.3751 26.0222L49.1217 28.3165L49.6763 31.1398C49.7461 31.4952 49.607 31.8592 49.318 32.0775C49.029 32.2958 48.6408 32.3301 48.318 32.1658L45.4937 30.7279L42.6693 32.1658C42.3466 32.3301 41.9584 32.2958 41.6694 32.0775C41.3804 31.8592 41.2413 31.4952 41.3111 31.1398L41.8657 28.3165Z" fill="#E89B05"/>
</g>
<defs>
<filter id="filter0_d_269_145" x="-1.05838" y="-1.55444" width="93.1163" height="93.1163" filterUnits="userSpaceOnUse" color-interpolation-filters="sRGB">
<feFlood flood-opacity="0" result="BackgroundImageFix"/>
<feColorMatrix in="SourceAlpha" type="matrix" values="0 0 0 0 0 0 0 0 0 0 0 0 0 0 0 0 0 0 127 0" result="hardAlpha"/>
<feOffset dy="19.3721"/>
<feGaussianBlur stdDeviation="14.5291"/>
<feComposite in2="hardAlpha" operator="out"/>
<feColorMatrix type="matrix" values="0 0 0 0 0.917647 0 0 0 0 0.690196 0 0 0 0 0.12549 0 0 0 0.4 0"/>
<feBlend mode="normal" in2="BackgroundImageFix" result="effect1_dropShadow_269_145"/>
<feBlend mode="normal" in="SourceGraphic" in2="effect1_dropShadow_269_145" result="shape"/>
</filter>
<linearGradient id="paint0_linear_269_145" x1="34.1452" y1="11.4094" x2="53.3426" y2="41.6686" gradientUnits="userSpaceOnUse">
<stop stop-color="#FFE092"/>
<stop offset="1" stop-color="#E3A302"/>
</linearGradient>
<linearGradient id="paint1_linear_269_145" x1="21.9891" y1="5.39746" x2="48.5763" y2="52.8533" gradientUnits="userSpaceOnUse">
<stop stop-color="white"/>
<stop offset="1" stop-color="white" stop-opacity="0"/>
</linearGradient>
<linearGradient id="paint2_linear_269_145" x1="45.5834" y1="13.8073" x2="45.5834" y2="38.4019" gradientUnits="userSpaceOnUse">
<stop stop-color="white"/>
<stop offset="0.0001" stop-color="white" stop-opacity="0.81"/>
<stop offset="1" stop-color="white" stop-opacity="0"/>
</linearGradient>
</defs>
</svg>
