<svg width="60" height="51" viewBox="0 0 60 51" fill="none" xmlns="http://www.w3.org/2000/svg">
<path d="M52.5675 25.6757C52.5675 35.378 44.7022 43.2432 34.9999 43.2432C25.2976 43.2432 17.4324 35.378 17.4324 25.6757C17.4324 15.9734 25.2976 8.10811 34.9999 8.10811C44.7022 8.10811 52.5675 15.9734 52.5675 25.6757ZM21.0491 25.6757C21.0491 33.3805 27.2951 39.6265 34.9999 39.6265C42.7048 39.6265 48.9508 33.3805 48.9508 25.6757C48.9508 17.9708 42.7048 11.7248 34.9999 11.7248C27.2951 11.7248 21.0491 17.9708 21.0491 25.6757Z" fill="url(#paint0_linear_269_1317)" fill-opacity="0.5"/>
<path d="M27.5361 24.6105L32.1844 23.6639L33.5789 21.2976L34.9733 18.9312L37.7623 23.6639L42.4106 24.6105L38.6919 28.3967L39.6216 33.1295L34.9733 30.7631L30.3251 33.1295L31.2547 28.3967L27.5361 24.6105Z" fill="#AF9772"/>
<path fill-rule="evenodd" clip-rule="evenodd" d="M32.1843 23.6639L34.9733 18.9311L37.7623 23.6639L42.4105 24.6105L38.6919 28.3967L39.6216 33.1294L34.9733 30.7631L30.325 33.1294L31.2547 28.3967L27.5361 24.6105L32.1843 23.6639ZM29.7904 28.8356L26.5714 25.558C26.224 25.2043 26.098 24.689 26.243 24.215C26.3879 23.7411 26.7806 23.3843 27.2663 23.2854L31.3249 22.459L33.8083 18.2446C34.0514 17.8321 34.4945 17.5789 34.9733 17.5789C35.4521 17.5789 35.8952 17.8321 36.1383 18.2446L38.6217 22.459L42.6803 23.2854C43.166 23.3843 43.5587 23.7411 43.7036 24.215C43.8486 24.689 43.7226 25.2043 43.3752 25.558L40.1562 28.8356L40.9484 32.8688C41.0481 33.3765 40.8494 33.8966 40.4366 34.2084C40.0237 34.5203 39.4692 34.5692 39.0081 34.3345L34.9733 32.2804L30.9385 34.3345C30.4774 34.5692 29.9228 34.5203 29.51 34.2084C29.0972 33.8966 28.8985 33.3765 28.9982 32.8688L29.7904 28.8356Z" fill="#896A3B"/>
<path d="M21.7479 3.90879C23.7941 1.77722 27.2055 1.77722 29.2516 3.90879C30.5245 5.23478 32.404 5.79004 34.1928 5.36777C37.054 4.69238 39.9144 6.57104 40.4895 9.45405C40.85 11.2611 42.1361 12.7731 43.8702 13.3962C46.6469 14.3938 48.044 17.5175 46.9801 20.2696C46.3137 21.9934 46.5891 23.9654 47.712 25.4334C49.5119 27.7865 49.0353 31.1702 46.6452 32.9207C45.1561 34.0113 44.3461 35.8279 44.5044 37.6669C44.7567 40.5981 42.5418 43.2093 39.6045 43.3758C37.7677 43.48 36.1139 44.558 35.2639 46.1896C33.9035 48.801 30.6309 49.7839 28.0749 48.322C26.4794 47.4095 24.5201 47.4095 22.9246 48.322C20.3686 49.7839 17.096 48.801 15.7356 46.1896C14.8856 44.558 13.2318 43.48 11.395 43.3758C8.45766 43.2093 6.24285 40.5981 6.49513 37.6669C6.6534 35.8279 5.84342 34.0113 4.3543 32.9207C1.96418 31.1702 1.48756 27.7865 3.28752 25.4334C4.41038 23.9654 4.6858 21.9934 4.01942 20.2696C2.95555 17.5175 4.35256 14.3938 7.12933 13.3962C8.86345 12.7731 10.1495 11.2611 10.51 9.45405C11.0851 6.57104 13.9455 4.69238 16.8067 5.36777C18.5956 5.79004 20.4751 5.23478 21.7479 3.90879Z" fill="url(#paint1_linear_269_1317)"/>
<path d="M21.7479 3.90879C23.7941 1.77722 27.2055 1.77722 29.2516 3.90879C30.5245 5.23478 32.404 5.79004 34.1928 5.36777C37.054 4.69238 39.9144 6.57104 40.4895 9.45405C40.85 11.2611 42.1361 12.7731 43.8702 13.3962C46.6469 14.3938 48.044 17.5175 46.9801 20.2696C46.3137 21.9934 46.5891 23.9654 47.712 25.4334C49.5119 27.7865 49.0353 31.1702 46.6452 32.9207C45.1561 34.0113 44.3461 35.8279 44.5044 37.6669C44.7567 40.5981 42.5418 43.2093 39.6045 43.3758C37.7677 43.48 36.1139 44.558 35.2639 46.1896C33.9035 48.801 30.6309 49.7839 28.0749 48.322C26.4794 47.4095 24.5201 47.4095 22.9246 48.322C20.3686 49.7839 17.096 48.801 15.7356 46.1896C14.8856 44.558 13.2318 43.48 11.395 43.3758C8.45766 43.2093 6.24285 40.5981 6.49513 37.6669C6.6534 35.8279 5.84342 34.0113 4.3543 32.9207C1.96418 31.1702 1.48756 27.7865 3.28752 25.4334C4.41038 23.9654 4.6858 21.9934 4.01942 20.2696C2.95555 17.5175 4.35256 14.3938 7.12933 13.3962C8.86345 12.7731 10.1495 11.2611 10.51 9.45405C11.0851 6.57104 13.9455 4.69238 16.8067 5.36777C18.5956 5.79004 20.4751 5.23478 21.7479 3.90879Z" fill="url(#paint2_linear_269_1317)" fill-opacity="0.1"/>
<path d="M7.81909 25.8454C7.81909 16.0811 15.7347 8.16546 25.499 8.16546C35.2634 8.16546 43.179 16.081 43.179 25.8454V26.209C43.179 35.9734 35.2634 43.889 25.499 43.889C15.7347 43.889 7.81909 35.9734 7.81909 26.209V25.8454Z" fill="black" fill-opacity="0.04"/>
<path d="M16.6093 25.8454C16.6093 20.9357 20.5894 16.9556 25.499 16.9556C30.4087 16.9556 34.3888 20.9357 34.3888 25.8454V26.209C34.3888 31.1187 30.4087 35.0988 25.499 35.0988C20.5894 35.0988 16.6093 31.1187 16.6093 26.209V25.8454Z" stroke="white" stroke-opacity="0.3" stroke-width="17.5803"/>
<path d="M43.54 26.1893C43.54 36.0857 35.5174 44.1083 25.6211 44.1083C15.7247 44.1083 7.70215 36.0857 7.70215 26.1893C7.70215 16.293 15.7247 8.27041 25.6211 8.27041C35.5174 8.27041 43.54 16.293 43.54 26.1893ZM11.3912 26.1893C11.3912 34.0483 17.7621 40.4192 25.6211 40.4192C33.48 40.4192 39.8509 34.0483 39.8509 26.1893C39.8509 18.3304 33.48 11.9595 25.6211 11.9595C17.7621 11.9595 11.3912 18.3304 11.3912 26.1893Z" fill="url(#paint3_linear_269_1317)" fill-opacity="0.5"/>
<path d="M17.9033 25.1025L22.6445 24.137L24.0669 21.7233L25.4893 19.3096L28.334 24.137L33.0752 25.1025L29.2823 28.9644L30.2305 33.7919L25.4893 31.3781L20.7481 33.7919L21.6963 28.9644L17.9033 25.1025Z" fill="#FFEF9C"/>
<path fill-rule="evenodd" clip-rule="evenodd" d="M22.6449 24.137L25.4897 19.3096L28.3344 24.137L33.0756 25.1025L29.2826 28.9645L30.2309 33.7919L25.4897 31.3782L20.7484 33.7919L21.6967 28.9645L17.9037 25.1025L22.6449 24.137ZM20.2031 29.4121L16.9197 26.069C16.5654 25.7083 16.4369 25.1827 16.5847 24.6992C16.7326 24.2157 17.1331 23.8519 17.6285 23.751L21.7683 22.908L24.3014 18.6094C24.5493 18.1886 25.0013 17.9303 25.4897 17.9303C25.978 17.9303 26.43 18.1886 26.678 18.6094L29.2111 22.908L33.3508 23.751C33.8462 23.8519 34.2468 24.2157 34.3946 24.6992C34.5424 25.1827 34.4139 25.7083 34.0597 26.069L30.7762 29.4121L31.5843 33.526C31.686 34.0439 31.4833 34.5744 31.0622 34.8924C30.6411 35.2105 30.0754 35.2604 29.6051 35.021L25.4897 32.9259L21.3742 35.021C20.9039 35.2604 20.3382 35.2105 19.9171 34.8924C19.496 34.5744 19.2933 34.0439 19.395 33.526L20.2031 29.4121Z" fill="#E89B05"/>
<defs>
<linearGradient id="paint0_linear_269_1317" x1="34.9999" y1="8.10811" x2="34.9999" y2="43.2432" gradientUnits="userSpaceOnUse">
<stop stop-color="white"/>
<stop offset="0.0001" stop-color="white" stop-opacity="0.81"/>
<stop offset="1" stop-color="white" stop-opacity="0"/>
</linearGradient>
<linearGradient id="paint1_linear_269_1317" x1="8.9546" y1="4.77624" x2="36.9278" y2="48.8682" gradientUnits="userSpaceOnUse">
<stop stop-color="#FFE092"/>
<stop offset="1" stop-color="#E3A302"/>
</linearGradient>
<linearGradient id="paint2_linear_269_1317" x1="-8.7587" y1="-3.98406" x2="29.9827" y2="65.1658" gradientUnits="userSpaceOnUse">
<stop stop-color="white"/>
<stop offset="1" stop-color="white" stop-opacity="0"/>
</linearGradient>
<linearGradient id="paint3_linear_269_1317" x1="25.6211" y1="8.27041" x2="25.6211" y2="44.1083" gradientUnits="userSpaceOnUse">
<stop stop-color="white"/>
<stop offset="0.0001" stop-color="white" stop-opacity="0.81"/>
<stop offset="1" stop-color="white" stop-opacity="0"/>
</linearGradient>
</defs>
</svg>
