<svg width="208" height="208" viewBox="0 0 208 208" fill="none" xmlns="http://www.w3.org/2000/svg">
<circle cx="104" cy="104" r="104" fill="#FFECD6"/>
<path d="M55.1774 48.0167C55.1774 47.2017 54.6341 76.5406 55.4491 81.9737C57.3507 99.0881 61.6972 105.336 65.772 113.214C70.9335 122.722 86.4179 138.207 104.076 139.022C114.67 124.08 113.04 103.706 106.792 91.4817C102.446 83.332 97.5558 74.639 88.0478 66.4893C76.6383 57.5246 55.1774 48.0167 55.1774 48.0167Z" fill="#7D9948"/>
<path d="M102.54 148.785L92.2169 122.706L86.7838 109.666C85.9688 107.493 84.8822 105.319 84.0672 103.418L83.2523 101.788C82.9806 101.245 82.9806 101.245 82.709 100.701L80.8074 97.7131C75.6459 89.8351 70.2128 82.2287 65.8663 73.8074C61.5198 65.6577 58.2599 56.693 55 48C59.0748 56.4213 62.878 64.8427 67.7678 72.7207C72.6577 80.5988 78.6341 87.9335 84.3389 94.9966L86.5121 97.7131C86.7838 98.2564 87.3271 99.0714 87.5988 99.6147L88.4137 101.245C89.5004 103.418 90.3153 105.591 91.402 107.764L96.8351 120.804L107.43 146.883C107.973 148.241 107.43 149.871 106.071 150.414C104.713 150.958 103.355 150.143 102.54 148.785Z" fill="#A6C46F"/>
<path d="M57.8945 75.1831C59.7961 77.0847 61.9694 78.443 64.4143 78.9863C65.5009 79.2579 66.5875 79.258 67.6742 79.258C68.7608 79.258 69.5758 78.7146 70.6624 78.1713L72.564 83.3328C70.934 83.6045 69.3041 83.8761 67.6742 83.3328C66.0442 83.0611 64.6859 82.5178 63.3277 81.7029C60.8828 79.8013 58.9812 77.628 57.8945 75.1831Z" fill="#A6C46F"/>
<path d="M79.626 69.7495C80.7126 72.4661 81.5276 75.4543 81.5276 78.4425C81.5276 80.0725 81.2559 81.7024 80.9843 83.3323C80.4409 84.9623 79.626 86.5922 78.811 88.2221L75.0078 84.419C75.8228 83.604 76.6377 82.789 77.4527 81.7024C77.996 80.6158 78.811 79.5291 79.0827 78.1709C79.626 75.4543 79.8976 72.7377 79.626 69.7495Z" fill="#A6C46F"/>
<path d="M98.6433 78.9858C89.9503 83.8757 85.3322 88.7655 80.714 93.3836C79.8991 94.1986 79.0841 95.0136 78.2691 95.8285C74.1943 99.9034 69.8478 106.695 66.5879 114.573C68.4895 117.561 70.9344 121.093 74.4659 124.624C77.1825 115.659 81.8006 108.053 85.8755 103.707C86.6905 102.892 87.5054 102.077 88.3204 100.99C92.6669 96.3718 96.7417 92.297 104.348 88.2222C102.718 84.9623 100.817 81.9741 98.6433 78.9858Z" fill="#63822A"/>
<path d="M152.975 68.3916C154.061 68.3916 119.833 75.4547 113.585 77.8996C94.5686 85.2343 89.4071 92.2974 81.8007 99.6321C72.8361 108.597 61.9698 131.416 68.2179 152.877C89.6788 161.026 112.77 152.877 123.907 141.739C131.242 134.404 140.479 123.809 145.64 109.955C152.16 94.199 152.975 68.3916 152.975 68.3916Z" fill="#7D9948"/>
<path d="M59.2526 152.876C61.4258 152.061 63.8707 150.975 66.044 149.888C68.2172 148.53 70.6621 147.443 72.8354 145.813C77.1819 143.097 81.5284 140.109 85.8749 136.849C94.2962 130.329 102.446 123.538 110.052 115.931C125.537 101.262 139.663 85.234 152.974 68.1196C140.749 85.7773 127.438 102.892 112.769 118.648C105.434 126.526 97.8278 134.132 89.4064 141.467C85.3316 144.998 80.9851 148.53 76.6386 151.518C74.4653 153.148 72.0204 154.506 69.8472 156.136C67.4022 157.766 64.9573 158.853 62.2408 160.211C60.3392 161.298 57.8943 160.211 56.8076 158.31C55.721 156.408 56.8076 153.963 58.7092 152.876C58.9809 153.148 58.9809 152.876 59.2526 152.876Z" fill="#9AB568"/>
<path d="M85.6041 104.793C84.7891 110.226 84.5174 115.931 85.0608 121.364C85.6041 126.797 86.9624 132.23 89.9506 136.033C90.7655 137.12 90.7655 139.022 89.4073 139.837C88.3206 140.652 86.419 140.652 85.6041 139.293L85.3324 139.022C82.3442 133.317 81.8009 127.069 82.0725 121.364C82.8875 115.659 83.9741 110.226 85.6041 104.793Z" fill="#9AB568"/>
<path d="M133.686 122.179C131.513 123.809 129.339 124.896 126.894 126.254C124.449 127.341 122.005 128.427 119.288 128.971C116.571 129.514 113.855 129.786 110.867 129.514C107.878 129.242 105.162 128.156 102.445 126.526L105.705 122.179C107.335 123.537 109.237 124.896 111.682 125.439C113.855 125.982 116.3 126.254 119.016 126.254C121.461 126.254 124.178 125.711 126.623 124.896C128.796 124.081 131.241 123.266 133.686 122.179Z" fill="#9AB568"/>
<path d="M124.179 81.7026C122.549 86.0491 121.191 90.3956 120.376 94.7421C120.104 96.9154 120.104 99.0886 120.376 101.262C120.647 103.163 121.462 105.065 122.549 106.152L118.474 109.683C116.573 106.967 116.301 104.25 116.573 101.534C116.573 99.0886 117.388 96.6437 118.203 94.1988C119.289 89.8523 121.462 85.5058 124.179 81.7026Z" fill="#9AB568"/>
</svg>
