<svg width="24" height="24" viewBox="0 0 24 24" fill="none" xmlns="http://www.w3.org/2000/svg">
<path fill-rule="evenodd" clip-rule="evenodd" d="M18 12C20.2091 12 22 10.2091 22 8C22 5.79086 20.2091 4 18 4C16.1362 4 14.5701 5.27477 14.126 7H3C2.44772 7 2 7.44772 2 8C2 8.55229 2.44772 9 3 9H14.126C14.5701 10.7252 16.1362 12 18 12ZM16 8C16 9.10457 16.8954 10 18 10C19.1046 10 20 9.10457 20 8C20 6.89543 19.1046 6 18 6C16.8954 6 16 6.89543 16 8ZM2 16C2 13.7909 3.79086 12 6 12C7.86384 12 9.42994 13.2748 9.87398 15H21C21.5523 15 22 15.4477 22 16C22 16.5523 21.5523 17 21 17H9.87398C9.42994 18.7252 7.86384 20 6 20C3.79086 20 2 18.2091 2 16ZM8 16C8 14.8954 7.10457 14 6 14C4.89543 14 4 14.8954 4 16C4 17.1046 4.89543 18 6 18C7.10457 18 8 17.1046 8 16Z" fill="#838383"/>
</svg>
