<svg width="18" height="20" viewBox="0 0 18 20" fill="none" xmlns="http://www.w3.org/2000/svg">
<path d="M1 5H17M16 5L15.133 17.142C15.0971 17.6466 14.8713 18.1188 14.5011 18.4636C14.1309 18.8083 13.6439 19 13.138 19H4.862C4.35528 19.0013 3.86696 18.8102 3.49571 18.4653C3.12447 18.1204 2.89798 17.6474 2.862 17.142L2 5H16ZM7 9V15V9ZM11 9V15V9ZM12 5V2C12 1.73478 11.8946 1.48043 11.7071 1.29289C11.5196 1.10536 11.2652 1 11 1H7C6.73478 1 6.48043 1.10536 6.29289 1.29289C6.10536 1.48043 6 1.73478 6 2V5H12Z" stroke="#CA9A62" stroke-width="2" stroke-linecap="round" stroke-linejoin="round"/>
</svg>
