<svg width="112" height="112" viewBox="0 0 112 112" fill="none" xmlns="http://www.w3.org/2000/svg">
<path fill-rule="evenodd" clip-rule="evenodd" d="M42.5177 6.72089C41.1536 7.88341 40.472 8.46464 39.7435 8.95216C38.0738 10.0716 36.1987 10.8478 34.2273 11.2369C33.3676 11.4075 32.4741 11.4787 30.6882 11.6212C26.2004 11.9794 23.9569 12.1584 22.0846 12.8194C17.7543 14.3485 14.3484 17.7543 12.8194 22.0846C12.1584 23.9568 11.9794 26.2002 11.6212 30.6882C11.4787 32.4742 11.4075 33.3676 11.2369 34.2273C10.8478 36.1989 10.0715 38.0738 8.95216 39.7435C8.46467 40.4719 7.88341 41.1535 6.72089 42.5177C3.80151 45.9442 2.34086 47.6571 1.48501 49.4487C-0.495003 53.5916 -0.495003 58.4084 1.48501 62.5513C2.34095 64.3429 3.80158 66.0558 6.72089 69.4823C7.88341 70.8464 8.46465 71.528 8.95216 72.2565C10.0716 73.9262 10.8478 75.8013 11.2369 77.7727C11.4075 78.6324 11.4787 79.5259 11.6212 81.3118C11.9794 85.7996 12.1584 88.0431 12.8194 89.9154C14.3485 94.2457 17.7543 97.6516 22.0846 99.1806C23.9568 99.8416 26.2002 100.021 30.6882 100.379C32.4742 100.521 33.3676 100.593 34.2273 100.763C36.1989 101.152 38.0738 101.928 39.7435 103.048C40.4719 103.535 41.1535 104.117 42.5177 105.279C45.9442 108.199 47.6571 109.659 49.4487 110.515C53.5916 112.495 58.4084 112.495 62.5513 110.515C64.3429 109.659 66.0558 108.199 69.4823 105.279C70.8464 104.117 71.528 103.535 72.2565 103.048C73.9262 101.928 75.8013 101.152 77.7727 100.763C78.6324 100.593 79.5258 100.521 81.3118 100.379C85.7996 100.021 88.0431 99.8416 89.9154 99.1806C94.2457 97.6516 97.6516 94.2457 99.1806 89.9154C99.8416 88.0432 100.021 85.7998 100.379 81.3118C100.521 79.5258 100.593 78.6324 100.763 77.7727C101.152 75.8011 101.928 73.9262 103.048 72.2565C103.535 71.5281 104.117 70.8465 105.279 69.4823C108.199 66.0558 109.659 64.3429 110.515 62.5513C112.495 58.4084 112.495 53.5916 110.515 49.4487C109.659 47.6571 108.199 45.9442 105.279 42.5177C104.117 41.1536 103.535 40.472 103.048 39.7435C101.928 38.0738 101.152 36.1987 100.763 34.2273C100.593 33.3676 100.521 32.4741 100.379 30.6882C100.021 26.2004 99.8416 23.9569 99.1806 22.0846C97.6515 17.7543 94.2457 14.3484 89.9154 12.8194C88.0431 12.1584 85.7998 11.9794 81.3118 11.6212C79.5258 11.4787 78.6324 11.4075 77.7727 11.2369C75.8011 10.8478 73.9262 10.0715 72.2565 8.95216C71.5281 8.46467 70.8465 7.88341 69.4823 6.72089C66.0558 3.80151 64.3429 2.34086 62.5513 1.48501C58.4084 -0.495003 53.5916 -0.495003 49.4487 1.48501C47.6571 2.34095 45.9442 3.80158 42.5177 6.72089ZM80.4907 44.0339C82.2711 42.2536 82.2711 39.3681 80.4907 37.5887C78.7113 35.8084 75.8249 35.8084 74.0455 37.5887L46.8845 64.7497L37.9538 55.818C36.1735 54.0386 33.2879 54.0386 31.5085 55.818C29.7282 57.5984 29.7282 60.4839 31.5085 62.2642L43.6615 74.4182C45.4418 76.1976 48.3274 76.1976 50.1077 74.4182L80.4907 44.0339Z" fill="#CA9B64"/>
</svg>
