<svg width="170" height="39" viewBox="0 0 170 39" fill="none" xmlns="http://www.w3.org/2000/svg">
<path d="M16.4992 2H37.5808L22.0816 24.9729H1L16.4992 2Z" fill="#CA9B64"/>
<path opacity="0.5" d="M17.4224 27.1022L11.4192 36.0002H33.5008L49 13.0273H32.7024L23.2064 27.1022H17.4224Z" fill="#CA9B64"/>
<path d="M68.69 24.056H72.956V26H66.152V13.292H68.69V24.056ZM79.0745 15.902C80.0465 15.902 80.9165 16.106 81.6845 16.514C82.4645 16.922 83.0765 17.516 83.5205 18.296C83.9645 19.064 84.1865 19.97 84.1865 21.014C84.1865 22.058 83.9645 22.964 83.5205 23.732C83.0765 24.5 82.4645 25.094 81.6845 25.514C80.9165 25.922 80.0465 26.126 79.0745 26.126C78.1025 26.126 77.2265 25.922 76.4465 25.514C75.6785 25.094 75.0725 24.5 74.6285 23.732C74.1845 22.964 73.9625 22.058 73.9625 21.014C73.9625 19.97 74.1845 19.064 74.6285 18.296C75.0725 17.516 75.6785 16.922 76.4465 16.514C77.2265 16.106 78.1025 15.902 79.0745 15.902ZM79.0745 18.098C78.3665 18.098 77.7665 18.35 77.2745 18.854C76.7825 19.346 76.5365 20.066 76.5365 21.014C76.5365 21.962 76.7825 22.688 77.2745 23.192C77.7665 23.684 78.3665 23.93 79.0745 23.93C79.7825 23.93 80.3825 23.684 80.8745 23.192C81.3665 22.688 81.6125 21.962 81.6125 21.014C81.6125 20.066 81.3665 19.346 80.8745 18.854C80.3825 18.35 79.7825 18.098 79.0745 18.098ZM89.8861 15.902C90.7261 15.902 91.4461 16.1 92.0461 16.496C92.6461 16.892 93.0721 17.426 93.3241 18.098V16.028H95.8441V26.036C95.8441 26.96 95.6581 27.788 95.2861 28.52C94.9261 29.264 94.3801 29.846 93.6481 30.266C92.9281 30.686 92.0521 30.896 91.0201 30.896C89.5801 30.896 88.4161 30.554 87.5281 29.87C86.6401 29.186 86.1001 28.256 85.9081 27.08H88.4101C88.5541 27.584 88.8301 27.974 89.2381 28.25C89.6581 28.538 90.1921 28.682 90.8401 28.682C91.5841 28.682 92.1841 28.46 92.6401 28.016C93.0961 27.584 93.3241 26.924 93.3241 26.036V23.912C93.0721 24.584 92.6461 25.124 92.0461 25.532C91.4461 25.928 90.7261 26.126 89.8861 26.126C89.0461 26.126 88.2901 25.922 87.6181 25.514C86.9461 25.106 86.4181 24.518 86.0341 23.75C85.6621 22.97 85.4761 22.058 85.4761 21.014C85.4761 19.97 85.6621 19.064 86.0341 18.296C86.4181 17.516 86.9461 16.922 87.6181 16.514C88.2901 16.106 89.0461 15.902 89.8861 15.902ZM90.6781 18.116C89.8861 18.116 89.2501 18.374 88.7701 18.89C88.2901 19.406 88.0501 20.114 88.0501 21.014C88.0501 21.914 88.2901 22.622 88.7701 23.138C89.2501 23.642 89.8861 23.894 90.6781 23.894C91.4461 23.894 92.0761 23.636 92.5681 23.12C93.0721 22.592 93.3241 21.89 93.3241 21.014C93.3241 20.126 93.0721 19.424 92.5681 18.908C92.0761 18.38 91.4461 18.116 90.6781 18.116ZM102.752 15.902C103.724 15.902 104.594 16.106 105.362 16.514C106.142 16.922 106.754 17.516 107.198 18.296C107.642 19.064 107.864 19.97 107.864 21.014C107.864 22.058 107.642 22.964 107.198 23.732C106.754 24.5 106.142 25.094 105.362 25.514C104.594 25.922 103.724 26.126 102.752 26.126C101.78 26.126 100.904 25.922 100.124 25.514C99.3562 25.094 98.7502 24.5 98.3062 23.732C97.8622 22.964 97.6402 22.058 97.6402 21.014C97.6402 19.97 97.8622 19.064 98.3062 18.296C98.7502 17.516 99.3562 16.922 100.124 16.514C100.904 16.106 101.78 15.902 102.752 15.902ZM102.752 18.098C102.044 18.098 101.444 18.35 100.952 18.854C100.46 19.346 100.214 20.066 100.214 21.014C100.214 21.962 100.46 22.688 100.952 23.192C101.444 23.684 102.044 23.93 102.752 23.93C103.46 23.93 104.06 23.684 104.552 23.192C105.044 22.688 105.29 21.962 105.29 21.014C105.29 20.066 105.044 19.346 104.552 18.854C104.06 18.35 103.46 18.098 102.752 18.098ZM109.37 13.166C109.37 12.758 109.514 12.428 109.802 12.176C110.09 11.912 110.468 11.78 110.936 11.78C111.404 11.78 111.782 11.912 112.07 12.176C112.358 12.428 112.502 12.758 112.502 13.166C112.502 13.562 112.358 13.892 112.07 14.156C111.782 14.408 111.404 14.534 110.936 14.534C110.468 14.534 110.09 14.408 109.802 14.156C109.514 13.892 109.37 13.562 109.37 13.166ZM112.196 16.028V26H109.658V16.028H112.196ZM120.45 15.902C121.29 15.902 122.046 16.106 122.718 16.514C123.39 16.922 123.912 17.516 124.284 18.296C124.668 19.064 124.86 19.97 124.86 21.014C124.86 22.058 124.668 22.97 124.284 23.75C123.912 24.518 123.39 25.106 122.718 25.514C122.046 25.922 121.29 26.126 120.45 26.126C119.61 26.126 118.89 25.928 118.29 25.532C117.702 25.124 117.282 24.584 117.03 23.912V30.752H114.492V16.028H117.03V18.098C117.282 17.426 117.702 16.892 118.29 16.496C118.89 16.1 119.61 15.902 120.45 15.902ZM119.658 18.116C118.89 18.116 118.254 18.38 117.75 18.908C117.258 19.424 117.012 20.126 117.012 21.014C117.012 21.89 117.258 22.592 117.75 23.12C118.254 23.636 118.89 23.894 119.658 23.894C120.45 23.894 121.086 23.642 121.566 23.138C122.046 22.622 122.286 21.914 122.286 21.014C122.286 20.114 122.046 19.406 121.566 18.89C121.086 18.374 120.45 18.116 119.658 18.116ZM130.094 15.902C131.306 15.902 132.278 16.208 133.01 16.82C133.742 17.432 134.198 18.248 134.378 19.268H132.002C131.906 18.788 131.69 18.404 131.354 18.116C131.018 17.828 130.58 17.684 130.04 17.684C129.608 17.684 129.272 17.786 129.032 17.99C128.792 18.194 128.672 18.47 128.672 18.818C128.672 19.094 128.768 19.316 128.96 19.484C129.152 19.652 129.392 19.784 129.68 19.88C129.968 19.976 130.382 20.09 130.922 20.222C131.678 20.39 132.29 20.57 132.758 20.762C133.238 20.942 133.646 21.236 133.982 21.644C134.33 22.04 134.504 22.58 134.504 23.264C134.504 24.116 134.168 24.806 133.496 25.334C132.836 25.862 131.942 26.126 130.814 26.126C129.518 26.126 128.48 25.838 127.7 25.262C126.92 24.674 126.446 23.84 126.278 22.76H128.708C128.768 23.252 128.984 23.642 129.356 23.93C129.728 24.206 130.214 24.344 130.814 24.344C131.246 24.344 131.576 24.242 131.804 24.038C132.032 23.822 132.146 23.546 132.146 23.21C132.146 22.922 132.044 22.688 131.84 22.508C131.648 22.328 131.402 22.19 131.102 22.094C130.814 21.998 130.4 21.884 129.86 21.752C129.116 21.584 128.51 21.416 128.042 21.248C127.586 21.068 127.19 20.786 126.854 20.402C126.53 20.018 126.368 19.49 126.368 18.818C126.368 17.954 126.698 17.252 127.358 16.712C128.018 16.172 128.93 15.902 130.094 15.902ZM145.934 16.028V26H143.396V23.984C143.132 24.656 142.694 25.184 142.082 25.568C141.482 25.94 140.786 26.126 139.994 26.126C138.842 26.126 137.924 25.748 137.24 24.992C136.556 24.236 136.214 23.18 136.214 21.824V16.028H138.734V21.536C138.734 22.328 138.938 22.946 139.346 23.39C139.754 23.822 140.306 24.038 141.002 24.038C141.734 24.038 142.316 23.804 142.748 23.336C143.18 22.868 143.396 22.196 143.396 21.32V16.028H145.934ZM160.932 15.884C162.144 15.884 163.098 16.262 163.794 17.018C164.502 17.762 164.856 18.824 164.856 20.204V26H162.336V20.492C162.336 19.724 162.138 19.136 161.742 18.728C161.358 18.308 160.824 18.098 160.14 18.098C159.432 18.098 158.868 18.32 158.448 18.764C158.028 19.208 157.818 19.856 157.818 20.708V26H155.298V20.492C155.298 19.724 155.1 19.136 154.704 18.728C154.32 18.308 153.786 18.098 153.102 18.098C152.394 18.098 151.83 18.32 151.41 18.764C150.99 19.208 150.78 19.856 150.78 20.708V26H148.242V16.028H150.78V17.918C151.044 17.27 151.458 16.772 152.022 16.424C152.598 16.064 153.264 15.884 154.02 15.884C154.824 15.884 155.52 16.076 156.108 16.46C156.708 16.844 157.158 17.396 157.458 18.116C157.77 17.432 158.232 16.892 158.844 16.496C159.468 16.088 160.164 15.884 160.932 15.884Z" fill="#CA9B64"/>
</svg>
