<svg width="371" height="371" viewBox="0 0 371 371" fill="none" xmlns="http://www.w3.org/2000/svg">
<g filter="url(#filter0_f_393_2065)">
<circle cx="185.5" cy="185.5" r="131.5" fill="#FFECD6"/>
</g>
<circle cx="186" cy="187" r="104" fill="#FFECD6"/>
<path d="M137.177 131.017C137.177 130.202 136.634 159.541 137.449 164.974C139.351 182.088 143.697 188.336 147.772 196.214C152.933 205.722 168.418 221.207 186.076 222.022C196.67 207.08 195.04 186.706 188.792 174.482C184.446 166.332 179.556 157.639 170.048 149.489C158.638 140.525 137.177 131.017 137.177 131.017Z" fill="#7D9948"/>
<path d="M184.54 231.785L174.217 205.706L168.784 192.666C167.969 190.493 166.882 188.319 166.067 186.418L165.252 184.788C164.981 184.245 164.981 184.245 164.709 183.701L162.807 180.713C157.646 172.835 152.213 165.229 147.866 156.807C143.52 148.658 140.26 139.693 137 131C141.075 139.421 144.878 147.843 149.768 155.721C154.658 163.599 160.634 170.933 166.339 177.997L168.512 180.713C168.784 181.256 169.327 182.071 169.599 182.615L170.414 184.245C171.5 186.418 172.315 188.591 173.402 190.764L178.835 203.804L189.43 229.883C189.973 231.241 189.43 232.871 188.071 233.414C186.713 233.958 185.355 233.143 184.54 231.785Z" fill="#A6C46F"/>
<path d="M139.895 158.183C141.796 160.084 143.969 161.442 146.414 161.986C147.501 162.257 148.588 162.257 149.674 162.257C150.761 162.257 151.576 161.714 152.662 161.171L154.564 166.332C152.934 166.604 151.304 166.876 149.674 166.332C148.044 166.061 146.686 165.517 145.328 164.702C142.883 162.801 140.981 160.628 139.895 158.183Z" fill="#A6C46F"/>
<path d="M161.626 152.749C162.713 155.466 163.528 158.454 163.528 161.442C163.528 163.072 163.256 164.702 162.984 166.332C162.441 167.962 161.626 169.592 160.811 171.222L157.008 167.418C157.823 166.603 158.638 165.789 159.453 164.702C159.996 163.615 160.811 162.529 161.083 161.17C161.626 158.454 161.898 155.737 161.626 152.749Z" fill="#A6C46F"/>
<path d="M180.644 161.985C171.951 166.875 167.332 171.765 162.714 176.383C161.899 177.198 161.084 178.013 160.269 178.828C156.195 182.903 151.848 189.694 148.588 197.572C150.49 200.561 152.935 204.092 156.466 207.624C159.183 198.659 163.801 191.053 167.876 186.706C168.691 185.891 169.506 185.076 170.321 183.99C174.667 179.371 178.742 175.297 186.348 171.222C184.718 167.962 182.817 164.974 180.644 161.985Z" fill="#63822A"/>
<path d="M234.974 151.392C236.061 151.392 201.832 158.455 195.584 160.9C176.568 168.234 171.407 175.297 163.8 182.632C154.836 191.597 143.97 214.416 150.218 235.877C171.679 244.026 194.769 235.877 205.907 224.739C213.242 217.404 222.478 206.809 227.64 192.955C234.159 177.199 234.974 151.392 234.974 151.392Z" fill="#7D9948"/>
<path d="M141.252 235.877C143.425 235.062 145.87 233.975 148.043 232.889C150.217 231.53 152.662 230.444 154.835 228.814C159.181 226.097 163.528 223.109 167.874 219.849C176.296 213.329 184.445 206.538 192.052 198.932C207.536 184.262 221.662 168.234 234.974 151.12C222.749 168.778 209.438 185.892 194.768 201.648C187.434 209.526 179.827 217.133 171.406 224.467C167.331 227.999 162.985 231.53 158.638 234.519C156.465 236.149 154.02 237.507 151.847 239.137C149.402 240.767 146.957 241.853 144.24 243.212C142.339 244.298 139.894 243.212 138.807 241.31C137.721 239.408 138.807 236.964 140.709 235.877C140.98 236.149 140.98 235.877 141.252 235.877Z" fill="#9AB568"/>
<path d="M167.604 187.793C166.789 193.226 166.517 198.931 167.061 204.364C167.604 209.797 168.962 215.23 171.951 219.033C172.766 220.12 172.766 222.022 171.407 222.837C170.321 223.652 168.419 223.652 167.604 222.293L167.332 222.022C164.344 216.317 163.801 210.069 164.073 204.364C164.888 198.659 165.974 193.226 167.604 187.793Z" fill="#9AB568"/>
<path d="M215.686 205.179C213.513 206.809 211.34 207.895 208.895 209.254C206.45 210.34 204.005 211.427 201.288 211.97C198.572 212.513 195.855 212.785 192.867 212.513C189.879 212.242 187.162 211.155 184.446 209.525L187.706 205.179C189.336 206.537 191.237 207.895 193.682 208.439C195.855 208.982 198.3 209.254 201.017 209.254C203.462 209.254 206.178 208.71 208.623 207.895C210.796 207.08 213.241 206.265 215.686 205.179Z" fill="#9AB568"/>
<path d="M206.179 164.702C204.549 169.049 203.191 173.395 202.376 177.742C202.104 179.915 202.104 182.088 202.376 184.261C202.648 186.163 203.463 188.065 204.549 189.151L200.474 192.683C198.573 189.966 198.301 187.25 198.573 184.533C198.573 182.088 199.388 179.643 200.203 177.198C201.289 172.852 203.463 168.505 206.179 164.702Z" fill="#9AB568"/>
<defs>
<filter id="filter0_f_393_2065" x="0" y="0" width="371" height="371" filterUnits="userSpaceOnUse" color-interpolation-filters="sRGB">
<feFlood flood-opacity="0" result="BackgroundImageFix"/>
<feBlend mode="normal" in="SourceGraphic" in2="BackgroundImageFix" result="shape"/>
<feGaussianBlur stdDeviation="27" result="effect1_foregroundBlur_393_2065"/>
</filter>
</defs>
</svg>
